<?xml version="1.0" encoding="UTF-8"?>
<svg xmlns="http://www.w3.org/2000/svg"
     width="800" height="800"
     viewBox="0 0 800 800">

  <rect x="0" y="0"
        width="800"
        height="800"
        fill="white"/>

  <text x="10"
        y="22"
        font-family="Arial"
        font-size="14"
        fill="#444">
        MeanderGen - Development Preview
        </text>
  <path d="M 150 150 L 155.0 150.0 L 159.99999605318754 149.99371763506915 L 164.9999614728307 149.9751218728509 L 169.9998267912421 149.93842312972782 L 174.99946245575256 149.87806401976866 L 179.99866399203978 149.7887107904836 L 184.99713939118695 149.66524547502763 L 189.99449850085566 149.50275877092216 L 194.99017902798656 149.29497024658784 L 199.9834607609597 149.03586112834498 L 204.97341794769045 148.71911631845194 L 209.9589248804748 148.3386946797941 L 214.93864547542626 147.8888249250691 L 219.9110253523338 147.3640027078137 L 224.87428619722826 146.75898883562752 L 229.82642221372458 146.06880851562408 L 234.7678145185735 145.30549855919742 L 239.69929308732074 144.48056272776176 L 244.6220340846358 143.60499372799438 L 249.53746911559332 142.68929811457488 L 254.44720525924288 141.7435227714087 L 259.3529548065427 140.77728192194732 L 264.2564736985947 139.79978385274748 L 269.1595077419634 138.81985672812675 L 274.063745761182 137.84597303340203 L 278.97077893111646 136.88627231486356 L 283.8820656114351 135.9485819908628 L 288.79890108053814 135.04043609412022 L 293.72239163603285 134.16909187398983 L 298.65343259272373 133.34154424186394 L 303.59268976695415 132.56453808563776 L 308.5405840880474 131.84457851226358 L 313.49727902376395 131.18793910266191 L 318.4626705474298 130.60066828207988 L 323.4363794100766 130.08859392260752 L 328.4177455119734 129.65732630398406 L 333.4058241947487 129.3122595648696 L 338.3993842983079 129.05857178009944 L 343.3969078463622 128.9012238006306 L 348.3965912409672 128.84495699237792 L 353.39634786039795 128.89429000828667 L 358.3938119662779 129.05351472509133 L 363.3863438354474 129.3266914725034 L 368.3710360398695 129.7176436782441 L 373.3447208041812 130.22995204754366 L 378.3039783755267 130.86694839058836 L 383.24514634425617 131.63170920600845 L 388.16432985711134 132.52704912294152 L 393.0574126668115 133.5555142985391 L 397.9200689636268 134.7193758620605 L 402.74777593570957 136.0206234909551 L 407.53582700574447 137.46095919860727 L 412.27934569197254 139.04179140773172 L 416.9733000419131 140.76422937778287 L 421.6125175872239 142.62907804919834 L 426.19170076815556 144.63683336184795 L 430.7054427760217 146.78767809971825 L 435.1482437620612 149.08147830863933 L 439.51452736104295 151.5177803287639 L 443.7986574779895 154.09580847854653 L 447.9949552864893 156.81446342215003 L 452.0977163872485 159.672321247532 L 456.10122807581416 162.6676332779419 L 459.9997866687899 165.79832663519278 L 463.7877148383699 169.06200556886603 L 467.45937890563954 172.4559535615614 L 471.0092060438351 175.97713621642757 L 474.4317013436155 179.62220492949473 L 477.7214646933808 183.38750134578663 L 480.8732074287643 187.2690625948148 L 483.88176870662824 191.26262729785117 L 486.74213156020124 195.36364233633853 L 489.4494385933999 199.56727036793134 L 491.99900727387393 203.8683980739575 L 494.38634478589626 208.26164511955955 L 496.6071624058788 212.7413738054037 L 498.65738936502316 217.30169938763987 L 500.53318616540946 221.9365010407487 L 502.2309573176733 226.63943343602517 L 503.7473634703185 231.4039389067136 L 505.07933290265044 236.223260169229 L 506.22407235528743 241.09045356846602 L 507.1790771742071 245.99840281390857 L 507.94214074630656 250.939833172108 L 508.51136320648993 255.9073260800871 L 508.88515939834326 260.89333414335334 L 509.0622660725034 265.8901964814579 L 509.0417483088755 270.89015438341823 L 508.82300515089133 275.8853672348226 L 508.4057744420282 280.8679286780545 L 507.79013685681974 285.829882966808 L 506.9765191205783 290.76324147590435 L 505.96569641401493 295.65999932737054 L 504.75879396088004 300.5121520937843 L 503.35728779865235 305.3117125400375 L 501.7630047341749 310.0507273649057 L 499.98034148701765 314.72214168470595 L 498.01384826607733 319.31919556866205 L 495.8682157346211 323.8354175561154 L 493.548262940535 328.26461827782714 L 491.05892613018375 332.60088421116546 L 488.40524836971974 336.8385715927002 L 485.59236990290725 340.9723005062772 L 482.62551917954266 344.99694915992023 L 479.5100044933337 348.9076483608326 L 476.25120617264537 352.69977619426317 L 472.85456927182645 356.3689529090039 L 469.3255967148984 359.91103600972986 L 465.669842847217 363.32211555423373 L 461.8929073543217 366.59850965179095 L 458.0004295105615 369.7367601573809 L 453.9980827232524 372.733628555245 L 449.89156934107604 375.58609202424964 L 445.6866156981889 378.2913396767152 L 441.38896736808533 380.84676896173914 L 437.0043846036508 383.2499822235667 L 432.53863794207166 385.49878340521764 L 427.99750395533533 387.5911748873519 L 423.386761128977 389.5253544522283 L 418.71612723662713 391.3100614432026 L 413.9886391200653 392.938206432989 L 409.20798210063043 394.40289700185616 L 404.37848103157125 395.69747006814333 L 399.50508877422874 396.8155254809355 L 394.59337204246657 397.75096053850365 L 389.64949457437115 398.4980051024076 L 384.6801976064365 399.0512569839906 L 379.6927776428434 399.40571728748506 L 374.69506153069085 399.5568254021945 L 369.69537887082475 399.5004933452993 L 364.7025318129583 399.2331391668132 L 359.7257623028294 398.7517191391327 L 354.7747168679689 398.0537584654938 L 349.8594090470499 397.1373802544846 L 344.9901795855771 396.0013325215415 L 340.1776545376798 394.6450129930522 L 335.43270142986387 393.0684915042587 L 330.7663836576175 391.2725297985374 L 326.18991329965434 389.25859855276843 L 321.71460254721427 387.02889147131265 L 317.35181395715654 384.58633630950726 L 313.1129097475056 381.9346027064838 L 309.00920036259964 379.0781067264001 L 305.05189254200957 376.02201202677173 L 301.25203713292194 372.772227592378 L 297.62047688969665 369.33540199310397 L 294.16779450682594 365.7189141439589 L 290.90426113254193 361.930860565281 L 287.83978560986526 357.98003916069746 L 284.98386468999047 353.87592954965857 L 282.3455344595975 349.628670010215 L 279.933323219012 345.2490311060594 L 277.75520604215905 340.7483860896314 L 275.81856124202454 336.1386781901966 L 274.1301289569196 331.43238491218943 L 272.6959720633031 326.64247948467914 L 271.5214396103301 321.7823896175148 L 270.6111329597321 316.8659537334747 L 269.96887480218163 311.90737485852884 L 269.5976812080271 306.9211723640789 L 269.49973685628817 301.92213176572784 L 269.67637357116035 296.92525279271285 L 270.12805228007824 291.9456959505922 L 270.854348491712 286.9987278070758 L 271.8539413762073 282.09966523702565 L 273.12460651361295 277.2638188676109 L 274.663212359853 272.50643596837773 L 276.4657204628753 267.84264303359396 L 278.5271894448306 263.28738830565214 L 280.84178274937835 258.85538448857994 L 283.40278013656257 254.56105189982583 L 286.20259289122066 250.41846230648525 L 289.2327826946589 246.44128368903054 L 292.4840840934147 242.64272617143934 L 295.94643048339873 239.03548935141146 L 299.6089835126286 235.63171125816288 L 303.46016579119436 232.44291915812548 L 307.4876967830873 229.47998242080865 L 311.6786317411346 226.75306764813666 L 316.0194035335592 224.2715962608161 L 320.4958671986749 222.04420472475888 L 325.0933470529725 220.07870758934305 L 329.7966861673935 218.38206349739056 L 334.5902980169539 216.9603443142345 L 339.45822010010863 215.8187075101963 L 344.3841693163587 214.96137191725418 L 349.3515988836242 214.39159696671982 L 354.34375657085405 214.11166550040755 L 359.3437440162347 214.12287023314462 L 364.3345768972052 214.42550392958947 L 369.29924571529307 215.01885334326215 L 374.2207769565591 215.9011969505049 L 379.0822943871773 217.0698064968443 L 383.86708024337946 218.52095235797873 L 388.55863607565243 220.24991270242438 L 393.14074300867907 222.25098642778013 L 397.5975211810529 224.51750982767078 L 401.9134881322473 227.04187693175797 L 406.07361590866907 229.81556344682127 L 410.06338666584764 232.82915421286145 L 413.8688465498788 236.07237407451584 L 417.4766576481281 239.53412205485023 L 420.87414780687277 243.20250870584997 L 424.0493581219872 247.06489649772055 L 426.99108791791974 251.1079430974672 L 429.68893704003074 255.3176473761933 L 432.1333452958208 259.67939797417864 L 434.31562889163166 264.1780242431028 L 436.22801372300853 268.79784937580206 L 437.8636653890215 273.5227455257157 L 439.21671581341127 278.33619071072184 L 440.28228636840055 283.22132728940005 L 441.0565074103461 288.1610217919183 L 441.5365341500494 293.13792588273316 L 441.7205587944427 298.1345382281384 L 441.60781891046855 303.1332670384022 L 441.19860197622705 308.1164930518126 L 440.4942460988145 313.06663272640304 L 439.4971368926778 317.96620140446413 L 438.2107005266976 322.797876215157 L 436.63939296254375 327.54455848162826 L 434.78868542106534 332.18943540097877 L 432.66504612753164 336.71604076824457 L 430.2759184003802 341.10831451920274 L 427.62969516170426 345.35066087129275 L 424.73568996097447 349.42800484723455 L 421.60410461639225 353.32584697200025 L 418.24599359076973 357.03031594063697 L 414.6732252308757 360.52821906201416 L 410.89844001074175 363.807090291852 L 406.9350059304409 366.85523567734623 L 402.79697123229926 369.6617760453038 L 398.4990146063376 372.2166867759072 L 394.05639306593724 374.510834514997 L 389.48488768324125 376.5360106890574 L 384.8007473816201 378.2849616988711 L 380.0206309896124 379.7514156800308 L 375.16154776708123 380.93010573111127 L 370.2407966198762 381.8167895232722 L 365.2759042240476 382.40826521832946 L 360.2845622846016 382.7023836358537 L 355.28456415690545 382.6980566235792 L 350.2937410611363 382.39526159928533 L 345.3298981216087 381.79504224629676 L 340.4107504634163 380.89950535878165 L 335.5538595985724 379.7118138470684 L 330.7765703327422 378.2361759271897 L 326.0959484217277 376.4778305327547 L 321.5287192041014 374.44302900099285 L 317.0912074328031 372.13901309835904 L 312.7992785241233 369.5739894643864 L 308.66828143731567 366.75710056547916 L 304.7129933921342 363.6983922630017 L 300.94756662488965 360.4087781122968 L 297.38547737620127 356.9000005211151 L 294.0394772955022 353.18458890731483 L 290.921547438575 349.27581500655236 L 288.04285502497794 345.1876454909991 L 285.41371311220746 340.9346920698442 L 283.04354333286443 336.53215925144417 L 280.94084182999086 331.9957899554308 L 279.11314851415665 327.34180917084916 L 277.5640458623773 322.58783388965026 L 276.2960738261499 317.7512806835596 L 275.3107760826162 312.8493230790319 L 274.60874548198706 307.89885309772905 L 274.189668580552 302.91644659577804 L 274.0523691791913 297.9183320638384 L 274.194850813071 292.9203625777364 L 274.6143381597238 287.93799061590954 L 275.307317350535 282.98624548503875 L 276.26957518523676 278.079713118942 L 277.4962372607904 273.23251803803197 L 278.98180503539 268.45830727738564 L 280.7201918555763 263.77023611075407 L 282.7047579799161 259.1809554156862 L 284.9283446366327 254.70260054139675 L 287.38330715520044 250.34678155612804 L 290.0615472134456 246.12457476460173 L 292.9545442422969 242.04651539879333 L 296.0533860301646 238.12259139675595 L 299.34879856812375 234.3622381946403 L 302.83025358606454 230.77344021229928 L 306.48709215525696 227.36352354486195 L 310.30855460511333 224.13917481304995 L 314.28380807287726 221.1064598796889 L 318.40197188695123 218.27084234545558 L 322.6521409709098 215.63720175536685 L 327.01394055208857 213.19288090620884 L 331.46960983206844 210.9241783546513 L 336.00376010214956 208.81669612973846 L 340.60312809420674 206.85562140560376 L 345.2563322385074 205.02595171096945 L 349.95363725115897 203.31267251068746 L 354.68673070846074 201.70089513013914 L 359.44851390463793 200.17596208485332 L 364.23290826109064 198.72352597887706 L 369.03467779565807 197.32960728078157 L 373.8492676145806 195.98063549622574 L 378.6726580115488 194.66347754121998 L 383.5012335090892 193.36545648416725 L 388.33166602624095 192.07436326629218 L 393.1608112778273 190.77846352515434 L 397.98561748461134 189.46650122882943 L 402.8030454845624 188.12770047244797 L 407.60999937122375 186.75176648729052 L 412.4032668365255 185.32888665888635 L 417.1794684554037 183.84973213828167 L 421.93501521318404 182.30546045410006 L 426.66607364022144 180.68771938706905 L 431.3685379792297 178.98865224879708 L 436.038008867425 177.20090460880516 L 440.66977806702835 175.31763243474063 L 445.2588188233001 173.3325115474199 L 449.807480121872 171.25653457479368 L 454.3185379282735 169.10006582535536 L 458.7951028445542 166.87287778876654 L 463.2405392838536 164.58418932937562 L 467.6583949480901 162.24270447356872 L 472.05233947562135 159.85665093498702 L 476.426111214853 157.4338177230018 L 480.78347117163946 154.9815913454025 L 485.12816326952276 152.5069902513693 L 489.46388015003384 150.01669727020203 L 493.7942338238545 147.51708988910636 L 498.12273056163025 145.01426828318546 L 502.4527494851091 142.51408106573254 L 506.78752438485634 140.0221487695974 L 511.13012835010136 137.54388510302792 L 515.4834608495077 135.08451604784068 L 519.8502369491337 132.64909688561525 L 524.2256540124862 130.22923624464374 L 528.6051860957481 127.81683106895711 L 532.9845278997791 125.40408048850625 L 537.3595448313318 122.98349649933617 L 541.7262288029608 120.54791215632545 L 546.0806593968058 118.09048785364855 L 550.4189700220234 115.60471615875701 L 554.7373187064298 113.08442557235941 L 559.0318631778223 110.52378350771377 L 563.2987399078684 107.91729871577832 L 567.5340468102034 105.25982332679865 L 571.7338293035585 102.54655463230698 L 575.8940694697363 99.77303669298863 L 580.0106780546062 96.9351618263012 L 584.0794890777105 94.0291720021165 L 588.0962568323946 91.05166015412499 L 592.0566550734843 87.99957139853919 L 595.9562782034237 84.87020413910129 L 599.7906442804606 81.66121102797304 L 603.5551996839811 78.37059974527423 L 607.2453252825146 74.99673355541914 L 611.0323939573894 71.73205733077121 L 614.9106915933115 68.57629950622233 L 618.8747836394169 65.52900984982205 L 622.919504733591 62.58958281886117 L 627.0514997678563 59.774157977597035 L 631.2757065838678 57.099073534899446 L 635.5952581730413 54.58084517582084 L 640.0113931253604 52.236116602423586 L 644.5233755752625 50.08158315599599 L 649.1284262476445 48.133890083462575 L 653.821666465164 46.40950721975226 L 658.5960771454617 44.92458208498651 L 663.4424748987706 43.694773637819665 L 668.349507337259 42.7350691793413 L 673.3036696318078 42.05958715939527 L 678.2893442042193 41.681368891712694 L 683.2888652278152 41.612162427980465 L 688.2826093321518 41.86220206564728 L 693.2491135738513 42.43998716166527 L 698.165221351677 43.35206408649208 L 703.0062565169953 44.60281527204058 L 707.7462254684294 46.19425937707242 L 712.358046530207 48.12586660788934 L 716.8138054064605 50.39439318624118 L 721.0850349880387 52.993738846489215 L 725.1430172741128 55.91483106788667 L 728.784792637555 59.34083051362883 L 731.9428486547138 63.217256985585664 L 734.5565703706457 67.47970449748138 L 736.5901125417136 72.04749458005836 L 738.0192956014649 76.83888642186379 L 739.0881355723578 81.72330871284373 L 739.8009749040779 86.67223385747391 L 740.1640092504384 91.65903704823276 L 740.1849962518899 96.65899300261577 L 739.8729923364821 101.64924886346802 L 739.2381165157724 106.60877834642083 L 738.2913398187873 111.51832149075167 L 737.0442987879536 116.36031371166834 L 735.5091313320669 121.11880726345406 L 733.6983331728293 125.77938770225153 L 731.6246331166316 130.32908748102 L 729.300885418397 134.75629841285388 L 726.7399775683602 139.05068439732477 L 723.9547519167143 143.20309551249787 L 721.1715155210079 147.35684022848793 L 718.395136267376 151.51517141298993 L 715.6303029914941 155.68118833045153 L 712.8815425354381 159.8578276439694 L 710.1542196015395 164.04849699554438 L 707.4535378482427 168.25638459711 L 704.7845564751723 172.48445016308736 L 702.1522045590074 176.7354175105817 L 699.5612932823001 181.0117686135936 L 697.0165261981888 185.315738930362 L 694.5225076726872 189.64931385119297 L 692.083749643414 194.01422613835928 L 689.7046768296802 198.41195425034542 L 687.3896305241241 202.84372146028895 L 685.1428710908182 207.31049569331788 L 682.955860710481 211.80682592988833 L 680.8202363583009 216.32778917087748 L 678.7278365277137 220.86891931093717 L 676.6707217784244 225.42614202968335 L 674.6411902297281 229.99571549914918 L 672.6317889534279 234.57417665010405 L 670.6353220735085 239.15829270419616 L 668.6448562508256 243.74501765875044 L 666.6537241188681 248.33145340266822 L 664.6555261395569 252.91481514220794 L 662.6441312644661 257.49240082206785 L 660.6136767153002 262.0615642382494 L 658.5585671364938 266.619691553178 L 656.473473321123 271.16418093935795 L 654.3533306677427 275.6924250945816 L 652.1933374892055 280.2017963887503 L 649.9889532640412 284.689634419233 L 647.7358968957154 289.1532357680484 L 645.4301450243127 293.58984576978645 L 643.06793041824 297.9966521139383 L 640.6457404598598 302.3707801190979 L 638.1603157280379 306.7092895293041 L 635.6086486720129 311.00917269460024 L 632.9879823643779 315.2673540087327 L 630.2958093160092 319.4806904868267 L 627.5298703322004 323.64597337492046 L 624.6881533868302 327.7599306914705 L 621.7688924899152 331.8192306084196 L 618.7705665231982 335.82048558621227 L 615.6918980183583 339.7602571833111 L 612.5318518528769 343.6350614663719 L 609.2896338394487 347.44137495233196 L 605.9646891860021 351.1756410183102 L 602.556700804815 354.8342767194553 L 599.0655874508142 358.41367995875606 L 595.4915016708824 361.910236956388 L 591.8348275478174 365.3203299694461 L 588.0961782244586 368.6403452159395 L 584.2763931953854 371.8666809597312 L 580.3765353554816 374.9957557157159 L 576.3978877965155 378.0240165369686 L 572.341950344707 380.94794734788337 L 568.2104358340134 383.7640772894749 L 564.0052661115676 386.46898904504565 L 559.7285677733215 389.059327116349 L 555.3826676294988 391.5318060222088 L 550.9700879009174 393.88321839329836 L 546.4935411486232 396.1104429384496 L 541.9559249405602 398.21045225945824 L 537.3603162602058 400.18032049288183 L 532.7099656632104 402.017230758797 L 528.0082911891051 403.71848239789887 L 523.258872036084 405.2814979796882 L 518.4686251296895 406.71451388182544 L 513.6436141435712 408.0257228597684 L 508.7891326215963 409.2232240717947 L 503.90978209422155 410.3149834001303 L 499.0095450009912 411.3088025135152 L 494.0918523736391 412.2122953042372 L 489.15964634189146 413.03287050517395 L 484.21543760330655 413.77771944912195 L 479.2613580549282 414.45380807374124 L 474.29920882283426 415.0678724013399 L 469.33050394968967 415.62641683429865 L 464.3565544890432 416.13614888443385 L 459.37844702536273 416.60353104075614 L 454.39707971185913 417.0347846644603 L 449.41319463606715 417.43589506235304 L 444.42740680774796 417.81261741500055 L 439.4402300499674 418.170483293024 L 434.45210005864595 418.51480754381 L 429.4632865398714 418.8490823931361 L 424.47402890333063 419.17666175179556 L 419.48409891121713 419.49383469169794 L 414.49330055931455 419.7970372818026 L 409.50147592739495 420.0828463862076 L 404.5085101324492 420.3479738470674 L 399.51433547707086 420.5892610443581 L 394.51893487640115 420.80367382109665 L 389.5223446389332 420.9882977600636 L 384.524656669111 421.14033379623424 L 379.526020152991 421.25709414786 L 374.5266427821995 421.33599854835614 L 369.5267915659701 421.374570760756 L 364.5267932761273 421.37043535640674 L 359.5270345654475 421.3213147397442 L 354.5279070596456 421.2279114168099 L 349.52978453813745 421.09090316890786 L 344.5330241221447 420.91094388137896 L 339.53796738440803 420.6886643573744 L 334.5449413856571 420.4246731154789 L 329.5542596426516 420.11955717025273 L 324.5662230322946 419.77388279495335 L 319.58112063602624 419.388196265866 L 314.5992305284277 418.96302458782094 L 309.619828832781 418.50963871090056 L 304.6420429289638 418.03884417423023 L 299.6649283580892 417.56100471542896 L 294.68753619015393 417.0860655545075 L 289.70897182969526 416.6235756532443 L 284.7284461450827 416.18270843410096 L 279.7453197181277 415.77228059271766 L 274.75914092487886 415.4007687601257 L 269.7696784775827 415.0763238695483 L 264.7769489829148 414.8067831619118 L 259.7812400033221 414.599679827277 L 254.78312904686658 414.46225032913685 L 249.7834988562696 414.40143949727803 L 244.78354931968693 414.423903504639 L 239.78470835505715 414.5315557704727 L 234.78849869951372 414.72620694014466 L 229.79653432178097 415.0095647553662 L 224.81051673294155 415.38323386538747 L 219.83223120894948 415.8487155960828 L 214.86354293722874 416.4074076923799 L 209.9063930987735 417.0606040480824 L 204.96279489633469 417.80949443581875 L 200.03482953852935 418.6551642486124 L 195.12464218903054 419.59859426341035 L 190.23443788938073 420.64066043582284 L 185.3664774634088 421.7821337343153 L 180.52307341071628 423.0236800211535 L 175.70658579622435 424.36585998652544 L 170.9194181423362 425.80912914145364 L 166.16401332986283 427.35383787435603 L 161.44284951348294 429.0002315754207 L 156.7584360571555 430.74845083231565 L 152.11330949457192 432.5985317001645 L 147.51002951942525 434.550406048173 L 142.9511750099811 436.60390198479445 L 138.43934009215866 438.7587443628625 L 133.9771302450686 441.01455536570217 L 129.56715845270818 443.370855174849 L 125.21204140527755 445.8270627196585 L 120.9143957533586 448.38249650877185 L 116.67683441798569 451.03637554311996 L 112.50196295943482 453.7878203098884 L 108.3923760073661 456.6358538566337 L 104.3506537547705 459.5794029445331 L 100.37935851799793 462.6172992795629 L 96.48103136497677 465.7482808202332 L 92.6581888135772 468.97099316036054 L 88.91331960191911 472.28399098522783 L 85.2488815322824 475.6857395993669 L 81.66729839013993 479.174616524098 L 78.17095693970407 482.7489131628738 L 74.76220399725315 486.40683653240086 L 71.6436114085443 490.31508169687686 L 68.83382149598609 494.45091059170386 L 66.34969861184332 498.7901655388668 L 64.20621857593561 503.30740953666736 L 62.416369379101326 507.97607528317263 L 60.99106384329243 512.7686220100802 L 59.93906485214974 517.6566991496755 L 59.25201177474107 522.6092700041736 L 58.91955325162857 527.5982048935473 L 58.92978938013611 532.5981944157036 L 59.2696572894345 537.5866300226078 L 59.92526396385899 542.5434616607058 L 60.882170638119796 547.4510404544446 L 62.12563329270176 552.2939528660685 L 63.64080378998599 557.0588514341557 L 65.4103600225954 561.7352464922783 L 67.41743624748271 566.314727361055 L 69.645742589017 570.790735722115 L 72.07965237677618 575.1583532815001 L 74.70426259452071 579.4141048255768 L 77.50543208945481 583.5557771279989 L 80.25500953030216 587.7318786469737 L 82.94412029006236 591.9471702527516 L 85.56400857173954 596.2058302992369 L 88.10601858964958 600.5114295686586 L 90.56158250795264 604.8669095471602 L 92.92221471299767 609.2745637523474 L 95.17951198784117 613.7360219235044 L 97.32515915343023 618.2522369583317 L 99.35093973997186 622.8234745385927 L 101.2487512529142 627.4493054327503 L 103.01062460004201 632.128600498108 L 104.62874724898793 636.8595284295997 L 106.09548968772496 641.6395563184731 L 107.4034347642153 646.4654530928441 L 108.54540948533 651.3332959144988 L 109.51451885947418 656.2384796033066 L 110.30418137215204 661.1757291530125 L 110.90816568910638 666.139115390741 L 111.32062818780346 671.1220738179376 L 111.53615092503864 676.1174266532971 L 111.54977965643621 681.1174080790306 L 111.35706153271968 686.1136926710841 L 110.95408210792702 691.0974269721072 L 110.33750130631239 696.0592641434663 L 109.50458800755814 700.9894016097809 L 108.4532529241464 705.8776215866628 L 107.18207946031062 710.7133343598576 L 105.69035225888612 715.4856241620942 L 103.97808316056597 720.1832974728873 L 102.04603431948634 724.7949335465256 L 99.89573823963904 729.3089369546982 L 97.76327917477424 733.8313940674497 L 95.65660368866013 738.3659192240901 L 93.58340285476923 742.9158465094821 L 91.55113696011608 747.4842045660961 L 89.5670564166307 752.073695212885 L 87.6382190357812 756.6866754164234 L 85.77150384738337 761.3251422326683 L 83.97362166090059 765.9907204008623 L 82.25112257877379 770.684652325387 L 80.61040067781808 775.4077902276426 L 79.05769607758481 780.1605902891237 L 77.59909461468793 784.9431086395782 L 76.24052534011705 789.7549990712268 L 74.98775605303678 794.5955123821628 L 74.10272193049843 799.5165605024257 L 73.59534332486686 804.4907505822827 L 73.47330262784355 809.4892609672144 L 73.74186382410409 814.4820432460508 L 74.40371045105599 819.4380455707468 L 75.45880453637079 824.325455566965 L 76.65178162702291 829.1810508611776 L 77.9854051433526 833.9999146605282 L 79.46208704516282 838.7768813299605 L 81.08387878529038 843.5065527299262 L 82.85246259020789 848.1833156408491 L 84.7691431824906 852.8013601953295 L 86.83484005212857 857.3546992385776 L 89.05008037573057 861.837188536801 L 91.41499267468903 866.2425477523741 L 93.92930129539086 870.5643821036496 L 96.59232178659693 874.7962046263242 L 99.40295724120148 878.9314589523989 L 102.35969566174782 882.9635425220271 L 105.46060840134149 886.885830142973 L 108.70334972398878 890.6916978120329 L 112.08515752091766 894.3745467126303 L 115.60285521212857 897.9278273029087 L 119.25285485529186 901.3450634090195 L 123.03116147717334 904.6198762389453 L 126.93337863604474 907.7460082331211 L 130.95471521703485 910.7173466693129 L 135.08999345611335 913.527946940679 L 139.33365818238323 916.1720554276767 L 143.67978726259958 918.6441318864655 L 148.1221032263412 920.938871278703 L 152.65398604504426 923.0512249700965 L 157.26848703317054 924.9764212277756 L 161.95915304645095 926.7077941950638 L 166.71892720356612 928.238986532185 L 171.54016829785942 929.563990045651 L 176.41467292955028 930.6771857138174 L 181.33370034257834 931.5733828516607 L 186.28799992994266 932.2478571644715 L 191.2678413516033 932.6963874478562 L 196.26304718981572 932.9152907002041 L 201.2630280482912 932.9014554235946 L 206.25681998392614 932.6523728999452 L 211.2331241431198 932.1661662410112 L 216.18034845898796 931.4416170235781 L 221.08665125115795 930.478189334779 L 225.9399865563647 929.2760510668439 L 230.72815100581337 927.8360923156862 L 235.4388320542807 926.1599407534429 L 240.05965735622848 924.249973861353 L 244.57824507583052 922.1093279260659 L 248.98225491078497 919.7419037195443 L 253.2594396041083 917.1523688000655 L 257.39769671378974 914.346156389329 L 261.3851204072168 911.3294607982731 L 265.21005304565386 908.1092293917716 L 268.86113632374503 904.6931510998638 L 272.32736172999273 901.0896415004479 L 275.5981200964056 897.307824515381 L 278.6632500089698 893.3575107785869 L 281.5130848552397 889.2491727509915 L 284.1384982911137 884.9939166728298 L 286.53094791571067 880.6034514590095 L 288.68251695113514 876.0900546577298 L 290.58595373275386 871.4665356063598 L 292.234708825344 866.746195931648 L 293.6229695910476 861.9427875535889 L 294.74569204641176 857.0704683636937 L 295.59862985784065 852.1437557589404 L 296.17836033746715 847.1774782222947 L 296.4823073146946 842.1867251493572 L 296.5087607723935 837.1867951283893 L 296.25689315089534 832.1931428876701 L 295.72677223742977 827.2213251298368 L 294.9193705734362 822.2869454775421 L 293.83657132717343 817.405598758419 L 292.4811705941831 812.5928148599868 L 290.8568761033665 807.8640023867433 L 288.9683023216412 803.2343923523042 L 286.820961965291 798.7189821390467 L 284.42125394114515 794.3324799563446 L 281.7764477555575 790.089250026129 L 278.894664443747 786.0032587212227 L 275.7848540863461 782.088021877684 L 272.45676999393373 778.3565534972965 L 268.92093965384316 774.8213160503781 L 265.1886325465939 771.4941725822997 L 261.27182495184246 768.3863408195273 L 257.1831618757408 765.5083494626739 L 252.93591624299256 762.8699968450162 L 248.54394550766142 760.4803121252268 L 244.02164584688362 758.3475191727513 L 239.38390411103123 756.4790032933612 L 234.64604771253545 754.8812809309863 L 229.82379264348327 753.5599724700279 L 224.93318981922374 752.5197782500167 L 219.99056995153995 751.7644578917728 L 215.01248716044358 751.2968130211816 L 210.0156615383161 751.1186734633902 L 205.0169208839436 751.230886966694 L 200.03314182696343 751.6333125016763 L 195.08119056535367 752.3248171673449 L 190.17786343985358 753.3032767221223 L 185.33982756960071 754.5655797436456 L 180.5835617728174 756.1076354074753 L 175.92529799508023 757.9243848610383 L 171.3809634655728 760.0098161555015 L 166.9661237987669 762.3569826848294 L 162.69592725521613 764.9580250680764 L 158.58505037059777 767.8041963980406 L 154.64764515682407 770.8858907668169 L 150.89728807298704 774.1926749665665 L 147.34693095712714 777.7133232520194 L 144.00885410235347 781.4358550398789 L 140.8946216527235 785.3475754094442 L 138.0150394855444 789.4351182584506 L 135.38011573742182 793.6844919583716 L 132.99902412148992 798.0811273442706 L 130.88007017285014 802.6099278657712 L 129.03066054835955 807.2553217178403 L 127.45727549559003 812.0013157628978 L 126.16544459406362 816.8315510492852 L 125.15972585980502 821.729359725373 L 124.4436882918805 826.6778231435787 L 124.0198979269607 831.6598309443154 L 123.88990745509831 836.6581409064152 L 124.05424943689673 841.6554393478751 L 124.5124331491093 846.634401858867 L 125.26294507249894 851.5777541478355 L 126.30325302254977 856.4683327811939 L 127.62981391040574 861.2891455975985 L 129.23808510826058 866.0234315790481 L 131.12253938038648 870.6547199631013 L 133.27668332811217 875.1668883833264 L 135.69307928438766 879.5442198286817 L 138.36337058114992 883.7714582168537 L 141.27831010057292 887.833862381644 L 144.4277920094892 891.7172582802629 L 147.80088656484995 895.4080892328527 L 151.3858778670867 898.8934640136886 L 155.17030442768578 902.161202621263 L 159.1410024072268 905.1998795628396 L 163.2841513705997 907.9988644980084 L 167.5853223971364 910.5483600952749 L 172.02952837500305 912.8394369657212 L 176.60127630142472 914.8640655482665 L 181.2846214031849 916.615144831971 L 186.0632228853794 918.0865278121528 L 190.92040111063088 919.2730435887621 L 195.83919600590653 920.1705160274532 L 200.80242648974178 920.7757789160632 L 205.79275070907522 921.0866875617039 L 210.7927268720526 921.1021267863564 L 215.78487446107204 920.8220152916839 L 220.75173560902377 920.247306376695 L 225.67593642113135 919.3799850048615 L 230.54024802502514 918.223061230266 L 235.32764713267534 916.7805600052856 L 240.02137589957397 915.0575074051633 L 244.6050008690767 913.0599133175291 L 249.06247079308716 910.7947506574665 L 253.3781731242758 908.2699311810339 L 257.5369889797578 905.494277982201 L 261.52434638159247 902.4774947698978 L 265.326271585592 899.2301320332771 L 268.9294383167135 895.763550214289 L 272.32121473673936 892.0898800172577 L 275.4897079779889 888.2219799952618 L 278.4238060854325 884.1733915627466 L 281.11321721875635 879.9582915928819 L 283.548505975628 875.5914427667083 L 285.7211267075982 871.0881418490465 L 287.6234537107126 866.4641660734587 L 289.2488081839575 861.7357178252167 L 290.59148186008633 856.9193678172303 L 291.6467572251329 852.0319969591998 L 292.41092425496464 847.0907371248541 L 292.88129360952985 842.1129110260148 L 293.05620623795585 837.1159714053653 L 292.9350393603232 832.117439762196 L 292.5182088047243 827.1348448270322 L 291.8071676910723 822.1856610019256 L 290.80440146600864 817.2872469832996 L 289.51341930612466 812.456784783586 L 287.93874191951477 807.711219366473 L 286.08588578837214 803.0671991084113 L 283.9613439078793 798.5410172961072 L 281.5725630889917 794.148554866067 L 278.92791790481385 789.9052245878769 L 276.03668137209144 785.8259168878068 L 272.9089924708393 781.9249475035404 L 269.5558206162565 778.2160071543794 L 265.9889272078115 774.7121134041649 L 262.22082439066645 771.4255648864304 L 258.26473117442106 768.3678980529809 L 254.13452706345723 765.5498465982026 L 249.84470336191868 762.9813037019835 L 245.41031232454213 760.6712872241993 L 240.84691433213317 758.6279079733314 L 236.17052327742698 756.858341160955 L 231.39755035336762 755.3688011426284 L 226.54474644145608 754.1645195341431 L 221.62914330273887 753.2497267802182 L 216.6679937782165 752.6276372405767 L 211.67871120893233 752.3004378459605 L 206.67880828874243 752.2692803640876 L 201.68583556475878 752.5342773028536 L 196.7173198016934 753.0945014652841 L 191.79070242680584 753.9479891579055 L 186.9232782718691 755.0917470413485 L 182.13213482752116 756.5217625991946 L 177.4340922235643 758.2330181883474 L 172.8456441462179 760.2195086216232 L 168.38289990003352 762.4742622208327 L 164.0615278181536 764.9893652664251 L 159.89670021985103 767.7559897578257 L 155.90304010884586 770.7644243869586 L 152.09456979977222 774.0041086161551 L 148.48466165338863 777.4636697407306 L 145.0859910937103 781.1309628060276 L 141.9104920722184 784.9931132386887 L 138.96931513569854 789.0365620423813 L 136.27278824510753 793.2471133991895 L 133.83038048319722 797.6099845094287 L 131.65066877846928 802.1098574947775 L 129.74130776243356 806.7309331823684 L 128.10900286612915 811.4569865808713 L 126.75948675048295 816.2714238536594 L 125.69749915336386 821.1573405888857 L 124.92677022418303 826.0975811617449 L 124.44016424523271 831.0738462894536 L 124.22979331824396 836.0694187364388 L 124.28719062221745 841.0690892805344 L 124.60346126169254 846.0590765433043 L 125.16941270658093 851.0269431842306 L 125.97566678557142 855.9615104763152 L 127.01275511907487 860.8527728684294 L 128.27119977660323 865.6918137903414 L 129.74158082665838 870.470723662649 L 131.41459232180284 875.1825208290298 L 133.2810881330117 879.8210759259043 L 135.33211891966815 884.3810400389416 L 137.55896139754736 888.8577768615293 L 139.95314094882508 893.2472989626518 L 142.5064485068488 897.546208186413 L 145.21095254488375 901.7516401390491 L 148.05900690265423 905.8612126685447 L 151.04325509730288 909.8729782041582 L 154.15663168622626 913.7853797959614 L 157.3923611778077 917.5972106759074 L 160.74395492194034 921.3075771502992 L 164.2052063549438 924.9158646274178 L 167.77018492251383 928.421706582322 L 171.43322895918945 931.8249562624624 L 175.18893776295772 935.1256609419661 L 179.03216306854492 938.3240385385757 L 182.95800009218902 941.4204564147327 L 186.96177829380468 944.415412192748 L 191.03905197902313 947.3095164230454 L 195.18559084323545 950.103476953829 L 199.39737054213475 952.798084859989 L 203.67056335802874 955.3942017984554 L 208.00152901808772 957.8927486664148 L 212.38680570944925 960.2946954477156 L 216.82310132648763 962.6010521413443 L 221.30728497736888 964.8128606740092 L 225.836378770066 966.9311877065876 L 230.40754989214506 968.9571182514659 L 235.01810299370393 970.8917500246222 L 239.6654728787299 972.7361884626715 L 244.34721750672463 974.4915423410228 L 249.06101130363203 976.1589199348022 L 253.8046387788083 977.7394256692911 L 258.57598844292096 979.2341572113321 L 263.37304702018884 980.644202957491 L 268.1938939472244 981.9706398787547 L 273.0366961498598 983.2145316852034 L 277.89970308868993 984.3769272774566 L 282.7812420636138 985.458859454767 L 287.6797137673603 986.4613438524485 L 292.59358807783195 987.3853780838958 L 297.5214000790522 988.2319410647951 L 302.4617463005502 989.001992499266 L 307.4132811651369 989.696472509621 L 312.37471363520814 990.316301393203 L 317.3448040479371 990.8623794913719 L 322.3223611299826 991.3355871571789 L 327.3062391826333 991.7367848095978 L 332.29533542861793 992.0668130633918 L 337.2885875121387 992.32649292479 L 342.2849711440194 992.5166260441431 L 347.28349788419746 992.6379950176282 L 352.2832130541291 992.691363730892 L 357.28319377201274 992.6774777382554 L 362.2825471040688 992.5970646717781 L 367.280408325438 992.4508346750808 L 372.2759392845795 992.239480857376 L 377.2683268653566 991.9636797636458 L 382.2567815412962 991.6240918573593 L 387.240536016797 991.2213620125184 L 392.2188439503353 990.7561200121902 L 397.19097875498454 990.2289810510084 L 402.1562324718168 989.6405462394248 L 407.1129373021645 988.983981524558 L 412.05918249247674 988.2527780526618 L 416.99280304394387 987.4407508030322 L 421.91137156947707 986.5420385801076 L 426.8121930465294 985.5511052573949 L 431.69230224120867 984.4627421525411 L 436.54846360237474 983.2720714027879 L 441.3771734442732 981.9745502034415 L 446.17466425307487 980.565975768254 L 450.9398601593245 979.05174065604 L 455.6719470089019 977.4370103231186 L 460.3703435161254 975.7267266446282 L 465.03467497596074 973.9256125358637 L 469.66474935392847 972.0381774364532 L 474.2605355779604 970.0687234555239 L 478.8221438635544 968.021352006861 L 483.34980791165424 965.8999707899308 L 487.8438688273735 963.7083009959599 L 492.30476061670055 961.4498846384397 L 496.7329971274396 959.1280919248329 L 501.12916030969524 956.7461286012319 L 505.4938896800554 954.3070432145521 L 509.8278728821876 951.8137342478101 L 514.1318372447582 949.2689570933775 L 518.4065422453795 946.6753308370206 L 522.6527727966475 944.0353448322323 L 526.8713332772512 941.3513650499895 L 531.0630422375997 938.6256401937843 L 535.2287277154396 935.8603075736979 L 539.3692231025282 933.0573987365257 L 543.4853635086024 930.2188448516254 L 547.5779825736668 927.346481854323 L 551.6479096840197 924.4420553504476 L 555.6959675514897 921.5072252869492 L 559.7229701190585 918.5435703946254 L 563.7297207594543 915.5525924098037 L 567.7170107364063 912.5357200824259 L 571.6856179010928 909.4943129784032 L 575.6363055989092 906.4296650843831 L 579.5698217640482 903.3430082232161 L 583.4868981815324 900.2355152884551 L 587.3882498983025 897.1083033061848 L 591.274574766746 893.9624363323733 L 595.1465531056657 890.7989281937814 L 599.0048474651614 887.6187450802669 L 602.8501024832303 884.4228079960901 L 606.6829448231001 881.2119950775752 L 610.503983181409 877.987143784208 L 614.3138083583377 874.7490529699719 L 618.1129933817002 871.4984848414352 L 621.9020936778152 868.2361668088116 L 625.6816472827172 864.962793235925 L 629.4521750879351 861.6790270947268 L 633.2141811156671 858.3855015297269 L 636.9681528187299 855.0828213374278 L 640.7127588304652 851.7695260265816 L 644.4467078420629 848.4442253215644 L 648.1687456581196 845.1055976849683 L 651.8776525275043 841.752388798807 L 655.5722407267043 838.3834100160997 L 659.2513523744585 834.9975367929327 L 662.9138574580344 831.5937071096523 L 666.5586520529635 828.1709198885742 L 670.1846567194242 824.7282334144954 L 673.7908150597493 821.2647637633358 L 677.3760924227404 817.7796832434018 L 680.9394747415997 814.2722188530422 L 684.4813792759018 810.7430670753638 L 688.0022119431198 807.1928928078876 L 691.5023673249086 803.6223309048623 L 694.9822287089287 800.0319876416066 L 698.4421681618235 796.422442104797"
        fill="none"
        stroke="#1B5E20"
        stroke-width="2"
        stroke-linecap="round"
        stroke-linejoin="round"/>

  <circle cx="150" cy="150" r="2.5"
          fill="limegreen"/>

  <circle cx="698.4421681618235" cy="796.422442104797" r="2.5"
          fill="red"/>

</svg>