<?xml version="1.0" encoding="UTF-8"?>
<svg xmlns="http://www.w3.org/2000/svg"
     width="800" height="800"
     viewBox="0 0 800 800">

  <rect x="0" y="0"
        width="800"
        height="800"
        fill="white"/>

  <text x="10"
        y="22"
        font-family="Arial"
        font-size="14"
        fill="#444">
        MeanderGen - Development Preview
        </text>
  <path d="M 150 150 L 155.0 150.0 L 159.99999605318754 149.99371763506915 L 164.99408242099253 150.23682532911542 L 169.98901626156749 150.46184961286934 L 174.98495905089763 150.6632339363411 L 179.9819857419225 150.83564115540415 L 184.98007257960222 150.97394503464324 L 189.97908687932835 151.07322258061248 L 194.97879581103692 151.12717254070083 L 199.97879514840892 151.12974669678488 L 204.97849091474984 151.07459015562438 L 209.97707511378664 150.95561114428403 L 214.97351553852909 150.76697635958232 L 219.96654801422588 150.50310764859682 L 224.9546708621695 150.15867992929617 L 229.93614139539204 149.72862025130283 L 234.93025185291074 149.48600793071236 L 239.93006413264038 149.44268164002355 L 244.9272724593673 149.60974132783386 L 249.91221756748496 149.99745548678825 L 254.87391477409187 150.6151615900034 L 259.8381446915062 151.21217191407544 L 264.8037318019201 151.79778667557966 L 269.76960841323967 152.38094144161457 L 274.73476255109455 152.97021590003132 L 279.6981922545794 153.57384291944348 L 284.65886570086724 154.19971747500142 L 289.61568662877414 154.85540512065606 L 294.5674645764657 155.54814977545732 L 299.5128894924265 156.28488066295574 L 304.4505103206438 157.07221830130098 L 309.37871720009485 157.9164794891635 L 314.2957269547385 158.8236812708743 L 319.199571583138 159.7995438946678 L 324.0880894865738 160.84949280189508 L 328.9589192011128 161.97865970362557 L 333.8094954227391 163.191882815091 L 338.63704713549987 164.49370632871336 L 343.4385976709018 165.8883792136514 L 348.2109665427229 167.37985343443873 L 352.95077291522273 168.97178168383 L 357.6544405746538 170.66751472579801 L 362.3182042842203 172.47009844405648 L 366.9381174113994 174.38227068978088 L 371.5100607240218 176.40645801959184 L 376.0297522578805 178.54477241152907 L 380.49275816405265 180.7990080428401 L 384.8945044487307 183.17063820905975 L 389.2302895222853 185.66081245917573 L 393.4952974776472 188.2703540167485 L 397.6846120209915 190.99975755175834 L 401.7932309802326 193.84918736274943 L 405.81608131906285 196.81847602358607 L 409.7480345862633 199.90712354386926 L 413.5839227318371 203.11429708682678 L 417.318554223216 206.4388312833122 L 420.94673039640844 209.87922917545762 L 424.4632619785264 213.43366381854318 L 427.8629857196822 217.09998056479168 L 431.14078107380067 220.87570004808478 L 434.29158686947454 224.7580218840417 L 437.31041791360343 228.74382909551142 L 440.19238147222524 232.82969326931553 L 442.932693574666 237.01188044604694 L 445.5266950889145 241.28635774088391 L 447.96986751797044 245.64880068972587 L 450.2578484688207 250.09460131149763 L 452.38644674766425 254.61887687420426 L 454.3516570370343 259.2164793492508 L 456.1496741125497 263.88200553566907 L 457.77690655916126 268.60980783321645 L 459.22998994894067 273.3940056408272 L 460.5057994446829 278.2284973546037 L 461.60146179585075 283.1069729374301 L 462.5143666956769 288.02292703036807 L 463.2421774705496 292.96967257425644 L 463.78284107513406 297.9403549083709 L 464.13459736901933 302.92796631160917 L 464.29598765302086 307.9253609504415 L 464.265862445609 312.9252701968057 L 464.04338848226445 317.92031827821927 L 463.6280549228812 322.9030382216287 L 463.0196787546366 327.8658880519089 L 462.2184093800253 332.8012672054603 L 461.2247323820017 337.7015331190204 L 460.03947246039036 342.55901795360523 L 458.66379553590326 347.36604541342217 L 457.0992100202401 352.1149476196354 L 455.3475672528402 356.7980819990245 L 453.4110611069014 361.4078481478374 L 451.2922267692762 365.9367046315097 L 448.99393870079547 370.37718568138246 L 446.51940778545725 374.72191775011066 L 443.8721776787454 378.9636358880966 L 441.0561203671089 383.09519990400855 L 438.07543095233956 387.10961027325106 L 434.936471042186 391.00151606379234 L 431.6456570759607 394.765894291295 L 428.2094499308515 398.39803972559423 L 424.634345414032 401.8935550944371 L 420.9268655537634 405.2483416876055 L 417.0935506097841 408.45859036025763 L 413.1409517299413 411.5207729307563 L 409.0756241862465 414.43163396530883 L 404.9041211293438 417.1881829393435 L 400.6329878057892 419.78768676361864 L 396.2687561875571 422.2276626615371 L 391.8179399678512 424.5058713829679 L 387.2870298816052 426.6203107390039 L 382.6824893130457 428.56920944147413 L 378.01075015636997 430.35102123063217 L 373.27820889898146 431.96441927423933 L 368.4912228998532 433.40829082120945 L 363.6561068384616 434.68173209306804 L 358.7791293123758 435.7840433966724 L 353.866509564013 436.71472444192665 L 348.9244143192942 437.4734698485869 L 343.95895472297434 438.06016482667593 L 338.9761833572856 438.4748810154995 L 333.9826417685464 438.72893298170334 L 328.9834089184319 438.8165167149898 L 323.9841196306456 438.73221596158373 L 318.9909460905196 438.4710302074051 L 314.010576504506 438.028403065546 L 309.05019097064496 437.4002507309469 L 304.1174346230463 436.58299017566173 L 299.2203881267072 435.5735667696061 L 294.36753561322035 434.36948102417733 L 289.56773016273127 432.9688141696202 L 284.8301569525664 431.3702522914533 L 280.16429420798676 429.5731087666497 L 275.5798721052654 427.5773447565323 L 271.0868297915277 425.3835875304558 L 266.6952706993229 422.99314641223657 L 262.4154163465534 420.4080261598924 L 258.25755882402285 417.6309376084889 L 254.23201218335404 414.66530542566517 L 250.34906294726974 411.51527284964436 L 246.61891997214258 408.1857033001216 L 243.05166389923667 404.68217877326066 L 239.65719643614023 401.01099495302236 L 236.44518971349012 397.17915299207846 L 233.4250359642033 393.19434793653704 L 230.60579777304972 389.0649537895052 L 227.9961591435404 384.8000052290448 L 225.60437762678112 380.4091760162322 L 223.43823775319078 375.90275414871445 L 221.50500600284553 371.2916138342741 L 219.81138754373353 366.5871843773734 L 218.36348495945154 361.80141608937305 L 217.16675917890697 356.9467433500239 L 216.22599281047744 352.0360449638438 L 215.5452560719022 347.0826019700511 L 215.127875495015 342.1000530787669 L 214.9764055713596 337.1023479191734 L 215.0926034908455 332.10369829717473 L 215.4774071109887 327.1185276708145 L 216.13091627903387 322.1614190612235 L 217.05237761345865 317.2470616251837 L 218.24017283511077 312.39019612247307 L 219.69181072161598 307.6055595169969 L 221.40392274180857 302.90782895529884 L 223.37226240986806 298.3115653693909 L 225.5917083816809 293.83115695294003 L 228.0562712987741 289.48076276072146 L 230.7591043680684 285.27425668090547 L 233.69251764875662 281.2251720282115 L 236.8479960009048 277.3466470032665 L 240.21622063397456 273.65137125967414 L 243.78709417744778 270.1515338153743 L 247.54976918016737 266.85877253889083 L 251.4926799299543 263.7841254340649 L 255.60357747058353 260.9379839389089 L 259.8695676793562 258.33004844533247 L 264.27715225534513 255.96928623674296 L 268.81227245596574 253.86389202996767 L 273.46035540787625 252.02125129662906 L 278.2063628073855 250.4479065271003 L 283.0348418155733 249.14952658752574 L 287.9299779442462 248.13087930717717 L 292.87564972068157 247.395807419692 L 297.85548491188575 246.94720796756974 L 302.8529180828209 246.78701526474916 L 307.8512492577591 246.91618749721806 L 312.8337034496122 247.33469702648304 L 317.78349081876746 248.0415244454129 L 322.6838672206368 249.0346564205311 L 327.51819489980045 250.31108733933235 L 332.2700030882905 251.8668247656993 L 336.9230482662056 253.69689869105883 L 341.4613738444682 255.79537455360472 L 345.86936903210835 258.15536998278276 L 350.13182665397255 260.7690752113446 L 354.2339996891831 263.6277770826826 L 358.16165630599477 266.7218865669148 L 361.90113317487885 270.0409696853499 L 365.4393868486823 273.5737817295742 L 368.76404300652626 277.30830464851715 L 371.86344336668947 281.2317874645137 L 374.7266900830302 285.3307895676315 L 377.3436874494922 289.5912267264135 L 379.7051807478777 293.99841964273566 L 381.8027920853034 298.53714486873287 L 383.6290530795462 303.19168789473525 L 385.1774342627759 307.94589820891156 L 386.4423710869214 312.78324612186145 L 387.41928642707364 317.68688114275926 L 388.10460949283447 322.6396916878474 L 388.4957910713349 327.6243658971255 L 388.5913150397055 332.62345333099444 L 388.39070609903814 337.6194273154067 L 387.8945336962787 342.5947477017477 L 387.1044121149752 347.5319238062388 L 386.02299673032996 352.41357729310704 L 384.6539764385052 357.2225047661068 L 383.00206228456204 361.94173983420865 L 381.07297232771816 366.55461441936745 L 378.87341279673603 371.0448190772495 L 376.4110556021538 375.3964621056112 L 373.6945122856918 379.59412721966993 L 370.7333045004616 383.62292957926667 L 367.5378311285227 387.4685699588692 L 364.11933215483305 391.1173868584796 L 360.48984942867116 394.5564063612583 L 356.66218445513636 397.7733895521337 L 352.64985337031186 400.75687732079496 L 348.4670392640694 403.4962323822317 L 344.12854202426513 405.98167835835164 L 339.649725885192 408.2043357751342 L 335.04646487158203 410.1562548412274 L 330.33508633716235 411.8304448858189 L 325.53231280374104 413.22090034597136 L 320.65520231299894 414.32262320635556 L 315.72108750858234 415.1316418074008 L 310.7475136707031 415.645025951257 L 305.7521759292439 415.8608982485838 L 300.75285588432854 415.77844166299207 L 295.76735786543526 415.3979032239201 L 290.81344506140454 414.72059389277166 L 285.9087757541151 413.7488845812321 L 281.07083988817396 412.4861983347557 L 276.3168962076927 410.9369987082349 L 271.66391018910406 409.10677437476687 L 267.12849299602686 407.0020200221785 L 262.72684167841675 404.6302136055034 L 258.4746808336668 401.9997900368789 L 254.38720594195874 399.12011140729953 L 250.47902858203585 396.0014338472773 L 246.76412372669327 392.65487114567554 L 243.2557793096876 389.09235525775796 L 239.96654824748305 385.326593844786 L 236.9082030903068 381.3710249982638 L 234.09169346741393 377.2397693121374 L 231.52710648129795 372.94757947585987 L 229.22363019486505 368.50978757021113 L 227.18952034435438 363.94225025607176 L 225.4320703990774 359.2612920539676 L 223.95758507690803 354.4836469191018 L 222.7713574119249 349.62639832274306 L 221.87764945773392 344.70691805622954 L 221.27967669683125 339.74280397844905 L 220.9795962129482 334.751816931462 L 220.97537119429225 329.7518187165406 L 221.26403526163875 324.7601583658934 L 221.84174962766468 319.7936458962335 L 222.70385820466336 314.86852977562626 L 223.84494066871187 310.000477720621 L 225.25886350856612 305.20456047749235 L 226.93882910349274 300.4952382757458 L 228.87742288653197 295.8863496738851 L 231.06665865886242 291.3911025468465 L 233.4980221274862 287.0220669915504 L 236.16251274278548 282.7911699517984 L 239.05068391498398 278.70969138636633 L 242.1526816894921 274.7882618247209 L 245.45828196079697 271.03686117345086 L 248.95692630321156 267.46481865336654 L 252.63775649462488 264.0808137624156 L 256.4896478065686 260.89287817320235 L 260.50124113058484 257.90839848610307 L 264.66097400716944 255.1341197698488 L 268.95711061958224 252.57614983111102 L 273.37717066650515 250.2388288900343 L 277.9087530164156 248.12583068701082 L 282.53955833504995 246.24018965518437 L 287.25740950299496 244.58432723423272 L 292.05027004116664 243.1600773047481 L 296.9062607432347 241.96871073587502 L 301.8099153397831 240.99189366100896 L 306.7485762865772 240.21110684464287 L 311.7120572696404 239.60790163016813 L 316.6923215863225 239.16409160776794 L 321.6831807391461 238.86189148090307 L 326.6800156694505 238.6840132099139 L 331.67952164598984 238.6137281435974 L 336.67947681017614 238.6349025651123 L 341.6785336793967 238.73201290595668 L 346.6760324514831 238.89014583420052 L 351.67183467841767 239.09498750319207 L 356.6661757384627 239.33280545026193 L 361.65953449550744 239.59042595302606 L 366.65251856311426 239.85520907300273 L 371.64576366578893 240.11502313077364 L 376.6398456941558 240.35821995218228 L 381.6352041710959 240.5736118899674 L 386.6320759730872 240.75045134954652 L 391.6304382782382 240.87841332220057 L 396.62995983518516 240.94758124556657 L 401.6299597620626 240.94843636309437 L 406.62937319028043 240.8718506349516 L 411.6267231628499 240.7090831576708 L 416.62009828112974 240.4517799743566 L 421.6071356672071 240.0919770979551 L 426.5850088720741 239.62210652400233 L 431.55255500497304 239.0533487394218 L 436.50921141855025 238.39641860786747 L 441.4549166057718 237.66157154820849 L 446.39002152792506 236.85861488229241 L 451.3152105579646 235.99692293131554 L 456.23143122602283 235.08545469656627 L 461.13983197644615 234.13277317935086 L 466.0417071819242 233.14706558076008 L 470.93844870526726 232.13616377862118 L 475.83150334944156 231.1075646102742 L 480.722335588815 230.0684495991683 L 485.6123950271573 229.02570385380216 L 490.50308807932515 227.9859339420058 L 495.39575342274 226.955484604412 L 500.29164081108735 225.94045422032428 L 505.19189288573995 224.94670897889515 L 510.09752966004527 223.97989574016538 L 515.006576631735 223.03054973909732 L 519.9172333544502 222.08956591795464 L 524.827815846805 221.14819479784418 L 529.7367057974254 220.1980372042322 L 534.6423059964686 219.23103840012345 L 539.543001459417 218.2394820580848 L 544.4371257471005 217.2159843997058 L 549.322932025 216.15348874567334 L 554.198568443524 215.04526064895188 L 559.0620574581504 213.8848837254447 L 563.911278743454 212.66625624907664 L 568.743955387685 211.3835885398458 L 573.5576430845344 210.03140114262578 L 578.3497220659274 208.60452377014704 L 583.117391544178 207.09809496460812 L 587.8576664536967 205.5075624178845 L 592.5673763018256 203.82868387956282 L 597.2431659554566 202.05752857440257 L 601.8814982050544 200.19047904577698 L 606.4786579607626 198.2242333387258 L 611.0307579466078 196.1558074350811 L 615.533745768632 193.98253785339054 L 619.9834122412541 191.70208432779017 L 624.3754008634598 189.31243248235018 L 628.7052183427076 186.8118964205425 L 632.9788985726818 184.2165819324838 L 637.2031053886933 181.5414974897862 L 641.3849432933276 178.8006524121936 L 645.5317953217532 176.00715670710593 L 649.6511844933882 173.1733195818258 L 653.7506555999317 170.310744404365 L 657.9828179015547 167.6482639344419 L 662.3441629578988 165.2031321794024 L 666.8289637388672 162.99257524617815 L 671.4292319686499 161.03361322152028 L 676.1346933218248 159.342863845126 L 680.9327829433366 157.9363305238214 L 685.8086636044951 156.82917751807167 L 690.7452685826692 156.0354954095 L 695.7233710669642 155.5680602205644 L 700.7216815503898 155.43808979593834 L 705.7169742761937 155.655001260668 L 710.6842433683108 156.22617353459052 L 715.5968888002573 157.156718998271 L 720.426931851083 158.44926846624864 L 725.1452591697291 160.1037736231213 L 729.7218940294581 162.11733101259722 L 734.1262928116189 164.4840315360476 L 738.3276642228424 167.19483921365108 L 742.2953082320296 170.23750268770806 L 746.0109290497955 173.58327045289795 L 749.4595868570028 177.2035963123737 L 752.6294115612027 181.07040524800064 L 755.5113210560477 185.1563075551444 L 758.0987482998347 189.43476758862704 L 760.3873803574571 193.88023306535982 L 762.3749115853531 198.46823040822508 L 764.06081235549 203.17543112555717 L 765.4461140871144 207.97969372374627 L 766.5332108608201 212.8600851634362 L 767.3256775074859 217.79688540386746 L 767.8281037761029 222.77157814258044 L 768.045943973049 227.7668304533846 L 767.98538131675 232.7664636563968 L 767.6532061536865 237.7554174205686 L 767.0567071240346 242.71970880077828 L 766.2035743391671 247.64638764675396 L 765.1018136315636 252.52348958778217 L 763.7596709544156 257.3399875929907 L 762.1855660384913 262.08574292946383 L 760.3891308048161 266.7518784237686 L 758.3799575713272 271.33043965169065 L 756.1675503536851 275.8143279535248 L 753.7612844254237 280.1972361527104 L 751.1703731487164 284.4735872557223 L 748.4038411772822 288.63847631199167 L 745.4705032192871 292.6876155321452 L 742.3789476296508 296.6172826982279 L 739.1375241774064 300.4242728483648 L 735.7543354044203 304.10585317837814 L 732.2372310567852 307.65972107235586 L 728.584140325798 311.0736525466499 L 724.7943089875239 314.33512129974804 L 720.868337145592 317.43136823698643 L 716.8082121548347 320.34948150747954 L 712.6173356933862 323.07648618017026 L 708.3005439696153 325.59944262323125 L 703.8641200889243 327.9055525839301 L 699.3157976624657 329.9822718969267 L 694.6647548137195 331.8174286801818 L 689.9215978281679 333.3993458115175 L 685.0983337944938 334.716966417559 L 680.2083317012768 335.7599810523237 L 675.2662715794469 336.51895519695444 L 670.2880814161009 336.9854556766595 L 665.2908617079515 337.15217456726026 L 660.292797670835 337.0130491530412 L 655.3130592735045 336.5633765008241 L 650.3716894174723 335.79992123304646 L 645.4894807380213 334.7210151155863 L 640.6214465500796 333.57985643028854 L 635.7694544503167 332.3723082267626 L 630.9355009076361 331.0944611517161 L 626.1217126773911 329.74263169710497 L 621.3303470217746 328.3133608500719 L 616.5637908451083 326.8034130977692 L 611.8245588430974 325.20977573904685 L 607.1152907565385 323.5296584547725 L 602.4387478123596 321.76049308905607 L 597.7978084281301 319.899933594735 L 593.1954632502024 317.9458560980105 L 588.6348095903487 315.8963590390072 L 584.1190453210578 313.7497633471743 L 579.6514622854708 311.5046126127837 L 575.2354392742121 309.15967321825036 L 570.8744346180416 306.71393439555095 L 566.5719784422607 304.16660817861595 L 562.3316646261172 301.5171292221751 L 558.1571425080109 298.76515446112785 L 554.0521083750813 295.910562587062 L 550.020296773727 292.95345332104137 L 546.0654716757286 289.8941464642121 L 542.191417532911 286.733180710124 L 538.401930251657 283.47131220492435 L 534.7008081170609 280.10951284374846 L 531.0918426950728 276.6489682936965 L 527.5788097396128 273.0910757357555 L 524.1654601303317 269.43744131988683 L 520.8555108654397 265.6898773292603 L 517.6526361328171 261.85039905127417 L 514.5604584814525 257.9212213545541 L 511.58254011412333 253.90475497258063 L 508.7223743211274 249.80360249594972 L 505.98337707380836 245.62055407653372 L 503.3593828743327 241.36442268275388 L 500.8440475228392 237.04318581473484 L 498.4309179031452 232.664052859622 L 496.11349052759823 228.23353027655514 L 493.8852602940742 223.75748402719518 L 491.7397607637309 219.2411988540361 L 489.6705971293479 214.6894341573336 L 487.67147291319634 210.10647633858858 L 485.7362113117431 205.4961875695481 L 483.85877199280594 200.8620510152687 L 482.0332640492176 196.20721259187567 L 480.253547847712 191.53467471165484 L 478.5136623320061 186.84715954984077 L 476.80783058780366 182.14714486257955 L 475.1304633190688 177.43689656277868 L 473.4761606244968 172.7184982545885 L 471.8397124043601 167.9938779288045 L 470.21609767670725 163.2648320190941 L 468.6020130155405 158.53252489607405 L 466.9942807555921 153.79805586773293 L 465.39642630585314 149.060244014414 L 464.0622040959314 144.24154594392323 L 462.99902036000566 139.35588935103186 L 462.2134382534236 134.4179889111872 L 461.71110682561743 129.443286594803 L 461.4966940488789 124.44788599413329 L 461.5738244586359 119.44848093954022 L 461.9450219351559 114.46227873411121 L 462.61165812654116 109.5069183851219 L 463.57390697870585 104.60038425739918 L 464.8307058000109 99.76091561685958 L 466.37972324667186 95.00691257206249 L 468.2173345702931 90.35683895723669 L 470.3359910917062 85.82789928615763 L 472.7271664757535 81.43673995373456 L 475.38139599839684 77.19939814062478 L 478.2883181745226 73.131253174925 L 481.4367186219609 69.24698044730015 L 484.8145760326831 65.56050797177163 L 488.4091101176153 62.084975679839836 L 492.2068313870559 58.83269753065913 L 496.19359262435165 55.815126514627224 L 500.3486395199555 53.03383449555892 L 504.6524789960184 50.48884613325097 L 509.08688852163687 48.17886514651017 L 513.6349061641272 46.10147844115255 L 518.2808055117865 44.25333903855918 L 523.0100589803931 42.630328986319 L 527.809292459312 41.22770358557106 L 532.6662337619263 40.04021835073257 L 537.5696569158367 39.062240143564765 L 542.5093239564279 38.28784390900737 L 547.4759255679397 37.71089639620536 L 552.4610216438631 37.32512818365568 L 557.4569826080791 37.12419524949692 L 562.4569321446618 37.10173124213601 L 567.4545564557562 37.25584563198156 L 572.4437429396836 37.58450689924079 L 577.4185748804757 38.085552965860494 L 582.3733261986864 38.75670076976759 L 587.3024562940026 39.59555504999063 L 592.2006050046407 40.59961640691792 L 597.0625877036798 41.7662886977708 L 601.8833905482675 43.09288582335759 L 606.6581658939712 44.57663795833857 L 611.3822278833771 46.21469727358024 L 616.0510482152981 48.004143195713986 L 620.6602520985937 49.941987245738055 L 625.2056143925874 52.02517749541275 L 629.6830559343451 54.250602677292115 L 634.0886400516134 56.61509598150626 L 638.4185692589917 59.11543856985144 L 642.6691821338768 61.74836283535194 L 646.836950367868 64.51055543322302 L 650.9184759886199 67.3986601070785 L 654.7474541434492 70.61408018691874 L 658.2983050985953 74.1342303959777 L 661.5474718082443 77.93461402041729 L 664.4735534446619 81.98900007221593 L 667.05742411757 86.26960894779488 L 669.2823363000765 90.74730542926102 L 671.1340085602561 95.39179784941646 L 672.6006972809954 100.17184222122476 L 673.6732521356224 105.05545011742365 L 674.3451551727869 110.01009907659817 L 674.6125434506582 115.00294430841309 L 674.4742152473714 120.00103047295401 L 673.9316199613643 124.97150231731676 L 672.9888319013882 129.88181296675296 L 671.6525082511081 134.6999286878313 L 669.9318315768987 139.3945289671769 L 667.8384373292539 143.93520078133915 L 665.3863268677139 148.29262597110502 L 662.5917666159559 152.43876067698395 L 659.6819896979191 156.50486425255363 L 656.659597944715 160.4879720957037 L 653.5272497091089 164.3852011794112 L 650.2876582062847 168.19375036444603 L 646.9435898590509 171.91090073657642 L 643.6922040935734 175.70938604049044 L 640.5357255456553 179.5870971148915 L 637.464434699622 183.5326227502248 L 634.4684428373236 187.53562571812796 L 631.5378039365023 191.58671885862634 L 628.6626066627784 195.67734725010496 L 625.833049610806 199.79967752431068 L 623.0395025648784 203.94649496690312 L 620.2725561859849 208.1111087228627 L 617.5230621969017 212.28726518592725 L 614.7798981790995 216.46758229966815 L 612.0323544163115 220.6450220983444 L 609.2701706388491 224.81279617805694 L 606.4835668191429 228.96428255669272 L 603.6632694765439 233.09295339599794 L 600.8005346502653 237.19231301847697 L 597.8871684426775 241.25584563683825 L 594.9155458166207 245.27697221633147 L 591.8786281456586 249.24901590438404 L 588.7699798612277 253.165175482811 L 585.5837844116778 257.0185063221327 L 582.3148596418995 260.80190834273924 L 578.958672615571 264.50812051209823 L 575.5113538323836 268.129721429798 L 571.969710737611 271.6591355722938 L 568.3312403790559 275.0886447864403 L 564.5941410350016 278.4104046351755 L 560.7573226148075 281.61646521015837 L 556.8204156199257 284.69879603498083 L 552.7837784462565 287.6493146890741 L 548.6485028079331 290.45991878696645 L 544.416417066986 293.1225209505034 L 540.0900872621495 295.6290864133995 L 535.6728156426849 297.9716728984353 L 531.1686365289273 300.1424724081068 L 526.5823093398117 302.1338545699176 L 521.9193086484231 303.93841117809296 L 517.1858111492359 305.54900157455876 L 512.3886794447661 306.9587985138273 L 507.5354425845154 308.16133415916335 L 502.63427331500003 309.15054586125666 L 497.69396202604315 309.9208213757351 L 492.7238874050747 310.4670431823351 L 487.7339838376791 310.784631576475 L 482.7347056188096 310.8695862134098 L 477.7369880647333 310.71852579610004 L 472.75220564067155 310.32872561040807 L 467.79212724307183 309.6981526252076 L 462.86686454665835 308.83688183659484 L 457.98532139815995 307.7549684900887 L 453.15529098192894 306.4623718096491 L 448.38354915489975 304.96889267146867 L 443.67594333164425 303.28412342529555 L 439.0374765153994 301.4174082368976 L 434.4723862433766 299.37781249060794 L 429.9842183511034 297.1740999479274 L 425.57589556687833 294.8147165051436 L 421.24978102874826 292.3077795288757 L 417.00773687715497 289.6610718729505 L 412.85117812031535 286.88203979308173 L 408.78112199969075 283.97779407775977 L 404.7982331022694 280.95511380508816 L 400.9028644770858 277.82045221666505 L 397.0950950173102 274.579944271728 L 393.37476336791764 271.239415508414 L 389.7414986136566 267.8043918948934 L 386.19474799382675 264.2801104020587 L 382.733801880083 260.6715300721004 L 379.35781624177827 256.9833433943466 L 376.0658328107868 253.2199878318097 L 372.8567971447202 249.38565736953697 L 369.7295747743018 245.48431397963205 L 366.68296560763747 241.5196989181668 L 363.7157167514097 237.49534378656935 L 360.8265338967558 233.4145813048297 L 358.01409140587015 229.28055575635264 L 355.2770412242518 225.09623307480632 L 352.61402073304583 220.86441055213157 L 350.0236596461124 216.58772615422458 L 347.50458604730255 212.26866743689052 L 345.0554316549197 207.90958005966675 L 342.6748363924749 203.51267589918913 L 340.36145233758515 199.0800407670604 L 338.11394711418137 194.61364173979328 L 335.9310067870616 190.11533411044707 L 333.81133831220654 185.58686797314346 L 331.7536715911401 181.02989445281048 L 329.7567611729311 176.44597159333213 L 327.8193876431608 171.83656991782746 L 325.94035873529765 167.20307767510008 L 324.11851019638704 162.54680578642464 L 322.35270643576035 157.86899250680813 L 320.6418409825616 153.1708078147115 L 318.9848367752559 148.45335754396444 L 317.6284426233578 143.64085352789374 L 316.57460700682736 138.75317202299473 L 315.824082529763 133.80982163997237 L 315.37648975353244 128.82989586676388 L 315.2303795270769 123.83203114253163 L 315.38329367659617 118.83436996325219 L 315.83182395998097 113.85452854159158 L 316.57166922738236 108.90956858419013 L 317.5976907591036 104.01597278800462 L 318.90396577637557 99.18962369378741 L 320.48383914026545 94.44578556901216 L 322.32997326961055 89.79908902453379 L 324.4343963210397 85.2635180989927 L 326.7885486833514 80.85239957247109 L 329.3833278452002 76.57839429624188 L 332.2091316995968 72.45349034869629 L 335.2559003514887 68.48899784878552 L 338.51315649595836 64.69554527766846 L 341.97004443461003 61.08307717682599 L 345.61536779673924 57.66085310679273 L 349.43762603008406 54.437447764979865 L 353.4250497235112 51.420752173924 L 357.5656348210336 48.617975862803945 L 361.84717578321425 46.03564997532011 L 366.2572977483868 43.679631246128324 L 370.783487742303 41.55510679605182 L 375.4131249808803 39.66659970335173 L 380.1335103067275 38.01797531449707 L 384.9318947961287 36.61244826321916 L 389.79550756920736 35.452590171232856 L 394.7115828321119 34.540338007926046 L 399.66738617628897 33.877003089620715 L 404.6502401562663 33.46328070175189 L 409.6475491638725 33.29926032954811 L 414.6468236134916 33.384436484577726 L 419.6357034497972 33.71772011589512 L 424.60198098644287 34.29745059552178 L 429.5336230814112 35.1214082686681 L 434.41879265213964 36.18682755947744 L 439.2458695311633 37.490410623188794 L 444.00347066082594 39.02834153549689 L 448.68046962362695 40.79630100956815 L 453.26601550298045 42.789481630672036 L 457.74955106756636 45.002603597734286 L 462.12083027104677 47.42993096033279 L 466.36993505770204 50.06528833875859 L 470.4872914635015 52.90207811377225 L 474.4636850012653 55.93329807161603 L 478.2902753178831 59.15155948871175 L 481.95861011103494 62.54910563929624 L 485.46063829249704 66.11783070803511 L 488.7887223849093 69.8492990884227 L 491.9356501388241 73.73476504653388 L 494.8946453569401 77.76519272845134 L 497.6593779126478 81.93127648846024 L 500.2239729503637 86.22346151388994 L 502.58301925560727 90.63196472129682 L 504.7315767833666 95.1467958975324 L 506.6651833340039 99.75777905813194 L 508.37986036675943 104.45457399439869 L 509.87211794182053 109.2266979795517 L 511.1389587829212 114.06354760335844 L 512.1778814535201 118.95442070378904 L 512.9868826407712 123.88853836341433 L 513.5644585427344 128.85506693752637 L 513.909605355577 133.8431400802925 L 514.0218188588807 138.84188073466498 L 513.901093098584 143.84042305126098 L 513.5479181685555 148.82793420100285 L 512.9632770932984 153.79363604597123 L 512.4079414918515 158.76270058265874 L 511.8821318552151 163.7349761407931 L 511.3860599707818 168.7103065504719 L 510.91992918488006 173.68853134355172 L 510.4839346552186 178.6694859478525 L 510.0782635936653 183.65300187436645 L 509.7030954997757 188.63890689766234 L 509.35860238546155 193.62702522967794 L 509.0449489911727 198.61717768709354 L 508.76229299394583 203.6091818524796 L 508.5107852076565 208.60285222941036 L 508.29056977579427 213.59800039173444 L 508.101784357066 218.59443512719088 L 507.9445603041172 223.59196257555715 L 507.81902283564835 228.5903863615131 L 507.7252912021895 233.58950772240135 L 507.6634788457858 238.58912563106156 L 507.63369355383287 243.58903691391282 L 507.6360376072933 248.58903636445413 L 507.67060792351236 253.58891685234946 L 507.73749619384324 258.5884694282598 L 507.8367890162827 263.5874834245807 L 507.96856802330916 268.58574655223885 L 508.1329100051074 273.5830449936989 L 508.3298870283557 278.5791634923248 L 508.559566550745 283.57388543823885 L 508.82201153139187 288.56699295081387 L 509.11728053730076 293.55826695793365 L 509.44542784602436 298.5474872721488 L 509.806503544666 303.5344326638541 L 510.2005536253608 308.51888093160693 L 510.6276200773681 313.50060896970473 L 511.087740975902 318.47939283313286 L 511.5809505678222 323.45500779999253 L 512.1072793543016 328.4272284315135 L 512.6667541705849 333.39582862975294 L 513.2593982629455 338.36058169307745 L 513.8852313629452 343.3212603695233 L 514.5442697590983 348.27763690812446 L 515.2365263660349 353.22948310829594 L 515.962010791259 358.1765703673563 L 516.7207293995883 363.11866972626996 L 517.5126853753646 368.05555191368666 L 518.3378787825158 372.98698738835265 L 519.1963066225514 377.9127463799652 L 520.0879628905682 382.83259892853886 L 521.0128386293391 387.74631492234977 L 521.9709219815595 392.653664134521 L 522.9621982403183 397.5544162583099 L 523.9866498978603 402.4483409411549 L 525.044256692705 407.33520781753884 L 526.1349956551837 412.21478654072087 L 527.2588411514541 417.0868468133892 L 528.4157649260494 421.951158417283 L 529.6057361430188 426.8074912418312 L 530.8287214257124 431.655615311852 L 532.084684895261 436.4953008143572 L 533.3735882078026 441.3263181245021 L 534.6953905905012 446.14843783071973 L 536.0500488764068 450.9614307590781 L 537.4375175381983 455.76506799689554 L 538.8577487208559 460.55912091564886 L 540.3106922733001 465.3433611932071 L 541.7962957790419 470.1175608354223 L 543.3145045858793 474.8814921971068 L 544.8652618346791 479.6349280024265 L 546.4485084872796 484.37764136473606 L 548.064183353548 489.1094058058837 L 549.7122231176273 493.8299952750086 L 551.3925623634044 498.5391841668563 L 553.1051335992285 503.236747339633 L 554.8498672819132 507.92246013242186 L 556.6266918400489 512.5960983821803 L 558.4355336966528 517.2574384403393 L 560.2763172911854 521.9062571890216 L 562.1489651009578 526.542332056898 L 564.053397661955 531.1654410346978 L 565.9895335891001 535.7753626903898 L 567.9572895959806 540.3718761840485 L 569.9565805140612 544.9547612824205 L 571.987319311404 549.5237983732052 L 574.0494171109156 554.0787684790621 L 576.1427832081428 558.6194532713572 L 578.2673250886353 563.1456350836613 L 580.422948444894 567.6570969250107 L 582.6095571929227 572.1536224929403 L 584.8270534884001 576.6349961863008 L 587.0753377424903 581.1010031178685 L 589.3543086373052 585.5514291267565 L 591.6638631410364 589.9860607906373 L 594.00389652277 594.404685437784 L 596.3743023669999 598.8070911589369 L 598.7749725878516 603.1930668190057 L 601.2057974430307 607.5624020686109 L 603.66666554751 611.9148873554736 L 606.1574638869645 616.2503139356581 L 608.6780778309692 620.5684738846745 L 611.2283911459688 624.8691601084457 L 613.8082860080316 629.1521663541454 L 616.4176430153973 633.41728722091 L 619.0563412008291 637.6643181704321 L 621.7242580437803 641.8930555374363 L 624.4212694823831 646.1032965400449 L 627.1472499252711 650.2948392900346 L 630.1166761632822 654.3175880787376 L 633.3191268743533 658.1574200338055 L 636.7433623346619 661.8008540612533 L 640.3773638577375 665.235098218311 L 644.2083759722901 668.4480946668231 L 648.2229511905548 671.4285620491132 L 652.4069972098367 674.1660351372972 L 656.6098323034788 676.8745729671328 L 660.8312575369234 679.5540447431433 L 665.07107300624 682.2043211034771 L 669.329077851232 684.8252741248082 L 673.6050702684397 687.4167773271952 L 677.8988475240429 689.9787056788991 L 682.2102059666695 692.5109356011599 L 686.5389410401151 695.0133449729299 L 690.8848472959785 697.4858131355655 L 695.2477184062176 699.9282208974761 L 699.6273471756301 702.3404505387279 L 704.0235255542638 704.7223858156055 L 708.4360446497591 707.0739119651283 L 712.8646947396302 709.3949157095209 L 717.3092652834862 711.6852852606388 L 721.7695449351962 713.9449103243477 L 726.2409046685726 716.1825300719231 L 730.7190216211962 718.4065958440227 L 735.1998185254923 720.6252574005588 L 739.6794095793493 722.8463526236874 L 744.1540523653814 725.0773998973709 L 748.6201054217958 727.3255925264158 L 753.0739910718472 729.5977946776923 L 757.5121631300003 731.9005384285748 L 761.9310791188104 734.2400215945408 L 766.3271766493715 736.6221060812446 L 770.6968536385999 739.0523165679735 L 775.0364520576173 741.5358393807662 L 779.3422449263356 744.0775214560256 L 783.6104262895245 746.6818693304323 L 787.8371039288133 749.3530481214412 L 792.0182945830351 752.0948804855819 L 796.1499214659525 754.910845560002 L 800.2278138856673 757.8040779069165 L 804.2477087839201 760.7773664914641 L 808.2052540260948 763.833153731463 L 812.0960132841109 766.9735346631595 L 815.9154723646186 770.2002562706625 L 819.6590468441075 773.5147170286923 L 823.322090880783 776.9179667088328 L 826.8999070804862 780.4107064989032 L 830.3877573006026 783.9932894835714 L 833.7808742819349 787.6657215320912 L 837.0744740039838 791.4276626362181 L 840.2637686640722 795.2784287380648 L 843.3439801853273 799.216994084016 L 846.3103541627786 803.2419941369228 L 849.1581741607853 807.3517290747203 L 851.8827762787258 811.5441678994276 L 854.4795639054181 815.8169531762533 L 856.9440225861149 820.1674064182889 L 859.2717349291809 824.5925341280774 L 861.4583954827214 829.0890345032125 L 863.4998255145306 833.6533048091023 L 865.3919876317656 838.2814494181331 L 867.1310001797588 842.9692885107132 L 868.7131513623551 847.712367430087 L 870.1349130291172 852.5059666793908 L 871.3929540776829 857.3451125461862 L 872.4841534224937 862.2245883366667 L 873.4056124840356 867.1389461988805 L 874.1546671556503 872.0825195116707 L 874.7288992078812 877.0494358135819 L 875.1261470932177 882.0336302437377 L 875.3445161169808 887.0288594646504 L 875.3823879429642 892.0287160350729 L 875.2384294052863 897.026643199351 L 874.911600600733 902.0159500582758 L 874.4011622386633 906.9898270851562 L 873.7066822283081 911.9413619497428 L 872.8280414860128 916.8635556117171 L 871.7654389476587 921.7493386447102 L 870.5193957741237 926.5915877512398 L 869.0907587402338 931.3831424285233 L 867.4807028001785 936.1168217448578 L 865.6907328248388 940.7854411861255 L 863.722684508883 945.381829531997 L 861.5787244478321 949.8988457215428 L 859.2613493875737 954.3293956682303 L 856.7733846510116 958.666448984668 L 854.1179817486741 962.903055577952 L 851.2986151821641 967.0323620770686 L 848.3190784513232 971.0476280545064 L 845.1834792778858 974.9422420050205 L 841.8962340602311 978.7097370453631 L 838.4620615755899 982.3438062997574 L 834.8859759477307 985.8383179369133 L 831.1732788997376 989.1873298254893 L 827.3295513129988 992.3851037760592 L 823.36520136829 995.4320579135359 L 819.2900240631037 998.3291133032885 L 815.113218656179 1001.077621369983 L 810.8434090109167 1003.6792988275524 L 806.4886660469774 1006.1361695441391 L 802.056531640249 1008.4505127772602 L 797.5540434248366 1010.624817233879 L 792.9877600485745 1012.6617404351001 L 788.3637865175014 1014.5640728939346 L 783.6843700892032 1016.3256238839923 L 778.9522832396257 1017.9403542169135 L 774.170816389764 1019.4023989370484 L 769.3437689357438 1020.7060909546036 L 764.4754385564623 1021.8459853875073 L 759.5706087807772 1022.8168843892333 L 754.6345348049946 1023.6138622468943 L 749.6729275608747 1024.2322905411183 L 744.6919360443273 1024.6678631666166 L 739.6981279252273 1024.9166210199794 L 734.6984684691677 1024.9749761691405 L 729.700297812352 1024.8397353271337 L 724.7113066410634 1024.508122461273 L 719.7395103371434 1023.9778003776979 L 714.7932216605548 1023.2468911303556 L 709.8810220493165 1022.3139951129184 L 705.0117316258101 1021.1782087018586 L 700.1943780066025 1019.8391403288815 L 695.4381640204663 1018.2969248711448 L 690.7524344461539 1016.5522362581213 L 686.1466418876753 1014.6062982045688 L 681.6303119103036 1012.460892989815 L 677.2130075652778 1010.1183682144035 L 672.9042934351777 1007.5816414760505 L 668.7136993351942 1004.8542029177722 L 664.6506838080294 1001.9401156119391 L 660.7245975519171 998.8440137548346 L 656.9446469222836 995.5710986570152 L 653.3198576478748 992.1271325253393 L 649.8590389017745 988.518430042917 L 646.3781266698749 984.9291055892334 L 642.8782109281314 981.3583087873002 L 639.360327840685 977.8052117462585 L 635.8254626890565 974.269009212494 L 632.2745526334784 970.7489186203082 L 628.7084893155755 967.244180054779 L 625.1281213112316 963.7540561381437 L 621.5342564421036 960.2778318498608 L 617.9276639538625 956.8148142894429 L 614.3090765688512 953.364332390195 L 610.6791924204738 949.9257365911284 L 607.0386768762551 946.498398473536 L 603.3881642561415 943.0817103680175 L 599.7282594522637 939.6750849371032 L 596.0595394560338 936.2779547380584 L 592.3825547981221 932.8897717699349 L 588.6959921537151 929.512012768931 L 584.99860384179 926.1461072933064 L 581.289206663577 922.7934408061254 L 577.5666806710867 919.4553574885263 L 573.829967879784 916.1331628049902 L 570.0780709376735 912.8281258406308 L 566.3100517614506 909.5414814291349 L 562.5250301489676 906.2744320886693 L 558.7221823760218 903.0281497818141 L 554.9007397843862 899.8037775144056 L 551.0599873670487 896.6024307870554 L 547.1992623557862 893.4251989120718 L 543.319213802796 890.2715941133631 L 539.4204605332911 887.1411431963984 L 535.5035926787085 884.0333873807434 L 531.5691731286568 880.9478821054003 L 527.6177389059607 877.884196810905"
        fill="none"
        stroke="#1B5E20"
        stroke-width="2"
        stroke-linecap="round"
        stroke-linejoin="round"/>

  <circle cx="150" cy="150" r="2.5"
          fill="limegreen"/>

  <circle cx="527.6177389059607" cy="877.884196810905" r="2.5"
          fill="red"/>

</svg>