<?xml version="1.0" encoding="UTF-8"?>
<svg xmlns="http://www.w3.org/2000/svg"
     width="800" height="800"
     viewBox="0 0 800 800">

  <rect x="0" y="0"
        width="800"
        height="800"
        fill="white"/>

  <text x="10"
        y="22"
        font-family="Arial"
        font-size="14"
        fill="#444">
        MeanderGen - Development Preview
        </text>
  <path d="M 150 150 L 155.0 150.0 L 159.99999605318754 149.99371763506915 L 164.99996150774285 149.97513126227497 L 169.99982717205205 149.93847967483273 L 174.9994645514894 149.87826278241363 L 179.99867204383742 149.7892434111981 L 184.99716400222633 149.66645032539324 L 189.99456259508074 149.50518252285144 L 194.9903278604374 149.29944139070741 L 199.98377701605204 149.04357906387654 L 204.97404421566017 148.73175655584492 L 209.96009510205118 148.35853201442322 L 214.9407277643023 147.91887500752205 L 219.91457868478724 147.40818232029113 L 224.88013363025527 146.82229488781115 L 229.8357434057684 146.15751541096282 L 234.78214789641993 145.4273903430036 L 239.72057426033274 144.64512117691623 L 244.65261646313596 143.82356186087875 L 249.5801220394439 142.9752171223119 L 254.50508617104575 142.11224070175618 L 259.4295532904125 141.24643264550144 L 264.3555265062291 140.38923495706712 L 269.28488520513133 139.55172506604677 L 274.21931121092564 138.74460673931821 L 279.1602238797277 137.97819823253417 L 284.1087244774372 137.2624176554935 L 289.0655501260769 136.60676569828786 L 294.0310375198132 136.02030602989956 L 299.00509650288467 135.51164383066924 L 303.9871934741409 135.08890304839318 L 308.9763444413512 134.75970306907277 L 313.9711173986705 134.5311355630017 L 318.96964354906424 134.40974230194428 L 323.9696367468358 134.40149474241645 L 328.9684204003486 134.511776134199 L 333.962960957793 134.74536684472233 L 338.94990700476956 135.1064334930636 L 343.9256329356849 135.5985223675734 L 348.8862861241872 136.22455746515325 L 353.8278365122082 136.9868433450236 L 358.7461275621278 137.88707284258567 L 363.6369275701283 138.92633954644094 L 368.49598041764654 140.1051548097561 L 373.31905493763844 141.42346895084873 L 378.1019921881308 142.88069620074918 L 382.84075005190897 144.47574287984062 L 387.5314447128424 146.20703823242792 L 392.17038869125616 148.07256731693425 L 396.754125248433 150.0699053390027 L 401.2793959492059 152.1963871951978 L 405.7412689060984 154.45286447550689 L 410.13469636026355 156.83986996460575 L 414.4545298679785 159.35761468272614 L 418.69553592723844 162.00598542816962 L 422.8524119836551 164.7845428689273 L 426.9198027557692 167.69252022560005 L 430.89231682075274 170.72882258266333 L 434.76454340234824 173.89202686009867 L 438.53106930378266 177.18038247253224 L 442.1864959293321 180.5918126982915 L 445.72545633920953 184.12391677622017 L 449.14263228351564 187.77397274368911 L 452.43277116214233 191.5389410250096 L 455.5907028587497 195.41546877540205 L 458.61135639826034 199.39989498180137 L 461.48977637872525 203.48825631809007 L 464.22113912991404 207.6762937488467 L 466.8007685525681 211.9594598723793 L 469.22415159392295 216.33292699068187 L 471.4869533168512 220.79159589100547 L 473.58503152179696 225.33010532097603 L 475.5144508825577 229.9428421366118 L 477.27149655891674 234.62395210019824 L 478.8526872511297 239.36735130275954 L 480.2547876633171 244.1667381838251 L 481.4748203449043 249.01560611931882 L 482.51007688137287 253.90725654670007 L 483.3581284077379 258.8348125949485 L 484.01683542033635 263.7912331856121 L 484.48435686469634 268.7693275699186 L 484.75915847945043 273.761770265887 L 484.8400203784495 278.7611163584565 L 484.7260438554253 283.7598171248756 L 484.4166573977308 288.7502359469581 L 483.91162189785325 293.7246644713078 L 483.2110350535438 298.6753389782392 L 482.3153349495286 303.5944569198693 L 481.2253028158629 308.47419358772095 L 479.94206496005086 313.30671887015984 L 478.4670938720814 318.08421406007415 L 476.80220850351594 322.7988886733997 L 474.9495737237096 327.44299723938434 L 472.91169895814517 332.0088560238712 L 470.69143601571034 336.4888596473575 L 468.29197611354743 340.8754975601459 L 465.7188833633259 345.16259374506615 L 462.97782134804635 349.34428945714177 L 460.0745414236137 353.415034558519 L 457.014871952477 357.36957912488737 L 453.80470838378557 361.20296533843884 L 450.4500041009572 364.9105196771874 L 446.956761963656 368.4878454060222 L 443.3310264769422 371.9308153710937 L 439.57887652577716 375.23556509595517 L 435.7064186181565 378.3984861752277 L 431.7197805849093 381.4162199593556 L 427.6251056886515 384.2856515222189 L 423.42854709853276 387.0039039019108 L 419.1362626912787 389.5683326038333 L 414.7544101426214 391.976520354368 L 410.28914227654144 394.2262720927058 L 405.74660264283506 396.31561018794235 L 401.13292129637586 398.2427698682321 L 396.4542107540864 400.00619484862375 L 391.7165621080749 401.6045331441501 L 386.92604127564675 403.0366330547959 L 382.08868536897626 404.3015393091088 L 377.2104991691402 405.39848935342656 L 372.2995200434663 406.3377891070705 L 367.3599792840119 407.11299042652786 L 362.39671214736677 407.7179526817956 L 357.4151433841246 408.14687302065806 L 352.4212700109812 408.39431742453326 L 347.42164132963734 408.45525221495865 L 342.4233362099627 408.3250756785375 L 337.43393766962373 407.9996494877305 L 332.46150479819306 407.47532960529645 L 327.51454209028014 406.74899637149866 L 322.6019662691301 405.81808348542813 L 317.7330706991442 404.68060560495235 L 312.9174875026219 403.3351843038827 L 308.16514751248195 401.7810721399394 L 303.4862382085874 400.01817460294836 L 298.8911598003962 398.04706972938754 L 294.3904796328328 395.8690251868445 L 289.99488510538873 393.48601265009535 L 285.71513530640175 390.9007193092787 L 281.562011575134 388.1165563699411 L 277.546267213596 385.13766442447286 L 273.6785765779795 381.9689155945457 L 269.9694837860296 378.61591236449874 L 266.4293512816642 375.0849830460989 L 263.0683085016305 371.3831738356204 L 259.8962008909608 367.5182374446391 L 256.92253951446503 363.498618306221 L 254.15645151049208 359.3334343781961 L 251.6066316307359 355.0324555848515 L 249.2812951059899 350.60607895755436 L 247.1881320725143 346.0653005534378 L 245.33426378712625 341.4216842492593 L 243.7262008513133 336.6873275247966 L 242.36980365567308 331.8748243665993 L 241.27024524586616 326.9972254384972 L 240.4319768001137 322.06799567991874 L 239.85869589615078 317.10096950672903 L 239.5533177325502 312.1103038019161 L 239.5179494555367 307.1104288949828 L 239.75386772791285 302.11599773930965 L 240.2614996615969 297.1418335060033 L 241.04040721962244 292.202875820818 L 242.08927517735714 287.31412587760786 L 243.4059027162517 282.4905906674301 L 244.98719870671934 277.7472265668649 L 246.82918071985694 273.09888253234277 L 248.92697779073558 268.5602431492883 L 251.27483693899703 264.1457717857018 L 253.86613343557158 259.8696540994307 L 256.6933847875631 255.74574214684708 L 259.74826839680355 251.78749933797417 L 263.02164283133607 248.0079464793216 L 266.5035726332124 244.41960914083106 L 270.1833565705537 241.03446657743956 L 274.04955922688697 237.8639024288752 L 278.0900458063923 234.91865741345845 L 282.29202001993553 232.20878422293504 L 286.64206490366604 229.74360481576608 L 291.12618640958266 227.5316702958998 L 295.72985959585293 225.58072355290136 L 300.43807723385385 223.8976648274799 L 305.23540063892204 222.48852035398366 L 310.1060125226899 221.35841421839336 L 315.0337716566697 220.5115435567935 L 320.00226912945374 219.95115720530112 L 324.9948859735472 219.6795378980447 L 329.99485193245425 219.69798809507552 L 334.98530513421196 220.0068195071216 L 339.9493524341175 220.60534636892547 L 344.8701301869279 221.49188249760067 L 349.7308652073256 222.6637421570646 L 354.51493567693814 224.1172447342146 L 359.20593175666534 225.84772321717367 L 363.78771566449836 227.84953645070024 L 368.24448098138913 230.11608512879198 L 372.560810951038 232.63983146967317 L 376.7217355436865 235.41232250379616 L 380.7127870591093 238.42421689126093 L 384.52005404996515 241.66531517121783 L 388.13023335347077 245.12459333241554 L 391.53068002695886 248.79023958113677 L 394.7094549912493 252.64969417037608 L 397.65537019485936 256.6896921422987 L 400.35803112186255 260.8963088248181 L 402.80787647664204 265.25500791258105 L 404.9962148898236 269.7506919527905 L 406.9152585012752 274.3677550471554 L 408.55815328817414 279.0901375728706 L 409.9190060187244 283.9013827179192 L 410.9929077251053 288.78469461918377 L 411.7759536025948 293.72299788586827 L 412.2652592554922 298.6989982855912 L 412.4589732244037 303.695244366225 L 412.3562857436085 308.6941897831392 L 411.9574336915294 313.67825609896533 L 411.2637017117437 318.6298958213424 L 410.27741949643274 323.5316554433314 L 409.00195523862453 328.3662382512946 L 407.44170527398654 333.11656666603045 L 405.60207994721753 337.7658438848151 L 403.4894857522183 342.29761459473144 L 401.1113038091406 346.6958245312419 L 398.4758647550704 350.94487866037247 L 395.5924201384466 355.0296977681009 L 392.47111042030383 358.93577324656104 L 389.122929698009 362.6492198734635 L 385.55968727929303 366.156826388662 L 381.793966246019 369.44610368003737 L 377.8390791582334 372.50533039979297 L 373.7090210595804 375.3235958418247 L 369.4184199550838 377.8908399210062 L 364.9824849415814 380.1978901059791 L 360.41695217970164 382.23649516832023 L 355.7380289041712 383.9993556227237 L 350.9623356764099 385.4801507450533 L 346.10684708977897 386.6735620677315 L 341.1888311434798 387.57529326490004 L 336.2257875059363 388.18208635306024 L 331.235384892513 388.4917341464295 L 326.2353977856179 388.5030889199899 L 321.24364272759567 388.216067247099 L 316.2779144183341 387.6316509925352 L 311.3559218501727 386.7518844559109 L 306.49522471252163 385.5798676744481 L 301.71317029757245 384.11974590813367 L 297.0268311366126 382.37669534419297 L 292.45294359375185 380.35690507159944 L 288.00784764034506 378.0675553899198 L 283.70742802905875 375.51679253013367 L 279.56705708140373 372.71369987811266 L 275.6015392966547 369.6682658041522 L 271.8250579834279 366.39134821427473 L 268.25112410780974 362.8946359509181 L 264.8925275438562 359.1906071820504 L 261.7612909035357 355.2924849286681 L 258.8686261138102 351.2141898909983 L 256.2248938985632 346.9702907435084 L 253.83956631253812 342.5759520779811 L 251.72119246337013 338.04688018242007 L 249.87736754623504 333.39926685137027 L 248.31470530362859 328.6497314303494 L 247.03881401038075 323.8152613034571 L 246.0542760712433 318.91315103884665 L 245.36153385654316 313.96137274979003 L 244.96003841152506 308.97751867812724 L 244.84830245665614 303.97876732640054 L 245.02395186722023 298.9818535504216 L 245.4837755874534 294.0030422318124 L 246.2237739595542 289.0581051837512 L 247.23920546841188 284.16230097495986 L 248.52463191944915 279.3303573868192 L 250.07396208011437 274.57645624636064 L 251.88049382576872 269.9142204037693 L 253.9369548384167 265.35670264697904 L 256.2355419123025 260.916376368003 L 258.7679589241651 256.60512781589784 L 261.52545352820016 252.43424978978422 L 264.4988526367654 248.41443664223823 L 267.6785967478058 244.55578047871396 L 271.05477317905576 240.86776845255784 L 274.6171482674546 237.35928106772153 L 278.35519859003665 234.03859141256794 L 282.2581412599436 230.9133652582841 L 286.31421258184514 227.98962015454336 L 290.511635493954 225.27270261863916 L 294.838645721871 222.76731193303712 L 299.2835156253566 220.47752339671158 L 303.83457595086657 218.4068109797958 L 308.48023568600206 216.5580693468625 L 313.2026511331223 214.91526919322231 L 317.9867350318597 213.4618108175399 L 322.8198575266864 212.18082410800676 L 327.6915540071261 211.05540267473336 L 332.5932456968026 210.0687829002729 L 337.5179767831471 209.20447755654757 L 342.46017029283655 208.44637247624306 L 347.4154037373312 207.77879363403667 L 352.38020469781 207.18655092802103 L 357.35186592055464 206.6549639772249 L 362.32827909477294 206.16987437780364 L 367.30778623756004 205.71764809049594 L 372.28904747678416 205.28517096207918 L 377.27092397151097 204.8598398072262 L 382.25237471705725 204.42955098597193 L 387.2323660291867 203.98268799677368 L 392.2097925750477 203.50810925666974 L 397.18340890645544 202.99513694946978 L 402.15177054611337 202.43354758207084 L 407.11318377362835 201.81356469050093 L 412.06566335170356 201.12585397461217 L 417.0068975209985 200.36152100777622 L 421.934219673141 199.51211156056843 L 426.8445861843104 198.56961449108442 L 431.7345599562851 197.52646708568142 L 436.60029926785086 196.37556267962339 L 441.4421919898969 195.12813537985895 L 446.2611563961275 193.79487544590654 L 451.0585438550426 192.3859490571112 L 455.83605256549066 190.91102176344782 L 460.595651332181 189.37928432507263 L 465.3395124153948 187.79947989946493 L 470.06995254162547 186.17993174885427 L 474.78938122333363 184.52857081972033 L 479.50025560213794 182.8529626951503 L 484.2050410974227 181.16033354398982 L 488.9061772092461 179.4575947918292 L 493.6060478889908 177.7513663212908 L 498.30695595234965 176.04799807577015 L 503.01110106633047 174.35358999428252 L 507.72056089463916 172.6740102475761 L 512.4372750339313 171.01491177906937 L 517.1630314170412 169.38174718004814 L 521.8945709466493 167.76541377392314 L 526.628856458853 166.15714119474418 L 531.3630151123981 164.5484952290127 L 536.0942873513158 162.93137958650377 L 540.8199819531447 161.29803622693595 L 545.537436693001 159.64104474312944 L 550.2439841774262 157.95332119442523 L 554.9369224289098 156.2281166941523 L 559.6134898305155 154.45901597959732 L 564.2708440688873 152.6399361302447 L 568.9060447421685 150.76512554823574 L 573.516039326419 148.82916327247176 L 578.0998832902501 146.83207175848221 L 582.6583931467088 144.77781084794321 L 587.1928008540905 142.67088257597055 L 591.7047522527664 140.516284103868 L 596.1962956920536 138.31945968371133 L 600.669860890311 136.08625247950027 L 605.1282283717169 133.82285693281753 L 609.5744901033339 131.535772191502 L 614.0120022080339 129.23175693099682 L 618.4443308467484 126.9177857042027 L 622.8751925435748 124.60100677137471 L 627.3083903675315 122.28870120037718 L 631.7477474846127 119.9882429010331 L 636.2063341446702 117.7252791375678 L 640.696046430685 115.52471475795791 L 645.2271723757325 113.41073801491717 L 649.8080264551255 111.40679792017674 L 654.4446582925649 109.53552957917292 L 659.1406408882275 107.81862904005193 L 663.8969425353031 106.27668395606685 L 668.7118847307828 104.92897046493125 L 673.5811858302403 103.79322982428202 L 678.4980871023448 102.88544026696303 L 683.4535544756881 102.21960011217344 L 688.4365459767803 101.80753737418024 L 693.4343319882548 101.65875907096061 L 698.4328533245406 101.78035039752545 L 703.4170278342948 102.1778481413127 L 708.368055366505 102.87593579719561 L 713.2629352043197 103.89581391410763 L 718.0747900227482 105.25450932013722 L 722.7733944548537 106.96422169085866 L 727.3258974520659 109.03176043544708 L 731.6977118158184 111.45812379836026 L 735.8535287091187 114.23826515256502 L 739.7584018727466 117.36107887995549 L 743.3788377994287 120.80962113731438 L 746.6838258244825 124.56156118937423 L 749.6600964358091 128.57924873921596 L 752.2998406575714 132.8256296033958 L 754.6002593699627 137.2650072340643 L 756.5630098968394 141.86366033788124 L 758.1935908651293 146.59030880226388 L 759.5007032057404 151.41643119286093 L 760.4956195421896 156.31644562992807 L 761.1915872537355 161.26777160833885 L 761.603283214023 166.25079342609993 L 761.7463313613008 171.24874672995946 L 761.636888348014 176.2475488091423 L 761.2912977927281 181.23559122757632 L 760.7258101646793 186.20351068571208 L 759.9563629826037 191.14395105414036 L 758.9984146372085 196.05132662235954 L 757.866824550012 200.92159395327255 L 756.5757723595182 205.7520374361653 L 755.1387091983632 210.5410717303473 L 753.5683347420843 215.28806278438003 L 751.8765944545795 219.99316796913766 L 750.0757881965231 224.65761829269616 L 748.177385093582 229.283206434624 L 746.1920668330657 233.87216180643364 L 744.1297764215291 238.42704470926265 L 741.9997698821692 242.95065744050788 L 739.8106689873499 247.44597025190393 L 737.5705136240538 251.91606017810182 L 735.2868127920428 256.36406090987697 L 732.9665935504008 260.793122059908 L 730.6164474719324 265.2063763478297 L 728.2425743494397 269.6069134057701 L 725.8384209234761 273.9909807301195 L 723.3980940830282 278.35501612316915 L 720.916329287025 282.69562017068586 L 718.3884586319895 287.00953601958815 L 715.8103788255595 291.2936350510857 L 713.1785192676415 295.54490724507605 L 710.4898104026458 299.76045520937373 L 707.7416524811138 303.93749100504516 L 704.9318848523595 308.0733350389039 L 702.0587558981057 312.16541641788797 L 699.1208937080927 316.2112742691344 L 696.1172775907106 320.2085596253984 L 693.0472105038202 324.15503755920116 L 689.9102924825597 328.0485893217813 L 686.7063951318256 331.88721430554295 L 683.435637241269 335.66903170216085 L 680.0983615701869 339.3922817736983 L 676.6951128388355 343.0553266918716 L 673.2266169517023 346.65665093177836 L 669.6937614674125 350.1948612317921 L 666.09757731946 353.6686861516772 L 662.4392217820625 357.0769752770293 L 658.7199626663214 360.418698130585 L 654.9411637236537 363.69294286042634 L 651.1042712262574 366.8989147822348 L 647.2108016882164 370.0359348580944 L 643.2605644107712 373.10116330828896 L 639.2528806101368 376.09089081328545 L 635.1873217737615 379.0014287958534 L 631.0637070447746 381.82911363806664 L 626.882100346752 384.5703114461523 L 622.6428072465476 387.2214232903713 L 618.3463715526555 389.77889085189565 L 613.9935716466505 392.2392024131177 L 609.5854165456067 394.59889913200806 L 605.1231416939785 396.8545815450545 L 600.6082044841748 399.0029162469877 L 596.0422795059284 401.04064269894945 L 591.4272535255178 402.9645801200045 L 586.7652201969121 404.7716344199549 L 582.0584745079415 406.4588051343039 L 577.3095069656472 408.02319232494295 L 572.5209975259902 409.462003412722 L 567.6958092741077 410.77255991051004 L 562.8369818622726 411.95230402768146 L 557.9477247136348 412.99880511917337 L 553.0314100006866 413.90976595436314 L 548.0915654082102 414.6830287830192 L 543.131866691205 415.3165811774882 L 538.1561300389818 415.8085616321025 L 533.1683042572215 416.1572649025298 L 528.1724627803516 416.36114706944534 L 523.1727955270765 416.41883031249006 L 518.1734129931942 416.3402537262012 L 513.1776253185991 416.13505745341996 L 508.1880366117912 415.8125601094083 L 503.20663139622866 415.38174451270083 L 498.23485346807456 414.8512501836831 L 493.27367753424676 414.22937129385997 L 488.3236740502527 413.52405894571433 L 483.38506770556506 412.7429268363941 L 478.45779001556116 411.8932595099718 L 473.541526477596 410.9820225346059 L 468.6357587380363 410.0158740545598 L 463.7397136452957 409.00160463776257 L 458.852477937622 407.945703535557 L 453.97303142771057 406.854373266155 L 449.100276330656 405.73354421401143 L 444.23306311373125 404.58888902532226 L 439.3702132161704 403.42583663020315 L 434.51053895757053 402.2495857639752 L 429.65324414446206 401.0635473588004 L 424.7975454170647 399.87099133548253 L 419.94434447165827 398.6683107529895 L 415.0945293990837 397.45204854366614 L 410.2489821333153 396.2188933647837 L 405.4085849285749 394.96567554638915 L 400.5742259554175 393.6893631556899 L 395.74680409874816 392.38705819226874 L 390.9272330337688 391.0559929235408 L 386.1164446493909 389.6935263658835 L 381.3153918826737 388.2971409136546 L 376.52505102233044 386.8644391157476 L 371.746423534271 385.393140597308 L 366.9805374574829 383.88107912267225 L 362.2284484142791 382.32619979440835 L 357.4903178986259 380.7292905244009 L 352.76629784691613 379.09111026843266 L 348.0565315207626 377.4123901747214 L 343.3611543195749 375.6938346945093 L 338.680294528176 373.9361226551625 L 334.01407400432817 372.13990829634525 L 329.3626088106846 370.3058222699216 L 324.7260097953489 368.4344726043091 L 320.10438312491823 366.526445634069 L 315.4936390485699 364.59226904895104 L 310.88968637854055 362.64198193877223 L 306.288498691914 360.6851804995771 L 301.6861715377778 358.7310605528235 L 297.0789717901662 356.78845650526074 L 292.4633801467893 354.86587652471644 L 287.83612764350886 352.9715338231746 L 283.19422693587666 351.1133740290546 L 278.534998992149 349.29909870033873 L 273.8560957469003 347.5361850831694 L 269.1555191802443 345.83190226010134 L 264.43163721408115 344.1933238610742 L 259.68319675295663 342.6273375306244 L 254.9093341422255 341.14065135867577 L 250.1108336645601 339.7355203449106 L 245.28860100486838 338.4141301013403 L 240.44365986891611 337.1785956464757 L 235.57714852286162 336.03096011255263 L 230.69031626134694 334.97319338599175 L 225.78451981125045 334.0071906995458 L 220.86121967774736 333.1347711929731 L 215.92197643892942 332.35767645757005 L 210.9684469948947 331.67756907848855 L 206.00238077692146 331.09603118745736 L 201.0256159220797 330.6145630373041 L 196.04007541840332 330.2345816085444 L 191.04776322553874 329.95741925724894 L 186.05076037559846 329.7843224124235 L 181.0512210587755 329.7164503302288 L 176.05136869811523 329.7548739115292 L 171.05349201769022 329.9005745884803 L 166.0599411082819 330.1544432851473 L 161.0731234945356 330.51727945648304 L 156.09550020742398 330.98979020938106 L 151.12958186572567 331.57258950895545 L 146.17792477010013 332.2661974726794 L 141.2462877833845 333.09018571971825 L 136.3430289292959 334.0689873389455 L 131.4786967282495 335.2258245089322 L 126.66622105502704 336.5823192175994 L 121.92101187146125 338.15806977025767 L 117.2609513148541 339.97020541881 L 112.70626822439306 342.0329370895487 L 108.2792894735823 344.3571270860571 L 104.00406931817703 346.949904095909 L 99.90590595621023 349.8143511732056 L 96.01076294133222 352.94929310147904 L 92.34462108953952 356.3492054418981 L 88.93279307567843 360.00426079084053 L 85.79923710355351 363.90051886360214 L 82.96590717005752 368.02025689992865 L 80.45217523505566 372.34242669749005 L 78.27435522313047 376.8432155167592 L 76.44535083657706 381.4966812095486 L 74.97443960995213 386.2754279242625 L 73.86719561718157 391.15128792435206 L 73.12554386489231 396.09597726528403 L 72.74793158933952 401.0816977718259 L 72.72959602717357 406.08166415242886 L 73.04788540023864 411.071523055744 L 73.67902311307121 416.0315296270542 L 74.59878052258668 420.9462062499503 L 75.783015670063 425.80394102198983 L 77.20808684186694 430.59655744261994 L 78.85115433619522 435.3188798806881 L 80.69038603828163 439.96831282955833 L 82.70508291020087 444.544446188004 L 84.8732965616351 449.0498706476675 L 87.17455257363005 453.48881430210344 L 89.5897884579962 457.86678593550516 L 92.10126060147056 462.1902692155182 L 94.69243127421048 466.4664631475952 L 97.34784428480033 470.7030634052535 L 100.05299576830568 474.9080789166742 L 102.79420489610564 479.0896781941835 L 105.55848796519084 483.25606021147007 L 108.33343831603881 487.4153450719153 L 111.10711379360913 491.5754802073556 L 113.86793295817516 495.7441583600276 L 116.60458092831387 499.92874410864545 L 119.30592555904083 504.1362061923775 L 121.96094459026537 508.3730533626015 L 124.55866441497429 512.6452719562966 L 127.08811118632669 516.9582638448694 L 129.53827508342414 521.3167838777889 L 131.89808866283332 525.7248764211047 L 134.15642031265958 530.1858110943982 L 136.30208387299345 534.7020183400697 L 138.32386546495457 539.2750260149382 L 140.21056845420733 543.9053987677893 L 141.9510772387598 548.5926825410311 L 143.53444017351788 553.3353570836108 L 144.94997141033303 558.130799849154 L 146.18737073721715 562.9752650317955 L 147.23685965331168 567.8638817088315 L 148.0893309444979 572.7906750572178 L 148.73650797659423 577.748614335701 L 149.17110886921654 582.7296907318358 L 149.38700974397818 587.7250272382463 L 149.37940046084424 592.7250214481239 L 149.14492577656722 597.7195205844171 L 148.68180478221512 602.6980262783568 L 147.98992188328836 607.6499247076638 L 147.07088351832022 612.5647358417478 L 145.92803626183428 617.4323738878994 L 144.57756967432704 622.246544636432 L 143.0363893887692 627.0030941555065 L 141.32192869365122 631.6999680653422 L 139.45197022452072 636.3371283303889 L 137.44448407163293 640.9164295157187 L 135.31748712139435 645.4414581315041 L 133.08892664687787 649.9173399676815 L 130.77658922451042 654.3505211781803 L 128.39803415111984 658.7485293367503 L 125.97054881815885 663.1197208171432 L 123.51112208751346 667.4730207329067 L 121.03643068942705 671.8176613951752 L 118.56283307487016 676.1629248902073 L 116.10636501533476 680.517895001756 L 113.68273153582801 684.8912233403345 L 111.30729044978425 689.2909141984215 L 108.9978257927124 693.7255926532519 L 106.77889879187408 698.2062581133092 L 104.67523929757193 702.7421832374744 L 102.71177204342487 707.3405303689872 L 100.91357218103822 712.0059861082384 L 99.30574169105245 716.7404217784606 L 97.91320130765149 721.5425912132679 L 96.76039655658633 726.4078806400051 L 95.87092146800317 731.3281279982982 L 95.26706939522718 736.2915303267624 L 94.96932685780838 741.2826573920064 L 94.99583292066546 746.282587134376 L 95.36183261088455 751.2691735646666 L 96.07915741940445 756.2174505495454 L 97.15576818555787 761.100165906619 L 98.59539491357219 765.8884301938099 L 100.39730392928234 770.5524546254678 L 102.55621530787774 775.0623439433305 L 105.06238325621796 779.3889040335999 L 107.90184015622685 783.5044215603506 L 111.05679263804136 787.3833743620088 L 114.50614682435184 791.0030367354053 L 118.22613108696552 794.3439523413293 L 122.1909792168818 797.3902581872186 L 126.37363523841557 800.1298546183608 L 130.7464430493034 802.5544271268741 L 135.28178902134334 804.6593349428844 L 139.95267271575253 806.4433880568085 L 144.73318890062112 807.9085382218801 L 149.5989121123893 809.0595106917768 L 154.52757591330857 809.9011003408982 L 159.4984239695765 810.4402381725307 L 164.49239851130898 810.685632297415 L 169.49225243578968 810.6474127493419 L 174.48259466487994 810.3367933092574 L 179.44987972033584 809.7657598795491 L 184.38235282281775 808.9467915692388 L 189.26996138817316 807.8926177164685 L 194.10424282844156 806.6160116862945 L 198.87819728194 805.1296204605661 L 203.58615247532055 803.4458277485255 L 208.22362649557323 801.5766475240738 L 212.78719291443716 799.5336444549089 L 217.27435151803544 797.3278775437975 L 221.68340687828353 794.9698633728758 L 226.01335616599465 792.4695555586557 L 230.26378694054054 789.8363373316959 L 234.43478514069412 787.0790245068035 L 238.5268531248498 784.2058764749319 L 242.54083734393288 781.2246132042776 L 246.47786505551184 778.1424365710751 L 250.3392893834441 774.9660546419532 L 254.12664197691885 771.7017077956913 L 257.84159251184246 768.3551958021268 L 261.4859142946287 764.931905171241 L 265.0614552644768 761.4368362487536 L 268.5701137381074 757.8746296691993 L 272.01381829536984 754.2495918870114 L 275.39451126126346 750.5657195941167 L 278.714135296971 746.8267229022817 L 281.97462266762733 743.0360472229614 L 285.1778868065362 739.1968938193605 L 288.32581584371263 735.3122390371564 L 291.4202678106347 731.3848522438277 L 294.4630672728637 727.4173125234646 L 297.456003177841 723.412024185692 L 300.40082773691165 719.3712311550736 L 303.2992561887511 715.2970303120164 L 306.1529673162039 711.1913838585268 L 308.96360461043315 707.0561307828025 L 311.73277799555615 702.8929974960669 L 314.462066043946 698.7036077136622 L 317.1530186274145 694.489491650533 L 319.8071599628576 690.2520945991 L 322.4259920229066 685.9927849553596 L 325.01099829294066 681.7128617569967 L 327.56364786570737 677.4135617955316 L 330.0853998739799 673.096066363134 L 332.57770827035233 668.7615076938608 L 335.04202697161884 664.4109751588039 L 337.4798153933748 660.0455212750992 L 339.89254440868217 655.6661675900568 L 342.28170277301336 651.2739105039852 L 344.6488040663862 646.8697270987542 L 346.99399869869376 642.4538396300119 L 349.31688459456666 638.0261764636504 L 351.61707130567703 633.5866786210976 L 353.8941796177895 629.135299314084 L 356.14784117627755 624.672003493752 L 358.37769812901615 620.1967674139096 L 360.583402785637 615.7095782082084 L 362.7646172922038 611.2104334810027 L 364.92101332042864 606.6993409116293 L 367.0522717706132 602.1763178718343 L 369.1580824875516 597.6413910560601 L 371.23814398868564 593.0945961242977 L 373.29216320384916 588.5359773571996 L 375.3198552259845 583.9655873231469 L 377.3209430722528 579.3834865569571 L 379.29515745499964 574.7897432499192 L 381.24223656207147 570.18443295084 L 383.1619258460119 565.5676382777876 L 385.05397782169547 560.9394486402175 L 386.918151871986 556.2999599711696 L 388.7542140610316 551.6492744692293 L 390.56193695483205 546.987500349945 L 392.3410994487383 542.3147516064025 L 394.091486601561 537.6311477786612 L 395.81288947598796 532.936813731758 L 397.5051049850255 528.2318794419965 L 399.1679357441959 523.5164797912398 L 400.8011899292383 518.7907543689325 L 402.4046811390756 514.0548472815865 L 403.9782282638207 509.3089069694664 L 405.52165535761117 504.55308603022223 L 407.0347915160688 499.7875410492187 L 408.51747075819526 495.01243243632126 L 409.9695319125213 490.2279242689024 L 411.3908185073392 485.43418414084056 L 412.7811786648546 480.63138301728844 L 414.14046499910336 475.8196950949971 L 415.46853451748547 470.99929766798505 L 416.76524852577654 466.17037099835113 L 418.0304725364824 461.3330981920342 L 419.2640761804098 456.4876650793301 L 420.4659331213311 451.63426009998216 L 421.63592097362715 446.77307419266697 L 422.77392122279684 441.9043006887042 L 423.8798191487275 437.0281352098241 L 424.95350375162377 432.144775569832 L 425.9948676804983 427.254421680016 L 427.0038071641301 422.35727545814666 L 427.9802219444014 417.45354074092677 L 428.92401521192727 412.5434231997499 L 429.8350935438945 407.6271302596354 L 430.71336684403167 402.7048710212098 L 431.5587482846331 397.7768561856105 L 432.37115425056436 392.84329798219187 L 433.15050428517753 387.9044100989181 L 433.8967210380697 382.96040761533226 L 434.60973021461837 378.01150693799417 L 435.2894605272309 373.05792573828467 L 435.9358436482477 368.099882892477 L 436.54881416444005 363.13759842398076 L 437.1283095330465 358.1712934476665 L 437.67427003929333 353.2011901161835 L 438.18663875534645 348.22751156818606 L 438.6653615006439 343.25048187838763 L 439.11038680356 338.2703260093646 L 439.52166586435436 333.28726976503503 L 439.8991525193592 328.3015397457406 L 440.24280320636143 323.3133633048634 L 440.552576931137 318.3229685069102 L 440.8284352350957 313.3305840870025 L 441.07034216399677 308.3364394117103 L 441.2782642376975 303.3407644411715 L 441.4521704208966 298.3437896924415 L 441.59203209483707 293.34574620401895 L 441.69782302993326 288.3468655014965 L 441.7695193592889 283.3473795642869 L 441.8070995530733 278.34752079337795 L 441.81054439372423 273.3475219800708 L 441.7798369519476 268.34761627565797 L 441.714962563483 263.34803716200037 L 441.6159088066089 258.3490184229628 L 441.4826654803575 253.35079411667064 L 441.31522458341476 248.35359854855136 L 441.113580293678 243.35766624512524 L 440.8777289484477 238.3632319285131 L 440.6076690252283 233.3705304916284 L 440.30340112311484 228.37979697402363 L 439.96492794474347 223.39126653836192 L 439.59225427878346 218.40517444748554 L 439.1853869829495 213.4217560420553 L 438.74433496751465 208.44124671873496 L 438.26910917930286 203.46388190889647 L 437.75972258614365 198.48989705782287 L 437.21619016176885 193.51952760438652 L 436.6385288711348 188.55300896118152 L 436.02675765615174 183.5905764950901 L 435.38089742180495 178.6324655082636 L 434.70097102264987 173.67891121949964 L 433.9870032496669 168.73014874599764 L 433.2390208174605 163.78641308547628 L 432.4570523517877 158.8479390986365 L 431.64112837740186 153.91496149195487 L 430.79128130619887 148.9877148007928 L 429.9022897603199 144.06738005289648 L 428.94873474400976 139.15914892234957 L 427.905602436288 134.26917192970564 L 426.7485602326513 129.40488849439848 L 425.4542584485826 124.57531471488578 L 424.0006596158883 119.79127349081698 L 422.3673933649267 115.0655522386196 L 420.53613039301285 110.41297489614617 L 418.4909643457987 105.85037740794687 L 416.2187860522978 101.39647958665108 L 413.7096309862412 97.071651167571 L 410.9569786136372 92.8975758309728 L 407.95798189400875 88.89682356725316 L 404.713606936455 85.09234842148103 L 401.2286667378043 81.50693466407054 L 397.5117388254172 78.16261905484384 L 393.57496397569435 75.08011945507262 L 389.43373122583523 72.27830016905602 L 385.10626225158546 69.7737019424125 L 380.6131149623502 67.58015973009066 L 375.97663112790065 65.7085247088091 L 371.22035551951313 64.16649930789707 L 366.3684542681313 62.958586129378304 L 361.4451580827077 62.08614434301481 L 356.47425207008166 61.547541136898985 L 351.47862876077505 61.338381505247185 L 346.47991523885554 61.45179722628839 L 341.4981796206829 61.8787752475378 L 336.5517170294626 62.608506591018596 L 331.65691101192226 63.628738942324226 L 326.8281632139266 64.92611888025759 L 322.0778820983609 66.48651284432556 L 317.4165204621933 68.2952990939596 L 312.852651328298 70.33762583781767 L 308.39307225483304 72.59863324327068 L 304.04292902073865 75.063639093743 L 299.8058508285417 77.71828942725381 L 295.68409046417185 80.54867659135519 L 291.67866415252905 83.54142784429946 L 287.7894870665148 86.6837679903724 L 284.0090220466849 89.95608891501325 L 280.328601653852 93.34053949553878 L 276.73871385804097 96.82087074607901 L 273.2292347302006 100.38226882144949 L 269.7896156346743 104.01118332549765 L 266.4090321538107 107.6951560899073 L 263.07650147350955 111.42265381155 L 259.7809743467584 115.1829065898679 L 256.5114071169146 118.96575341858454 L 253.25681867807535 122.76149499221333 L 250.00633670800798 126.56075373073944 L 246.74923704521467 130.35434065957497 L 243.474979699786 134.1331286710816 L 240.17324468364302 137.8879317129435 L 236.83397060941806 141.60938958012528 L 233.44739882346042 145.28785822054562 L 230.00412568756536 148.91330579451815 L 226.49516548154728 152.4752151522337 L 222.91647059731943 155.96705462815487 L 219.26632713283138 159.38413711013493 L 215.54337756740466 162.72174801215584 L 211.7466204101877 165.97515162823572 L 207.8754094287484 169.13959874221692 L 203.92945242910596 172.21033535693542 L 199.90880955788012 175.18261241368177 L 195.81389109764388 178.0516963796919 L 191.64545472780856 180.8128805877146 L 187.40460222528813 183.4614972175548 L 183.09277558163947 185.9929298149434 L 178.71175251623694 188.40262624819204 L 174.26364136820928 190.68611200790062 L 169.75087535325716 192.8390037595438 L 165.17620617500486 194.85702306310571 L 160.5426969841546 196.73601017809773 L 155.85371468235553 198.4719378763085 L 151.1129215713228 200.06092518852483 L 146.32426635130764 201.49925101524892 L 141.49581707249465 202.79774150883378 L 136.63587845869506 203.97289965568027 L 131.75161992612846 205.042487701168 L 126.84916231101214 206.02529456519983 L 121.93371258005665 206.94091126581728 L 117.00973820793531 207.80951726550427 L 112.08117203420667 208.65167845623785 L 107.15163798709494 209.48815563964826 L 102.22468796804893 210.33972096880535 L 97.30404032478793 211.22697897574025 L 92.39381062432876 212.170188543508 L 87.4987258301314 213.18908248186358 L 82.62431348585497 214.30268218461387 L 77.77705814247071 215.52910610644219 L 72.96451808910697 216.8853723910522 L 68.19539652363488 218.38719777828902 L 63.47956268190024 220.04879676033923 L 58.828020165591454 221.88268667496652 L 54.25282175955808 223.8995058402438 L 49.76693235161408 226.10785278302606 L 45.384044049620165 228.51415495279713 L 41.11835007167862 231.12257495090964 L 36.98428627126144 233.93496121422416 L 32.996251044063314 236.95084831864747 L 29.168315657286698 240.16750973612108 L 25.513937599056543 243.58006318002873 L 22.045689287802286 247.1816258480219 L 18.775013413367848 250.96351417588042 L 15.712014392819853 254.9154803953871 L 12.865293078068344 259.0259764428416 L 10.241829165434787 263.28243472398447 L 7.8469129685569925 267.6715549558684 L 5.684125557690114 272.1795867453965 L 3.7553639385099635 276.7925986266274 L 2.060906086283069 281.49672581315485 L 0.5995093478267091 286.27839075047837 L -0.6242083684733772 291.12632999832516 L -1.6073662132701032 296.0287172384577 L -2.3487700831327207 300.9734437528114 L -2.8488276445855965 305.94837515286446 L -3.1094346169216025 310.94157893460317 L -3.133838962495293 315.94151937704015 L -2.9264898285496965 320.93721816065914 L -2.4928778323102976 325.91838073948725 L -1.8393726862227024 330.8754898793022 L -0.9826266962032348 335.8015416764909 L 0.06129900157928225 340.6913493554809 L 1.277046965403786 345.54129336427695 L 2.6500348563817324 350.3490895591284 L 4.166493681107463 355.1135782654758 L 5.8134799533084625 359.83453539503984 L 7.578867898521507 364.5125056175719 L 9.451326860946365 369.1486567620057 L 11.420288161106768 373.74465408559837 L 13.475904830501118 378.3025527361289 L 15.609006930754884 382.824706584672 L 17.811054553259837 387.3136915777657 L 20.07409008640796 391.77224181026384 L 22.39069092227407 396.20319662466494 L 24.75392344176815 400.6094571774246 L 27.157298855063782 404.9939510618731 L 29.59473127110025 409.35960372983175 L 32.06049821569512 413.7093156024669 L 34.54920370306034 418.0459439007141 L 37.05574388236473 422.37228835412196 L 39.57527522277455 426.69108006300223 L 42.10318516164224 431.0049728921038 L 44.63506511673825 435.31653686507036 L 47.16668575105119 439.62825310850764 L 49.69397437487372 443.94250996362155 L 52.21299437240886 448.2615999432374 L 54.71992654722765 452.5877172637522 L 57.211052291226686 456.92295572634976 L 59.68273849421939 461.2693067607159 L 62.13142412512634 465.6286574785396 L 64.55360843025792 470.00278861420236 L 66.94584070888237 474.3933722570803 L 69.30471164070217 478.80196930455645 L 71.62684615363482 483.23002658781814 L 73.90889783304965 487.6788736443576 L 76.14754488500049 492.1497191322706 L 78.33948767566012 496.643646902326 L 80.48144787674215 501.16161176462634 L 82.57016925180754 505.7044350076488 L 84.60242012060849 510.2727997485881 L 86.57499753762528 514.8672462151252 L 88.48473321632174 519.4881670797921 L 90.32850122202683 524.135802988632 L 92.10322744344799 528.8102384453476 L 93.8059008354198 533.5113982299403 L 95.43358640349317 538.2390445461832 L 96.9860266679693 542.9919309560644 L 98.4629488299253 547.7688233483549 L 99.86407982029537 552.568493331575 L 101.18916152782589 557.3897129354065 L 102.43796612345177 562.2312506128333 L 103.61031138649331 567.0918685348905 L 104.7060759261128 571.9703211659727 L 105.725214180222 576.8653551003812 L 106.66777106401332 581.7757101303986 L 107.53389613200429 586.7001215029991 L 108.32385711140608 591.6373233067562 L 109.03805266117647 596.5860529130985 L 109.67504078499371 601.5453115401632 L 110.233638396813 606.5140104350521 L 110.71293565527715 611.4909848310108 L 111.11230923019275 616.4750093842869 L 111.4314342050045 621.4648149166148"
        fill="none"
        stroke="#1B5E20"
        stroke-width="2"
        stroke-linecap="round"
        stroke-linejoin="round"/>

  <circle cx="150" cy="150" r="2.5"
          fill="limegreen"/>

  <circle cx="111.4314342050045" cy="621.4648149166148" r="2.5"
          fill="red"/>

</svg>