<?xml version="1.0" encoding="UTF-8"?>
<svg xmlns="http://www.w3.org/2000/svg"
     width="800" height="800"
     viewBox="0 0 800 800">

  <rect x="0" y="0"
        width="800"
        height="800"
        fill="white"/>

  <text x="10"
        y="22"
        font-family="Arial"
        font-size="14"
        fill="#444">
        MeanderGen - Development Preview
        </text>
  <path d="M 150 150 L 154.99987815352696 150.0349063014898 L 159.99941919933062 150.10265090514662 L 164.99871018739753 150.18685076638639 L 169.99777234519465 150.2836884784669 L 174.9966648699518 150.38891930060123 L 179.9954727853002 150.4980954218465 L 184.99429271445487 150.60672007782335 L 189.99321862344067 150.71035287413127 L 194.99233764994077 150.80420892819612 L 199.99171086539857 150.88337617245108 L 204.9913577409457 150.94279939881906 L 209.99123772195367 150.9774429482285 L 214.99123526158021 150.98240316279055 L 219.99114872457392 150.95298611715006 L 224.9906832419478 150.88476141790534 L 229.98944739297644 150.77359954318698 L 234.98711147981675 150.62078045044456 L 239.98351500552863 150.4311708297664 L 244.9787067902239 150.21194712184956 L 249.97293170679552 149.9717024909101 L 254.96658341485158 149.71982430878867 L 259.9601397392313 149.4660621460306 L 264.9540927236379 149.22022970403847 L 269.94888115964426 148.99200069725447 L 274.944830158087 148.79077046851276 L 279.942100078348 148.62556349512934 L 284.94064565749767 148.50497289365762 L 289.94047199636594 148.4633005868004 L 294.940275975987 148.50757434161667 L 299.93840629569985 148.64429781131787 L 304.9328736790651 148.8794478836131 L 309.92136628244026 149.2184781861991 L 314.9012690100444 149.6663272942708 L 319.86968556652664 150.22743060140178 L 324.8234622094408 150.90573508474108 L 329.75921229543417 151.70471636650956 L 334.67334084258516 152.6273975801884 L 339.56206845515294 153.67636961514333 L 344.4214540744566 154.8538123538378 L 349.24741612944865 156.16151654201528 L 354.03575176186587 157.60090595121744 L 358.7821538930331 159.17305950900084 L 363.4822259821852 160.87873308761243 L 368.1314943996212 162.71838065783663 L 372.72541840246765 164.6921745315913 L 377.259397756929 166.80002443452994 L 381.7287780994929 169.04159516807889 L 386.128854171636 171.41632263862235 L 390.4548710992615 173.9234280496288 L 394.7148989307126 176.54109167875725 L 398.9051826758331 179.2690070248373 L 403.0219074206512 182.10671338304326 L 407.06119432724273 185.05360348724432 L 411.0190957523125 188.10892937975245 L 414.89158964207684 191.27180640450985 L 418.67457338203576 194.5412152231201 L 422.363857302658 197.91600175756022 L 425.9551580662337 201.39487496961334 L 429.44409218640214 204.97640239588335 L 432.8261699601705 208.6590033696765 L 436.09681410575485 212.44091913724125 L 439.25147172837495 216.3201117444786 L 442.28564030899173 220.29425580633617 L 445.19488137918484 224.36074279088461 L 447.97483411494443 228.51668585918367 L 450.6212288039893 232.75892526188068 L 453.1299001436299 237.08403429052558 L 455.4968003286063 241.48832577887632 L 457.71801189072903 245.96785914701772 L 459.7897602545158 250.51844797893244 L 461.70842597532123 255.13566812224445 L 463.4705566268938 259.81486629787116 L 465.0728783002023 264.55116920786816 L 466.5123066821474 269.339493124778 L 467.7859576854221 274.1745539436155 L 468.8911576027091 279.05087767598076 L 469.8254527603224 283.9628113643015 L 470.5866186483106 288.9045343928577 L 471.17266850594103 293.8700701710363 L 471.58186134336864 298.85329816319137 L 471.81270938216454 303.8479662385477 L 471.8639848992273 308.8477033137698 L 471.7347264604275 313.8460322601277 L 471.42424453213647 318.836383046616 L 470.9321264605653 323.81210608991665 L 470.2582408105812 328.7664857817394 L 469.40274105737836 333.6927541638183 L 468.3660686260564 338.5841047206826 L 467.148955275794 343.433706260254 L 465.7524248269058 348.2347168523406 L 464.1777942306269 352.9802977952034 L 462.4266739829841 357.66362758054794 L 460.5009678855846 362.27791582755185 L 458.4028721575805 366.81641715685987 L 456.13487390444595 371.2724449758685 L 453.6997489505413 375.63938514707195 L 451.10116808460873 379.9110800663293 L 448.3434335639609 384.08179946634016 L 445.43129272407265 388.1462103373835 L 442.369805935936 392.09934816018506 L 439.16425283282837 395.9365905688892 L 435.8200654686521 399.6536338660925 L 432.3427804266353 403.2464724008121 L 428.7380042681703 406.7113806026787 L 425.0113883823917 410.0448973702775 L 421.16861047197716 413.2438124881307 L 417.2153607352302 416.30515476218466 L 413.157331352973 419.2261815564366 L 409.0002083365112 422.0043694957243 L 404.74966507325513 424.6374061394473 L 400.4113571022963 427.123182466697 L 395.99091778887987 429.4597860437726 L 391.493954662166 431.64549477024457 L 386.9260462474359 433.6787711200402 L 382.29273927069426 435.5582568101366 L 377.59954614652685 437.2827678420722 L 372.8519426833245 438.8512898713052 L 368.0553659565138 440.2629738670415 L 363.2152123122892 441.51713203103014 L 358.33756485722336 442.6164751549408 L 353.427608912464 443.5611087455578 L 348.49013580528185 444.3493722267955 L 343.52986710562055 444.9784464888347 L 338.5516626233268 445.4447941407752 L 333.56065186422177 445.7444799804434 L 328.5623143352662 445.8734061090383 L 323.56252520214537 445.8274863493794 L 318.56757716130835 445.602777494773 L 313.58418574393085 445.19557977718586 L 308.6194828835711 444.60251527113627 L 303.681003671407 443.8205798063933 L 298.7767296469952 442.8468774424854 L 293.9151420561683 441.67855980728586 L 289.1052495900704 440.3129337733459 L 284.3566025033288 438.74757411959837 L 279.6792915228236 436.9804402843597 L 275.0839300541378 435.0099954178085 L 270.5816185043798 432.83532516489305 L 266.18389005312144 430.45625297830577 L 261.9026378924689 427.87344831342926 L 257.7500247820097 425.0885238342301 L 253.7383766662065 422.1041177970139 L 249.8800629923902 418.92395811636226 L 246.18736719687348 415.55290520046594 L 242.6723515019681 411.9969714743444 L 239.34672060793557 408.2633165416201 L 236.22168902430073 404.3602180799765 L 233.30785664128751 400.2970197284677 L 230.6150967029622 396.08405830987505 L 228.15245964823748 391.7325736509688 L 225.928095398318 387.25460495035463 L 223.94919566915246 382.66287805713586 L 222.22195685932 377.9706881532841 L 220.75156308591627 373.1917821957311 L 219.54218807744982 368.34024511054906 L 218.5970139279487 363.4303931955607 L 217.91826419354922 358.4766775398077 L 217.50724847500166 353.4935995673988 L 217.36441546372797 348.49564011069145 L 217.48941141083478 343.49720275355605 L 217.88114107705806 338.51257158679954 L 218.53782840455867 333.55588299925444 L 219.45707438838932 328.6411106931134 L 220.63590989053614 323.78206275561797 L 222.07084141311333 318.99238932984935 L 223.7578881168721 314.2855991901324 L 225.6926086309484 309.6750833261089 L 227.8701164506076 305.1741434581121 L 230.28498185295624 300.79596745793356 L 232.93103013840985 296.55351198132007 L 235.80139824452937 292.45949354763275 L 238.88851606629046 288.52633914504884 L 242.18408973834778 284.76612716006144 L 245.6790962445813 281.190525179781 L 249.36378945692502 277.81072697117327 L 253.22771722916752 274.6373908448083 L 257.2597487261548 271.6805814144759 L 261.448110780798 268.94971647837514 L 265.78043176233456 266.45352038973584 L 270.24379123031207 264.19998488754925 L 274.824773539227 262.1963379412515 L 279.50952353222164 260.44902071099915 L 284.28380255231554 258.9636723214651 L 289.1330431710788 257.7451217803152 L 294.04240127653907 256.79738606169343 L 298.9968044582004 256.123673130584 L 303.9809959604383 255.72638851092216 L 308.9795737268383 255.60713955599226 L 313.9770278384599 255.76667764622792 L 318.95778940235175 256.2048719452068 L 323.906282437031 256.92070480679604 L 328.806976041392 257.91227033472404 L 333.6444366515284 259.1767761059163 L 338.4033801902413 260.7105480561562 L 343.06872391529765 262.50903851403405 L 347.62563777475003 264.56683735685874 L 352.05959508076563 266.8776862503243 L 356.35642231735 269.4344959223466 L 360.5023479017377 272.2293664110669 L 364.48404972024196 275.2536102220915 L 368.2887012641957 278.49777831716455 L 371.90401619756614 281.95168884474754 L 375.3182911937705 285.6044585131353 L 378.5204468857284 289.44453649729934 L 381.50006678021947 293.4597407616367 L 384.24743399515376 297.6372966722505 L 386.7535656863712 301.9638777643226 L 389.0102450390383 306.42564852258056 L 391.01005070757077 311.00830902583687 L 392.7463835972467 315.6971413001062 L 394.2134908902552 320.47705721890657 L 395.4064872288122 325.3326477840376 L 396.32137297813523 330.2482336154198 L 396.9550495024647 335.20791647448584 L 397.3053313979147 340.1956316421473 L 397.37095563669544 345.19520096952783 L 397.1515875881321 350.1903864174636 L 396.6478238928775 355.16494389922457 L 395.86119217773813 360.10267724001335 L 394.7941476095678 364.98749206654855 L 393.45006629769557 369.8034494404334 L 391.83323556530405 374.534819050049 L 389.9029738000571 379.1472034136538 L 387.6671226122505 383.619447756932 L 385.1350118601981 387.93087619068115 L 382.3174366785679 392.0614052240934 L 379.2266248961392 395.99165744571985 L 375.8761911898097 399.70307145920464 L 372.28107645173463 403.17800311609744 L 368.45748915075876 406.3998318129428 L 364.42283430498986 409.353060601153 L 360.1956322899384 412.023409477975 L 355.79542940166493 414.3979019589128 L 351.24269817142425 416.4649380846715 L 346.5587393608999 418.21437509734477 L 341.76557185167565 419.6375916053003 L 336.88581688272563 420.72754180737746 L 331.9425778801645 421.47879952850803 L 326.9593164584653 421.8875850505178 L 321.95972872582087 421.95179177595554 L 316.9676192433577 421.6710019700481 L 312.0067741308479 421.0464895444813 L 307.10083481688116 420.0812126683076 L 302.2731860541268 418.77974909852287 L 297.54693127467135 417.1480273821526 L 292.9448341311218 415.1933658049651 L 288.4892147120629 412.92456533059425 L 284.20182326769253 410.35196458373525 L 280.10368549467506 407.48748089668663 L 276.2149366178632 404.34461084320134 L 272.554661615602 400.9383831779062 L 269.14074106786796 397.2852822357258 L 265.98970204490456 393.40314969345445 L 263.1166138100441 389.31103972490445 L 260.5349886022807 385.0290762399316 L 258.256725851507 380.5782876762682 L 256.292084758878 375.98044194406344 L 254.64968001778183 371.2578889622087 L 253.33650961863998 366.4334114254367 L 252.3579983805236 361.5300946136368 L 251.7180526871757 356.5712167658202 L 251.41913818417729 351.58015975152983 L 251.46139324694622 346.58033830375086 L 251.84301558061065 341.5949231360393 L 252.56031454436086 336.6466424046536 L 253.60790514767976 331.75761858308783 L 254.97888385304273 326.94924906843517 L 256.6649831171633 322.2421194471551 L 258.656712294051 317.65594294750593 L 260.94346080679037 313.2095082814522 L 263.5136203132522 308.92065294332946 L 266.3546552416841 304.8062246069223 L 269.4532113029505 300.8820749748122 L 272.79516848516147 297.1630264147275 L 276.36573658669965 293.6628773561476 L 280.14950140450156 290.3943725292329 L 284.1305072009847 287.36921255852593 L 288.29230496210937 284.5980324136242 L 292.6180169708742 282.09040093806243 L 297.09039767688006 279.8548225295636 L 301.6918832233844 277.89872162078836 L 306.40465158975155 276.2284478932307 L 311.2105733393815 274.84891313961475 L 316.0913806892625 273.7636852311332 L 321.02879901890464 272.9750787144763 L 326.0046476603258 272.48423220316477 L 331.00091958937037 272.29118606608546 L 335.9998431886919 272.39493021361426 L 340.9843970490269 272.7876423389931 L 345.9394116649058 273.45684347200665 L 350.8521232292653 274.38703973377505 L 355.71236224909967 275.5609548372129 L 360.512512860235 276.96043835280614 L 365.24733845001487 278.5671202237332 L 369.91373797150584 280.3628695118659 L 374.51047457374574 282.33010427407095 L 379.072817666477 284.37583776214 L 383.605844280683 286.48573579638247 L 388.1149958329976 288.646187665381 L 392.6059171956821 290.84428350364277 L 397.0843127462927 293.06778823542794 L 401.55583831087296 295.30507657744056 L 406.02600527957856 297.5450782006305 L 410.5000940294565 299.77723631739013 L 414.98308190739624 301.99146749011015 L 419.4796006665592 304.17809023957926 L 424.0050677850321 306.30415405791126 L 428.5626688556598 308.3604304209066 L 433.1549783402266 310.33797779024013 L 437.7624043021111 312.2800452467802 L 442.3877459289309 314.1790488895383 L 447.0334394823674 316.02770553898904 L 451.70155173536904 317.8189978080997 L 456.3937672110582 319.5461671482927 L 461.1095422312943 321.20793306397314 L 465.8470137949673 322.8067961548566 L 470.6036056419233 324.3478457976235 L 475.37641200035614 325.8379194417442 L 480.18600320529276 327.20460610714935 L 485.0269013355464 328.4558875672959 L 489.8941636056407 329.6003341558777 L 494.78278502154257 330.64980099765285 L 499.6878619619092 331.6194505266494 L 504.6054585413659 332.52346594782085 L 509.5323800089516 333.37519645229014 L 514.465990662746 334.18728383475946 L 519.4040619149957 334.97179151968317 L 524.3446436516551 335.7403304603932 L 529.2836810232263 336.51873256870385 L 534.2199898400121 337.31425457677375 L 539.1478445442654 338.16056894730576 L 544.0662220977655 339.060325715119 L 548.9744196768835 340.0140534143812 L 553.8719218125514 341.0212638348637 L 558.7582895925184 342.0811741701754 L 563.6330692373749 343.1931649138835 L 568.501745923582 344.331579304685 L 573.3637258419323 345.49826318370253 L 578.2182476387009 346.69560111624236 L 583.0643748809191 347.9264750952632 L 587.9009742975562 349.1942708528618 L 592.726730730351 350.5027336346554 L 597.540128430919 351.85595297244475 L 602.339431237337 353.25834113993227 L 607.1226622323512 354.7146039075448 L 611.8875835314155 356.2297029187395 L 616.6316769469634 357.80880952203 L 621.352086069725 359.45736577334463 L 626.0455991841251 361.1810057139805 L 630.708635432342 362.98547044010155 L 635.337235480166 364.87651819129235 L 639.927058124496 366.85983059572965 L 644.4733840025804 368.9409170932739 L 648.9711276752635 371.1250191638831 L 653.414859138403 373.41701625888635 L 657.7988354885564 375.8213355723919 L 662.1139465341495 378.34716546852513 L 666.3484588038091 381.0059068696588 L 670.4876971301525 383.8106717577965 L 674.515273710689 386.7735465253007 L 678.4135430775334 389.9046000131099 L 682.164068426931 393.21119336632506 L 685.7481081524228 396.69754665394476 L 689.147113584834 400.3645293469009 L 692.3432174465783 404.2096457437013 L 695.3196874916879 408.2271855469348 L 698.0613205040497 412.4085069200808 L 700.554757325523 416.7424165658073 L 702.765254864257 421.22724662181287 L 704.6840043045336 425.8444319749732 L 706.3047622935163 430.57445771921056 L 707.6237529716526 435.3973472670843 L 708.6395007787293 440.29308586227285 L 709.352615543267 445.2419713259503 L 709.7655496626396 450.22489069245205 L 709.8823441988038 455.22352640995757 L 709.7083771783173 460.2204990410396 L 709.2501238437643 465.19945514461904 L 708.514935408259 470.1451095971965 L 707.5108432133717 475.04325198632387 L 706.2463840322931 479.8807247748144 L 704.7355491418829 484.6469998333815 L 702.9954054671169 489.3344191650791 L 701.0444621560908 493.93809380575067 L 698.9015817707649 498.45562229533266 L 696.5852818273675 502.88673440993966 L 694.1133105508958 507.23292331613084 L 691.5024112999232 511.4971002708632 L 688.7682139148488 515.6832876364086 L 685.9252092166338 519.7963551396144 L 682.9867761237152 523.8417983734815 L 679.965240412058 527.8255556380724 L 676.8719506167504 531.753857846692 L 673.7173618321141 535.6331064337055 L 670.5107357617195 539.469452252928 L 667.2589073627431 543.2675586315871 L 663.9683330487957 547.0321463493046 L 660.6451119277943 550.7679463146308 L 657.2950077116842 554.4796577448475 L 653.9234706392734 558.1719114968747 L 650.5356588406095 561.8492381368176 L 647.1559642501027 565.5340263905574 L 643.7867599964553 569.228408977297 L 640.428333944883 572.932592349664 L 637.0809884433833 576.6467918722516 L 633.744970540794 580.3711689414545 L 630.4204241353634 584.1057895645082 L 627.1073513815352 587.8505924869384 L 623.805581116711 591.6053645330582 L 620.514742803556 595.3697214763715 L 617.2342450082471 599.1430932066644 L 613.9632578092251 602.9247122704827 L 610.6973931688979 606.7107561359259 L 607.4300009917941 610.4954818011494 L 604.1530974232963 614.2719752809221 L 600.8580276075343 618.0326288024863 L 597.5359391894771 621.7694360684034 L 594.1781198685336 625.4741694471904 L 590.7762370860672 629.1384829619376 L 587.3225072678043 632.7539705282891 L 583.809814335842 636.3121987904643 L 580.2317915591789 639.8047269592383 L 576.582876676469 643.2231213453118 L 572.8583608443848 646.5589843245953 L 569.0374891223584 649.7840330504006 L 565.1198059161892 652.8907609586829 L 561.1056470282866 655.8717890401797 L 556.9949534303246 658.7182250826148 L 552.7885449193773 661.4212099954528 L 548.4883977714862 663.9724321548275 L 544.09756468643 666.3642065629138 L 539.6200789752352 668.5895428759337 L 535.0608467694833 670.6422001035377 L 530.4255311832935 672.516726554785 L 525.7204323120981 674.2084844016044 L 520.9523672420881 675.7136606331972 L 516.1285521066427 677.0292622214628 L 511.25648960978594 678.1530980754565 L 506.34386427061384 679.08374960902 L 501.39844698850226 679.820531738141 L 496.42801000609666 680.3634462838428 L 491.4402528489202 680.7131297707773 L 486.44273937867285 680.870797505893 L 481.4428457331174 680.8381856501647 L 476.44771864178193 680.6174927834777 L 471.46424340044774 680.2113222293885 L 466.4990206512481 679.6226261695833 L 461.55835103939705 678.8546523506732 L 456.64822679124217 677.9108939771044 L 451.774329270687 676.7950431989417 L 446.94203161199204 675.5109484447389 L 442.1564055876684 674.0625757180844 L 437.4222319431658 672.4539738706104 L 432.7440135092971 670.6892437821801 L 428.125990484169 668.7725113179622 L 423.572157355336 666.7079038892381 L 419.0862810075232 664.49953041717 L 414.6719196299723 662.1514644836011 L 410.33244209930336 659.6677304477552 L 406.0710475683138 657.052292310224 L 401.8907850382683 654.3090451139441 L 397.79457273214456 651.4418086843554 L 393.78521711933024 648.4543235262341 L 389.86543146884577 645.350248711695 L 386.0378538287964 642.1331616116316 L 382.30284009726324 638.8090568561736 L 378.6589988628372 635.3852547213684 L 375.1036194953321 631.8696783030382 L 371.6330149988856 628.2703860907768 L 368.2427953959829 624.5952791475581 L 364.92808451117685 620.8519261385369 L 361.68369103519285 617.0474667849635 L 358.50443970678333 613.1884045943781 L 355.3861908550476 609.2798851689884 L 352.32483973721276 605.3266422807595 L 349.3163433035789 601.3330287279965 L 346.35664137901153 597.3031199799339 L 343.44171625850726 593.2407054833748 L 340.56755463499815 589.1493493558851 L 337.7301500807248 585.0324165904165 L 334.9255361280516 580.8930759935978 L 332.1498128865714 576.7343068864332 L 329.39916840991225 572.558908107511 L 326.6703011329886 568.369244232576 L 323.96027579531557 564.1673681433546 L 321.26817932407056 559.9539827361659 L 318.5943968832761 555.728951676008 L 315.9401199457677 551.4916395634759 L 313.3070171861147 547.2411372570293 L 310.69701885254904 542.9764088132964 L 308.1121795580182 538.6963847688021 L 305.55459479393096 534.4000188422883 L 303.02635398951907 530.0863199150442 L 300.52951823069594 525.7543675614902 L 298.06611248253995 521.4033180191439 L 295.638127510422 517.0324040443361 L 293.24751965750386 512.6409357143164 L 290.89620961712984 508.22830145641143 L 288.5853132060839 503.79436891549307 L 286.3154196346335 499.33930627010994 L 284.08678085278876 494.86346342433694 L 281.89943921132897 490.3672943279243 L 279.75331232120755 485.85130724075304 L 277.63355792306925 481.3228813231109 L 275.5387432526776 476.78286463848167 L 273.4673969300975 472.2320927905493 L 271.4180261289106 467.6713823942138 L 269.38621713310823 463.1028211103328 L 267.3656227026272 458.52928876131534 L 265.34871366152595 453.95412997500813 L 263.32726855158126 449.38097355219895 L 261.29276819313316 444.8136101671074 L 259.23667064101113 440.2559284256781 L 257.12684104465984 435.72286995767223 L 254.95557731394425 431.21891460579775 L 252.71575462497455 426.74865797759657 L 250.4009122992131 422.316784219595 L 248.00533792230533 417.92802318660364 L 245.52413492194592 413.58709797750276 L 243.02548633931403 409.25619099853037 L 240.5044507836111 404.93827718201186 L 237.95781576543644 400.6354118478181 L 235.38369701203516 396.3489316316748 L 232.78125341437578 392.07958890462635 L 230.15048309048052 387.82764258524367 L 227.49207591430965 383.5929204827105 L 224.80730507753069 379.3748633998842 L 222.09794545945846 375.17255802545463 L 219.36621030044924 370.98476349598775 L 216.54513987305452 366.8566208575026 L 213.64016597537588 362.7870844399477 L 210.65713678756572 358.7744124044242 L 207.6022530733543 354.81616967656555 L 204.48202000471622 350.9092341002631 L 201.30319254981822 347.04982274463043 L 198.0727182371124 343.2335371532539 L 194.79770354430983 339.45540550362506 L 191.48539071393824 335.7099304050887 L 188.14310559556358 331.99117655635234 L 184.7782678050192 328.2928165626086 L 181.39833841892394 324.6082436775906 L 178.01084106225215 320.9306273764328 L 174.62332012639817 317.25303279448786 L 171.2433528572917 313.56849466064136 L 167.8991369857022 309.85147701147577 L 164.5941862397662 306.09950412152347 L 161.33231214873405 302.3100216483811 L 158.11757328926362 298.48047153571633 L 154.9542247062366 294.6083628411855 L 151.84666747242716 290.69133743424743 L 148.79939812624403 286.727229775289 L 145.81695816779936 282.7141197725265 L 142.90388356755588 278.65037810093656 L 140.06465472789085 274.5347032357395 L 137.3036471999208 270.36614983791765 L 134.62497394823217 266.1442178618328 L 132.0324682978782 261.8688331478119 L 129.52966680229628 257.5403247819066 L 127.11979288540094 253.15939934261095 L 124.8057419999858 248.7271122919215 L 122.59006892236295 244.24483688615967 L 120.47497767502976 239.71423107507275 L 118.46231443743673 235.137202924401 L 116.5535636761007 230.51587513564817 L 114.74984760173871 225.8525492492139 L 113.05192894814597 221.1496701049256 L 111.46449875882183 216.4083553722779 L 109.99439067682246 211.6293615213465 L 108.64937405695956 206.8136652796497 L 107.43784581441902 201.96266545306483 L 106.36819658375896 197.07842031964367 L 105.44823909095201 192.16378114556096 L 104.68496760140144 187.22238289878513 L 104.08441137265648 182.25858070529316 L 103.65236843375975 177.27728178844933 L 103.39406343600221 172.28395839334127 L 103.31393797101097 167.2846004435781 L 103.41553211057844 162.28563268705022 L 103.73378854474682 157.2957716827626 L 104.29019724593626 152.32682719150083 L 105.10426412076473 147.39354277609286 L 106.19293427431751 142.51350206962704 L 107.57003433332092 137.7068821109146 L 109.24577287243528 132.99605412121608 L 111.22634041361225 128.40504636530494 L 113.51364653260963 123.95889851373757 L 116.10522138983717 119.68294952440361 L 118.99429392033252 115.60210893531695 L 122.17004153158277 111.7401629090708 L 125.61798957345471 108.11916107248587 L 129.32052590056531 104.7589193034421 L 133.25733534305903 101.67646388389548 L 137.40607923614385 98.88577864374543 L 141.743181283397 96.39789885731831 L 146.244399200493 94.22096586275605 L 150.88532641270078 92.36037600709481 L 155.64181175940678 90.81899768021623 L 160.4902935815469 89.59743146409166 L 165.40805104011855 88.69429161962528 L 170.37337990871566 88.10649129070735 L 175.36570260311083 87.82951816019312 L 180.36562322971295 87.85769133322316 L 185.35493836948203 88.18439369940862 L 190.31661354560626 88.80227673577758 L 195.23473418814172 89.7034367357036 L 200.09443862303368 90.87956292174462 L 204.88183932737036 92.32205884760259 L 209.5839375066976 94.02213905511267 L 214.18853501275515 95.97090322945714 L 218.68414674876414 98.15939017688414 L 223.05991600214293 100.5786139038645 L 227.3055345873943 103.21958395832708 L 231.41350323516204 106.06995123097063 L 235.37883383287644 109.11562902923328 L 239.19856807631672 112.34202489916146 L 242.87145621363047 115.73464818075051 L 246.3976573047033 119.27949033031328 L 249.7784722189551 122.96325070736994 L 253.0161131893057 126.7734581750949 L 256.11351176450415 130.6985214951394 L 259.0741592373964 134.72773562959006 L 261.9019772464302 138.85125903897966 L 264.6012122577498 143.0600748289218 L 267.17635326066 147.34594099751956 L 269.6320632601556 151.70133861408425 L 271.89877905404984 156.15801893801486 L 273.9790279902477 160.70472811756966 L 275.87573495547844 165.33101201374868 L 277.59216755612175 170.0271656662018 L 279.1318904443469 174.78418715316985 L 280.49873440401467 179.59373365881044 L 281.69676987438345 184.4480833590008 L 282.7302845103826 189.34010211378654 L 283.60376975846435 194.26321327659645 L 284.32189425172123 199.21137426954974 L 284.9378076864177 204.17329432543136 L 285.45484819589103 209.14648938611052 L 285.82693146088087 214.13262556996216 L 286.05535022949897 219.1274053314875 L 286.1413989583608 224.1266648382806 L 286.0863712689079 229.12636202445032 L 285.8915595442527 234.12256542222516 L 285.5582552682003 239.11144387931 L 285.08775000252996 244.0892571336393 L 284.48135593837407 249.05234954049178 L 283.7404016277336 253.997143440094 L 282.8662235566685 258.9201316281835 L 281.86019426703604 263.8178765243987 L 280.8054554603159 268.7053632046464 L 279.7027391990286 273.5822491831262 L 278.5527253931081 278.44819906430996 L 277.2839847375833 283.2845507005145 L 275.89804487381343 288.088629248375 L 274.39649901750715 292.85783883083303 L 272.7810212528048 297.58967056830556 L 271.13223387793056 302.309998967099 L 269.4510959892099 307.018902809726 L 267.7386123290784 311.716497908687 L 265.9965304118024 316.40319723694563 L 264.2271365958872 321.07965375061076 L 262.43310578940105 325.7467142243328 L 260.617399479886 330.40538469964946 L 258.78319591111637 335.0568035442938 L 256.93384194763246 339.70221955556195 L 255.07281930389343 344.34297323567586 L 253.2037200058146 348.9804798732907 L 251.33022750025202 353.6162134540307 L 249.37869945303257 358.2196402516366 L 247.35384599458908 362.791288583675 L 245.26049353442446 367.3319796629627 L 243.10359006980124 371.84282963212553 L 240.88818646183861 376.32523823173204 L 238.6194100172527 380.78086988667076 L 236.3679456761201 385.2452744741391 L 234.13845130997518 389.72069120013543 L 231.93557074193575 394.2092675003618 L 229.68877507209814 398.6760235064583 L 227.40237660401468 403.1226381788968 L 225.08196982157176 407.55160107826646 L 222.73320018414904 411.965588073073 L 220.3617529687644 416.367432925478 L 217.97333518053512 420.7600927653552 L 215.5736980050556 425.14663370623975 L 213.16860373406075 429.53018495467154 L 210.76381748673015 433.9139051903446 L 208.38812095576716 438.31345812135595 L 206.0469453164932 442.7314776579889 L 203.74567518313637 447.17041399153993 L 201.50765427850138 451.64157294984335 L 199.33389156642505 456.1443227398702 L 197.22569352498653 460.678140228265 L 195.18462015831406 465.24257004061405 L 193.21244272466134 469.83718821519517 L 191.31110310803263 474.4615700833196 L 189.48267499019175 479.11526223234375 L 187.7293268341561 483.7977583875719 L 186.05317121805925 488.5084379935976 L 184.45623915751668 493.2465608280133 L 182.9404563976397 498.01126466192153 L 181.50753136188445 502.8015387503121 L 180.15896266344666 507.61624148938057 L 178.89604522952823 512.4541170102167 L 177.71987539051142 517.3138108801829 L 176.63135523636666 522.1938850470394 L 175.6311964981983 527.092832127634 L 174.71992417176057 532.0090891130924 L 173.89788006232396 536.9410505365162 L 173.1652269637013 541.8870812114188 L 172.52195350261445 546.845528473845 L 171.96787965640047 551.8147338603169 L 171.50266337187426 556.7930441970287 L 171.1258080891856 561.7788219794725 L 170.83667099222396 566.7704549526748 L 170.634471824401 571.7663648294171 L 170.5183021254179 576.7650151073459 L 170.49698104546982 581.7649696482943 L 170.57939585699285 586.7642903820381 L 170.77435065737436 591.7604881989593 L 171.09053291459617 596.7504810627034 L 171.53646889015582 601.7305554703505 L 172.1204681165726 606.696332841875 L 172.85055748811078 611.6427426014448 L 173.73607271635495 616.5637041721693 L 174.7859268483628 621.4522424303306 L 176.00843556617713 626.3004866934498 L 177.41114477885264 631.0996956766755 L 179.00065840667895 635.8403123482652 L 180.78247358016145 640.5120502141506 L 182.76083078929474 645.1040108796038 L 184.938586604345 649.6048307615825 L 187.3171160570412 654.0028527763816 L 189.89625059042223 658.2863169187226 L 192.67425571639794 662.443562102742 L 195.64785020772715 666.4632307210658 L 198.81226640251515 670.3344669766001 L 202.1613487146037 674.0471004983547 L 205.68768530967043 677.5918078513379 L 209.38276625586423 680.960246184019 L 213.23716042296024 684.1451552258372 L 217.24070303173704 687.1404259280791 L 221.3826860070496 689.9411360223625 L 225.6520440577398 692.5435544812209 L 230.03753054623 694.9451181924869 L 234.52787855871603 697.1443850536847 L 239.1119439919281 699.1409681609032 L 243.7788288101588 700.9354558575363 L 248.51798380794463 702.5293221966506 L 253.3192911873426 703.9248319417039 L 258.17312800446933 705.1249436667965 L 263.07041206332343 706.1332138919313 L 268.0026321584198 706.9537045582571 L 272.9618647235038 707.5908955542778 L 277.94077896713327 708.0496034728753 L 282.9326325018653 708.3349073245549 L 287.9312593331897 708.4520815587705 L 292.9310518931928 708.4065364499463 L 297.92693860280383 708.2037656810185 L 302.9143582407672 707.8493007957943 L 307.88923219807293 707.3486720821538 L 312.847935510571 706.7073753812261 L 317.78726739404993 705.9308442840713 L 322.7044218571158 705.0244271690788 L 327.59695883813015 703.9933685434871 L 332.46277620254887 702.8427941755641 L 337.3000828448827 701.5776995356129 L 342.10737306344276 700.2029411006372 L 346.8834023141554 698.7232301165807 L 351.6271644001384 697.1431284516268 L 356.33787011462476 695.4670462127419 L 361.0146479585897 693.6985018965885 L 365.6567528486024 691.8408522552082 L 370.2635916427523 689.8973923701795 L 374.83635312848213 687.8750540219731 L 379.3757135691072 685.7788176827002 L 383.8825177210531 683.6134732906916 L 388.3577526685722 681.3836140654256 L 392.80253250393866 679.093650699972 L 397.21808369293655 676.747822978817 L 401.6057239160921 674.3501963873421 L 405.9668577366113 671.904687892259 L 410.3029521056879 669.415052251756 L 414.6155372677697 666.884912093624 L 418.906184539129 664.3177451740847 L 423.1323327056068 661.6457287678895 L 427.2940993317063 658.8745018645335 L 431.39182329127465 656.0094262370535 L 435.42602147136375 653.0555736605417 L 439.3973751013764 650.0177536616961 L 443.30669456448754 646.9005078684773 L 447.1549033373235 643.7081279974926 L 450.9430150055969 640.4446620502686 L 454.6721096770474 637.1139184499054 L 458.34332212906475 633.7194819529074 L 461.9578193580617 630.2647157116729 L 465.51678272176366 626.7527675662944 L 469.05154147869274 623.2164586812685 L 472.56095609109155 619.6549970321304 L 476.0440831701236 616.0678218550148 L 479.5001469075793 612.454565229387 L 482.92851270375405 608.8150174597295 L 486.3286626405835 605.1490959647873 L 489.70017253799705 601.4568173984218 L 493.04269037625147 597.73827272329 L 496.3559158426055 593.9936049130426 L 499.6395843791661 590.2229921058185 L 502.89353995527506 586.4267079872745 L 506.11760984260764 582.6050102805484 L 509.31161003634935 578.7581462639268 L 512.4753494534089 574.8863568971167 L 515.6086322651171 570.9898791515297 L 518.7112171765352 567.0689141086557 L 521.7827955948746 563.1236123432654 L 524.8229938686709 559.1540790638979 L 527.831374953089 555.1603786180814 L 530.8074396543384 551.1425385398829 L 533.7506275778996 547.1005532793206 L 536.6603174567846 543.0343874183756 L 539.5358275376009 538.9439789088103 L 542.37641602307 534.8292423368995 L 545.1812815759824 530.690072223207 L 547.94956389849 526.5263463697326 L 550.680344614298 522.3379294036018 L 553.3726485776133 518.1246765783945 L 556.0254456071119 513.8864378026431 L 558.6376526449314 509.62306186430897 L 561.2081363410507 505.33440081824983 L 563.7357160625768 501.0203145011567 L 566.2191673277376 496.68067513669666 L 568.657225660762 492.3153719897468 L 571.0485908599044 487.9243160251375 L 573.3919316666731 483.50744452334663 L 575.6858908198797 479.064725603201 L 577.9290904724675 474.5961625994346 L 580.120137942867 470.1017982414352 L 582.2576317666078 465.5817185791427 L 584.3401680082031 461.03605660287985 L 586.3663467880151 456.4649955059091 L 588.3347789740172 451.86877154170645 L 590.2440929842085 447.24767643226676 L 592.0929416420005 442.60205928913274 L 593.8800090243097 437.93232801516353 L 595.6040172404074 433.2389501621852 L 597.2637330788888 428.5224532274365 L 598.8579744604525 423.7834243799499 L 600.3856166355547 419.02250961649855 L 601.8455980684076 414.24041235528307 L 603.2369259521959 409.4378914839288 L 604.5586813047058 404.615758886404 L 605.7714236286445 399.765062435818 L 606.8729206583128 394.8879009361717 L 607.8611395478316 389.9865313901776 L 608.7342531433881 385.0633543012182 L 609.4906441905755 380.12089817255765 L 610.1289074621944 375.16180349750834 L 610.6478470094819 370.1888062376799 L 611.0494314614424 365.2049593371478 L 611.3377521031506 360.21327913830044 L 611.5182808544236 355.2165392641461 L 611.6810915828839 350.21919070048773 L 611.8315983556378 345.221456442711 L 611.975351758954 340.223523374028 L 612.1440377858873 335.226369681743 L 612.3425539367345 330.23031210222564 L 612.5755301010586 325.23574284083213 L 612.847274712721 320.2431328154013 L 613.1617372161654 315.25303127996864 L 613.5224809983041 310.26606186722427 L 613.9326666800598 305.2829155010734 L 614.3950445288286 300.3043407326313 L 614.8802087369046 295.32793483166205 L 615.3930226241886 290.3543021635804 L 615.9378882474448 285.38407868242854 L 616.5186407937019 280.41792056170624 L 617.1385735416324 275.456501068452 L 617.8004612686796 270.5005042326192 L 618.5065825019369 265.5506160718682 L 619.2587409639735 260.6075140450042 L 620.0582865223796 255.67185533516283 L 620.9061358943934 250.7442644996352 L 621.802793297405 245.82532096452275 L 622.7485175282111 240.9155749752412 L 623.7433181606602 236.01553704664528 L 624.7869540179494 231.12566749855094 L 625.8789343283293 226.24636642137372 L 627.0185223280658 221.3779643025203 L 628.2047410858554 216.520713530873 L 629.4363813292406 211.67478097759968 L 630.7073667731177 206.839018783131 L 632.0098972488445 202.0116577690983 L 633.3358250829009 197.19067079764997 L 634.6766309431692 192.3738004812443 L 636.0233979752959 187.5585934699958 L 637.3667847671693 182.74244231711242 L 638.6969979425274 177.9226360027359 L 640.003765493725 173.09642024221122 L 641.2763123250542 168.26106869738285 L 642.5033398911161 163.4139661244921 L 643.6730122727972 158.5527043006924 L 644.7729733839174 153.6751961711222 L 645.7903833305164 148.7798027241599 L 646.7119710479046 143.8654689871047 L 647.5241072718028 138.93186637300693 L 648.2129017044898 133.9795374027648 L 648.7643276619957 129.0100374869394 L 649.1643764404192 124.02606708425023 L 649.3992420518887 119.03158631598721 L 649.4527734041035 114.03187288476637 L 649.3095079619899 109.03392580490488 L 648.9550697233934 104.04650427318926 L 648.3765226237424 99.08008873947831 L 647.5627219087785 94.14676041102456 L 646.5046411678779 89.25999612923897 L 645.1956512529421 84.43438265501665 L 643.6317285369132 79.68526213240521 L 641.8115741301522 75.02832773995902 L 639.7366324611936 70.47919407843406 L 637.411006176418 66.05296968471416 L 634.8412735699033 61.763858549407125 L 632.0362225158401 57.624814144704594 L 629.0065211517576 53.64726343547706 L 625.7643489175443 49.8409109552545 L 622.3230119973905 46.21362544099098 L 618.6965651127938 42.7714047924562 L 614.8994576957715 39.518409977889995 L 610.9462175897772 36.45705526724983 L 606.8511803816474 33.58814079239494 L 602.6282678762495 30.911013606071094 L 598.2908154657086 28.42374470498836 L 593.8504126041757 26.12530557651658 L 589.3175651362259 24.015022696829444 L 584.702077640241 22.092192705798624 L 580.013257308156 20.355827567520762 L 575.2600074189602 18.80450055787395 L 570.4508558063137 17.436267841345007 L 565.593948195065 16.24864481369934 L 560.6970255905678 15.238620553809845 L 555.7673975657862 14.402697389106653 L 550.8123069605541 13.734059150638876 L 545.8384077785267 13.223836721665396 L 540.8515169688885 12.862007960031 L 535.8565362337047 12.638027034185567 L 530.8574727985855 12.54125528389365 L 525.8575127703136 12.561248174714036 L 520.8591180905413 12.687939236843278 L 515.8641297844542 12.911751260769526 L 510.8738677794786 13.223656890241726 L 505.88925671598014 13.615642279828007 L 500.91103408855 14.081796194048264 L 495.9397005662346 14.616439074766497 L 490.9755534118047 15.214137183485123 L 486.0187177229642 15.869713230818297 L 481.06917520813084 16.57825320418389 L 476.12679031137986 17.33510955275185 L 471.19133360882563 18.135901121896 L 466.26250249356707 18.97651032792393 L 461.33993924124644 19.853078081667167 L 456.4232466023473 20.76199694195956 L 451.5120007181957 21.699900916470675 L 446.6057605604236 22.663647519196086 L 441.70407579976984 23.65030171757289 L 436.8064933451871 24.657121513049287 L 431.91256274889867 25.6815449209779 L 427.0218406383912 26.72117814370296 L 422.1338943097472 27.77378475982091 L 417.2483045961502 28.837275780185298 L 412.36466810926174 29.90970044603908 L 407.4825989382841 30.989237666235738 L 402.60172988103125 32.07418800885572 L 397.72171327467197 33.16296618720885 L 392.84222149322943 34.254094023364885 L 387.96294716890503 35.34619386678071 L 383.08360318571556 36.437982442335745 L 378.20392248662006 37.528265100583184 L 373.3236577291164 38.61593044280382 L 368.4425808190388 39.69994529413538 L 363.56048234785135 40.77934999934506 L 358.677170954973 41.85325401748856 L 353.7924726334807 42.92083179358272 L 348.9062299948183 43.98131888738324 L 344.0183015058083 45.034008341269946 L 339.12856070921686 46.078247270897286 L 334.23689543733695 47.11343366371944 L 329.3432070264954 48.13901337178466 L 324.4475753916756 49.15527657398748 L 319.55017852564094 50.16299872644497 L 314.6512409667382 51.16320410234138 L 309.7510018323438 52.15701315127854 L 304.8496957703661 53.1455468567337 L 299.94754227868884 54.12986953961591 L 295.0447403445244 55.11095730039654 L 290.1414663934656 56.08968328905096 L 285.2378742389335 57.066813772666734 L 280.33409618893813 58.04301090254556 L 275.4302447738618 59.01883942172981 L 270.5264140156748 59.99477174267186 L 265.62256331944496 60.97060387428373 L 260.718570466375 61.94572135286724 L 255.8142669066839 62.91927494379138 L 250.90469780106386 63.86591700768943 L 245.9898719255477 64.78487653528401"
        fill="none"
        stroke="#1B5E20"
        stroke-width="2"
        stroke-linecap="round"
        stroke-linejoin="round"/>

  <circle cx="150" cy="150" r="2.5"
          fill="limegreen"/>

  <circle cx="245.9898719255477" cy="64.78487653528401" r="2.5"
          fill="red"/>

</svg>