<?xml version="1.0" encoding="UTF-8"?>
<svg xmlns="http://www.w3.org/2000/svg"
     width="800" height="800"
     viewBox="0 0 800 800">

  <rect x="0" y="0"
        width="800"
        height="800"
        fill="white"/>

  <text x="10"
        y="22"
        font-family="Arial"
        font-size="14"
        fill="#444">
        MeanderGen - Development Preview
        </text>
  <path d="M 150 150 L 154.99987815352696 150.0349063014898 L 159.999476849063 150.09825362656667 L 164.99874285083183 150.18392417902294 L 169.99769801792374 150.28613590733792 L 174.99641427202098 150.39943114564926 L 179.99499237940654 150.5186658065744 L 184.9935441560357 150.638999244809 L 189.99217774448675 150.7558848658621 L 194.99101978535361 150.86348714493664 L 199.990157550288 150.9563397550617 L 204.9896327118124 151.0287835905515 L 209.98941405159925 151.07554419704002 L 214.98938787073672 151.09172467724872 L 219.98935205607938 151.07279995028026 L 224.98901346354734 151.01461223099489 L 229.9879883103153 150.91336756999425 L 234.98627739541047 150.78257681413334 L 239.9841010093686 150.63506707288727 L 244.9817877576567 150.48299088808 L 249.97968038599078 150.3378382937394 L 254.9780573596731 150.21045058254887 L 259.9770689152499 150.11103495394903 L 264.9766862910292 150.0491795111317 L 269.9766628476701 150.0338683047465 L 274.9765058074366 150.07349629578894 L 279.9754573685007 150.17588423518848 L 284.97248398757006 150.34829353978827 L 289.9662726693496 150.59744129059192 L 294.95523315445996 150.92951549616575 L 299.9375049579335 151.35019075846722 L 304.9109682776822 151.86464445620373 L 309.8732578655098 152.47757352757964 L 314.82177903122096 153.1932118947099 L 319.7537250318247 154.01534853002602 L 324.66609518127024 154.9473461238191 L 329.55571310004086 155.99216027400917 L 334.4192446067607 157.1523590859132 L 339.2532148343449 158.43014304215524 L 344.05402422992944 159.82736498131408 L 348.81796316988357 161.34555000837386 L 353.54122498792 162.98591515012725 L 358.21991727524596 164.7493885637392 L 362.85007136667605 166.63662810593118 L 367.42764997573676 168.6480390728571 L 371.94855298534543 170.7837909258848 L 376.4086214391173 173.0438328254231 L 380.80363981238173 175.42790780299157 L 385.1293366722986 177.9355654104223 L 389.38138386385805 180.56617269406453 L 393.55539438383727 183.31892335097172 L 397.64691912879414 186.19284493330582 L 401.6514427266591 189.18680397680367 L 405.56437868513325 192.2995089395138 L 409.3810641144766 195.5295108487142 L 413.09675430778987 198.8752015677311 L 416.7066174887625 202.3348096112323 L 420.2057300650446 205.90639345856172 L 423.58907275455783 209.58783234102563 L 426.85156935112997 213.37677889084065 L 429.9881940204934 217.27056698003358 L 432.99399207662975 221.26621186487094 L 435.86409641129944 225.36041521938452 L 438.5937437739358 229.54957089513263 L 441.1782908479997 233.82977140701846 L 443.6132300718125 238.19681514120956 L 445.8942051538587 242.64621427761935 L 448.0170262345823 247.1732034160242 L 449.9776846487868 251.77274889169993 L 451.77236724488677 256.4395587634706 L 453.39747021944675 261.16809345426816 L 454.8496124276755 265.9525770217058 L 456.1256481328135 270.787009033764 L 457.22267915965995 275.6651770224803 L 458.1380664198162 280.5806694865111 L 458.8694407785822 285.5268894115993 L 459.4147132358123 290.497068276327 L 459.77208439542113 295.4842805090558 L 459.94005320061586 300.4814583606518 L 459.9174249143167 305.48140715645553 L 459.7033183266033 310.4768208899813 L 459.2971721733889 315.4602981200115 L 458.69875075286825 320.4243581320845 L 457.90814872860676 325.3614573248528 L 456.92579511042925 330.2640057814061 L 455.75245640652645 335.12438398540667 L 454.38923894241833 339.9349596417653 L 452.837590344593 344.6881045615912 L 451.0993001887746 349.3762115712684 L 449.17649981485926 353.9917114057469 L 447.0716613125943 358.52708954647375 L 444.78759568405343 362.9749029648309 L 442.327450190886 367.3277967324811 L 439.694704896181 371.5785204606489 L 436.89316841258966 375.7199445310752 L 433.9269728700889 379.7450760821737 L 430.80056811844423 383.6470747147841 L 427.5205083759181 387.4208272352151 L 424.093390586383 391.0615501931799 L 420.5258444078061 394.56477931268114 L 416.824523071312 397.92635935248586 L 412.9960950239622 401.1424343961167 L 409.0472362756429 404.2094385672619 L 404.98462337723964 407.1240871631869 L 400.8149269636081 409.88336819601926 L 396.54480580074295 412.484534329593 L 392.1809012820204 414.9250951978101 L 387.7298323234654 417.2028100891405 L 383.1981906126903 419.31568098088076 L 378.5925361704929 421.26194590608156 L 373.91939318810716 423.0400726355862 L 369.18524610679185 424.648752657366 L 364.3965359098388 426.08689543525617 L 359.5596566002086 427.3536229292623 L 354.68095183986935 428.4482643597972 L 349.7667117295478 429.370351198499 L 344.82316971001467 430.1196123686596 L 339.85649956823613 430.6959696387324 L 334.87281253374493 431.0995331928903 L 329.87815445243194 431.3305973631434 L 324.87864605180255 431.4007097874069 L 319.8795764466384 431.30425729794246 L 314.88677596737796 431.0360346771654 L 309.9065966424396 430.59127194102825 L 304.94588982748 429.96566192191614 L 300.01202205213986 429.155138155787 L 295.1129359450325 428.1556606347051 L 290.2571859646448 426.9633133161922 L 285.4539624528446 425.57441306934584 L 280.7131015053515 423.98562816366007 L 276.0450782521121 422.19410397816443 L 271.4609814459406 420.1975929034021 L 266.9724677696054 417.9945847378812 L 262.5916949937212 415.58443331399263 L 258.3312340308607 412.9674747006513 L 254.20396098916686 410.14513219143885 L 250.22293145937473 407.1200034531993 L 246.40124037953066 403.895925710613 L 242.75187180760645 400.47801567284847 L 239.28754369141072 396.8726820262444 L 236.0205531721876 393.0876096428802 L 232.9626280376141 389.13171608119984 L 230.12478963540485 385.0150823589765 L 227.51723189656295 380.74886123969475 L 225.14922016203593 376.345167287438 L 223.02901235109545 371.8169536398252 L 221.1638037615714 367.17788078875185 L 219.55969555799953 362.44218264895943 L 218.22168587685846 357.62453487300354 L 217.15368152825545 352.7399298008032 L 216.3585275427826 347.8035616885787 L 215.83805131529644 342.83072502359346 L 215.5931178247979 337.8367278684849 L 215.62369233450988 332.8368213494232 L 215.92890706110867 327.84614564660825 L 216.50712850524462 322.87969218749464 L 217.35602241673067 317.9522811911354 L 218.4726136921291 313.07855326236216 L 219.85333884269022 308.2729733745018 L 221.49408900831403 303.54984529091087 L 223.39024181906578 298.92333423847856 L 225.53687622910766 294.4075883743245 L 227.9287994834203 290.0168363720499 L 230.56000015244078 285.7651563465369 L 233.42360707126124 281.6664058766396 L 236.51186175993018 277.73414406212186 L 239.8161054996029 273.9815485191898 L 243.32678158978962 270.4213303531512 L 247.03345263502547 267.065650129648 L 250.92483204943147 263.9260376928754 L 254.9888283689004 261.0133183594444 L 259.2126004618644 258.3375475720452 L 263.58262136045875 255.90795555982407 L 268.08474821234614 253.7329029605717 L 272.70429578485107 251.81984775348437 L 277.42611103084727 250.1753232682066 L 282.23464643371886 248.80492650838457 L 287.1140301634986 247.7133155806449 L 292.04813147117835 246.9042146687968 L 297.0206201958201 246.38042474591663 L 302.01501973399695 246.14383807457077 L 307.0147533013266 246.19545450332274 L 312.00318378381553 246.53539761823336 L 316.96364812607914 247.16292730608208 L 321.8795034053211 248.0763641531322 L 326.73418761828066 249.27304338853375 L 331.51128002642486 250.7493184726732 L 336.1945612896891 252.50056848599462 L 340.76807314673727 254.52120929856866 L 345.2161774018189 256.8047084853266 L 349.5236139813661 259.3436039367343 L 353.67555782747837 262.12952609981255 L 357.6576744003667 265.15322376987285 L 361.45617356763626 268.40459333918557 L 365.05786166495625 271.8727113950804 L 368.45019152015897 275.54587054675085 L 371.6213102410921 279.4116183473384 L 374.56010457658425 283.4567991657542 L 377.2562436696289 287.66759885120075 L 379.70021903230537 292.02959202251935 L 381.8833815829975 296.52779180434936 L 383.79797559808304 301.14670182267605 L 385.4371694424178 305.87037026369677 L 386.79455338153855 310.6825952004404 L 387.86352672981354 315.56698830303543 L 388.6383372945052 320.506590370899 L 389.1141398593769 325.48390007788544 L 389.287058091226 330.480909111807 L 389.15424947417955 335.47914498771746 L 388.71397267992097 340.4597229004137 L 387.965656548214 345.4034080610026 L 386.90992506463743 350.2906804121802 L 385.5486702872835 355.1018118208128 L 383.88513884630504 359.81696432575643 L 381.92390335649725 364.4162637673582 L 379.670980663707 368.8799325879934 L 377.1337966139615 373.1883774463752 L 374.32122047284656 377.3223120673424 L 371.2436039409014 381.2629054848745 L 367.91269339030356 384.9918510334064 L 364.34165516240574 388.49152044277815 L 360.5450597787775 391.74511284088413 L 356.5388198514882 394.73677486139934 L 352.3400669449453 397.4516365576552 L 347.9671497695856 399.87601181273516 L 343.4395429405921 401.9975151481206 L 338.7777426917144 403.80517065721637 L 334.0031260570037 405.2894334343364 L 329.13784776871137 406.4422851930075 L 324.20473071017733 407.2573656103902 L 319.2271237839802 407.7300486842084 L 314.2287481330807 407.85748828753344 L 309.23354147439346 407.63860375859997 L 304.2655207794915 407.07400622493014 L 299.3487024734654 406.16576740968037 L 294.5070675850353 404.9173397557345 L 289.76448153130923 403.33371179342674 L 285.14460556677915 401.4214497631712 L 280.6707564201377 399.18881145545197 L 276.36568520844435 396.6459072373877 L 272.2513608047835 393.8047217979204 L 268.34882837984367 390.67898337759584 L 264.677989057589 387.2841433710287 L 261.2573484512476 383.6373341023325 L 258.10390983105975 379.7571504895755 L 255.23308326438791 375.6634535266713 L 252.65847504802935 371.37726728103763 L 250.39196509900515 366.92048226816405 L 248.44361768467658 362.3157084025894 L 246.8216681263347 357.5860911210121 L 245.53269941638825 352.75509125920513 L 244.5815185271058 347.84639948686254 L 243.97146900096013 342.88375507328124 L 243.70430663338217 337.89089774812663 L 243.78044760233783 332.8914775264563 L 244.19895766837578 327.9090233796904 L 244.95766547897105 322.96692236310423 L 246.05310817272397 318.088397452365 L 247.48022721928757 313.2963904378735 L 249.232529505194 308.6135027925411 L 251.30191684183256 304.0618397941459 L 253.67893053999722 299.6629983695504 L 256.35265741823554 295.4379321475148 L 259.30833552435706 291.40507126062647 L 262.530344292231 287.5816356982371 L 266.0022105514955 283.98356056314327 L 269.7068129416375 280.62559672609046 L 273.626299638267 277.5211444338263 L 277.7422744592727 274.68235045171923 L 282.0358494939259 272.1200832092554 L 286.4876744784009 269.8438463350254 L 291.0781073924235 267.86194682650887 L 295.78723686809064 266.18144107483687 L 300.59492923254743 264.8080896526787 L 305.4809177914628 263.7464325507159 L 310.42488303184666 262.99996908752684 L 315.4064426567776 262.57094262766935 L 320.4052190150149 262.46033105355514 L 325.4009105481047 262.6678548021109 L 330.3733565276086 263.1920503580967 L 335.30257395557726 264.0303913077171 L 340.1688212831709 265.1791458274851 L 344.95266524768357 266.633393716669 L 349.63549750881566 268.3858440052937 L 354.19935307072086 270.4282010774207 L 358.6269506295949 272.7512120237257 L 362.90173119633334 275.3447137311158 L 367.00789591752965 278.1976790800822 L 370.93044564762556 281.2982602538179 L 374.6681675359176 284.61931958568516 L 378.22268876770937 288.13576364364224 L 381.6986322086417 291.7299001457022 L 385.10760207895686 295.38762135203865 L 388.4610423513303 299.0963190128926 L 391.7701898705587 302.8445909742082 L 395.0459615447997 306.622066313405 L 398.2988507534565 310.419264200822 L 401.5389323584338 314.2273964455173 L 404.77595098176903 318.0381326515778 L 408.0189691463977 321.84376442355585 L 411.2763371150533 325.6371209737336 L 414.5559205571726 329.41128743087046 L 417.86491618156145 333.159693486486 L 421.209796243405 336.87611345358897 L 424.59651956808483 340.5544425745445 L 427.9714709493069 344.24357569417947 L 431.3394020364068 347.93911898205283 L 434.7048346130201 351.63693774076313 L 438.0718719586897 355.33329534154615 L 441.44436964949585 359.02467168723445 L 444.9206445100817 362.61848763879055 L 448.50710407676985 366.1023515535425 L 452.18168053352133 369.4931461305536 L 455.9316580748578 372.8003607349408 L 459.7897393066715 375.9808024037546 L 463.7421566697853 379.04321925776986 L 467.7763610464508 381.99706337134336 L 471.87564066715987 384.8599127546046 L 476.025235378702 387.64933271759713 L 480.2141584183739 390.3793370706533 L 484.43388222983396 393.06148750547186 L 488.6775538919708 395.7055848607099 L 492.93949572092885 398.3201310635102 L 497.21486991480225 400.91265406289926 L 501.4994424539721 403.4899468589532 L 505.78935823686163 406.05833596026076 L 510.08084030277115 408.624107126592 L 514.3699395128409 411.19385963727836 L 518.6525819516787 413.774358376101 L 522.9245564929861 416.37247952770684 L 527.1814842311489 418.9951816137356 L 531.418789125661 421.64947007412275 L 535.6398241827566 424.32955646205306 L 539.8476040237638 427.03040610792624 L 544.0447740317511 429.74771432085527 L 548.2335878663127 432.4778862310808 L 552.4158923021055 435.2180193676908 L 556.5931184073185 437.96588800827874 L 560.7662781230492 440.7199283106349 L 564.9359653413221 443.4792232390128 L 569.1023606157748 446.2434863265314 L 573.2652386818394 449.0130433682041 L 577.4239780186115 451.7888112131046 L 581.5775717573046 454.5722729164319 L 585.7246393343662 457.36544862005036 L 589.8634384023011 460.1708616511852 L 593.9918766472422 462.9914994616294 L 598.1075233164719 465.83076917302674 L 602.2076204264166 468.6924476471085 L 606.2890937950971 471.5806261631896 L 610.3485642137963 474.4996499588627 L 614.3823592305437 477.4540530733452 L 618.3865261517161 480.44848912498975 L 622.3568469661946 483.4876588520894 L 626.2888559482608 486.576235444138 L 630.1778606915999 489.71878888143794 L 634.0189672609567 492.9197106741164 L 637.7937284941909 496.19860951855685 L 641.4837183146295 499.57262420807126 L 645.0705023349292 503.056154083316 L 648.535699302325 506.6606526583123 L 651.8611215111133 510.39449346012725 L 655.0289772074186 514.262915656241 L 658.0221142580031 518.2680536808813 L 660.8242824549144 522.409050347895 L 663.4203920530837 526.6822476232725 L 665.7967484399073 531.0814441775085 L 667.9412468420625 535.5982048091066 L 669.8435160693025 540.2222043535589 L 671.4950057535178 544.941587980997 L 672.8890166786601 549.7433307417646 L 674.0206780846796 554.6135815014408 L 674.8868789574274 559.5379795405976 L 675.4861622012031 564.5019355832846 L 675.8185913285273 569.4908724314826 L 675.8855991083003 574.4904234070652 L 675.6898267560783 579.486589255604 L 675.234960993716 584.465855982566 L 674.5255748773916 589.4152772960093 L 673.5669768658128 594.3225260009556 L 672.3650712900399 599.1759189365138 L 670.9262322584844 603.9644199797707 L 669.2605381758818 608.6788089352116 L 667.377180354403 613.3105433097493 L 665.28540111228 617.8519593446688 L 662.9944602245362 622.2962354216991 L 660.5136015009217 626.637357395736 L 657.8520195346695 630.8700848186775 L 655.0188268556592 634.9899172477458 L 652.023021846798 638.9930600567 L 648.8734578502985 642.8763893798392 L 645.578813909724 646.6374160089441 L 642.147567573564 650.2742482267662 L 638.5879701363181 653.7855536940749 L 634.9080246228905 657.1705206094531 L 631.1154667400247 660.428818432721 L 627.2177489319247 663.5605585062934 L 623.2220275921587 666.566254927248 L 619.1351534050355 669.4467860204018 L 614.9636647201335 672.2033567435531 L 610.7137838055135 674.8374623244947 L 606.3914157792315 677.3508533894457 L 602.002712776453 679.7465340763075 L 597.5533874068319 682.0276530462971 L 593.0487323504947 684.1974647485919 L 588.4936411655954 686.2592950755713 L 583.8926298443697 688.2165111653154 L 579.2498587209458 690.0724950810595 L 574.5691543971488 691.8306210814329 L 569.8540314109362 693.4942361886284 L 565.1077134251733 695.0666437623903 L 560.333153761857 696.551089794226 L 555.5330551485382 697.9507516471085 L 550.7061823036456 699.2550900001588 L 545.8521729134987 700.4545035403381 L 540.9714955048796 701.5403156939791 L 536.0653924603903 702.5047600505144 L 531.1358118897066 703.3409630145951 L 526.1853318406876 704.0429226176099 L 521.2170800351364 704.6054828336202 L 516.2346519573821 705.0243031411567 L 511.2420297269274 705.295823423953 L 506.2435037685921 705.4172245930097 L 501.2435988742721 705.3863855308573 L 496.24700584714503 705.2018371055991 L 491.25851954617707 704.862714082118 L 486.2829838165297 704.3687057795541 L 481.3252435063054 703.720006298764 L 476.3901035346391 702.917265082642 L 471.4822947899236 701.9615384871688 L 466.60644649701817 700.8542429419006 L 461.76706459400157 699.597110173751 L 456.96851559681835 698.19214486399 L 452.21501539801955 696.6415850102535 L 447.5106224377989 694.9478651763299 L 442.85923469610833 693.1135827344876 L 438.26458997882986 691.141467138995 L 433.73026900449526 689.0343522152879 L 429.2597008373029 686.7951514064084 L 424.85617025429707 684.4268358859314 L 420.52282667729236 681.9324154234528 L 416.26269434174475 679.3149218735807 L 412.07868341405816 676.5773951509716 L 407.9736018049267 673.7228715510743 L 403.9501674587078 670.7543742777614 L 400.0110209272023 667.6749060439054 L 396.1587380604643 664.4874436183014 L 392.3958426673914 661.1949342013384 L 388.724819014959 657.8002935217845 L 385.1481240472406 654.3064055573675 L 381.66819921401304 650.7161237919504 L 378.2874818040419 647.0322739315574 L 375.0084156803509 643.2576580098427 L 371.8334613142127 639.3950598204189 L 368.7651050115824 635.447251618377 L 365.8058672206087 631.4170020359722 L 362.9583098021052 627.3070851574545 L 360.2250421369257 623.1202906950424 L 357.60872593559736 618.8594352017562 L 355.11207860694975 614.5273742469269 L 352.73787503455236 610.1270154664619 L 350.48894760335185 605.6613323821853 L 348.3681843149038 601.1333788627275 L 346.37849601170427 596.5463165723164 L 344.52269490732203 591.903472372801 L 342.8034753832825 587.2083382716106 L 341.21283430284524 582.4680997804347 L 339.7427839113805 577.6890881831947 L 338.3854045327832 572.8768619600669 L 337.1328868098775 568.0362835489875 L 335.9775650364088 563.1715912051955 L 334.91194294533864 558.2864658681111 L 333.9287131493033 553.3840930581151 L 333.0207712750633 548.4672199101682 L 332.18122569466493 543.5382075122903 L 331.4034036314755 538.5990787593607 L 330.6808543085324 533.6515619604085 L 330.00691723786576 528.6971892630046 L 329.37516939732075 523.7372603657353 L 328.77942252943444 518.7728786651201 L 328.21371914108204 513.8049837712634 L 327.6723275371744 508.83438067594204 L 327.1497361641199 503.86176584500964 L 326.63832941954956 498.8879882925242 L 326.1300073252764 493.9138945410481 L 325.6168094775661 488.9403014767629 L 325.0978223579909 483.96730918140236 L 324.57198870152854 478.99503616338217 L 324.0381148800869 474.0236199926337 L 323.4948787144742 469.0532181508939 L 322.9408381401319 464.0840090546712 L 322.3744415187857 459.11619314953464 L 321.7940411996215 454.1499938513274 L 321.19788467705604 449.1856613281575 L 320.58402448756345 444.22348683830364 L 319.9504135574231 439.26379559900187 L 319.2949180615222 434.3069492573393 L 318.61538208832985 429.3533413942624 L 317.913400218649 424.40286450262465 L 317.19408191613735 419.4548769137486 L 316.57627959100665 414.49319168722894 L 316.06402871338724 409.5195010013923 L 315.6611776619677 404.5357563218998 L 315.3662678997154 399.5444610759613 L 315.17442850156255 394.5481426668408 L 315.0681271023845 389.5492727933061 L 315.0272806546407 384.5494396393192 L 315.04066265597544 379.54945754714726 L 315.09045798149685 374.54970551074024 L 315.16215506208914 369.55021958430393 L 315.24337856702607 364.55087935360893 L 315.32320504022704 359.55151662080226 L 315.3917178859927 354.55198604384157 L 315.42613214126754 349.55210447934087 L 315.42196747922657 344.55210621378217 L 315.3741376821768 339.5523349879645 L 315.2737493732178 334.55334287080484 L 315.12247030192486 329.5556319305254 L 314.9168960164479 324.5598597966956 L 314.6542978108159 319.5667603402058 L 314.33235536448205 314.5771357990957 L 313.94907577829764 309.59184776741546 L 313.5072174940639 304.6114099094903 L 313.00990782602753 299.6362030701642 L 312.4608908026711 294.6664364450534 L 311.86453499734205 289.7021278573999 L 311.22583886658236 284.7430889129518 L 310.4523706267187 279.80327647907114 L 309.5417721976867 274.88689462845736 L 308.60766476316303 269.97492523718796 L 307.6574775733737 265.0660410152532 L 306.6988695963923 260.1587942569917 L 305.7349867600764 255.25258086193278 L 304.76647811091783 250.34727852706035 L 303.6743742094308 245.46800511103243 L 302.5955191531152 240.58578514799694 L 301.5333835703232 235.6999005808211 L 300.4911381109218 230.80973448933125 L 299.4613905056301 225.91692140589998 L 298.4391051952421 221.02254373921295 L 297.4256055825655 216.12633923622246 L 296.45107778176305 211.2222291675695 L 295.5220104803952 206.30930397482243 L 294.6455268017818 201.38672575186607 L 293.82619823766254 196.45431247801946 L 293.02551021913007 191.5188389752055 L 292.25266552367304 186.5789289480184 L 291.5174925659024 181.63327219464753 L 290.8304534009263 176.68069941014562 L 290.2026271114237 171.72027259885112 L 289.64550424629385 166.75140812966407 L 289.17105087748865 161.77396963171861 L 288.79166081144155 156.7883840916055 L 288.5200937669174 151.79576440447448 L 288.369757876785 146.79802500349146 L 288.3603140944762 141.79803392200185 L 288.51353355908645 136.8003820938265 L 288.8522695039111 131.81186949389416 L 289.3996404671444 126.8419213021512 L 290.1714282748242 121.90184604159931 L 291.1820547908286 117.00504769521534 L 292.4455789668364 112.16733060379259 L 293.9730999300835 107.40637694860536 L 295.7723731953711 102.7413350713205 L 297.8475250016569 98.19229726307263 L 300.19879925908856 93.77964393810599 L 302.82272433077384 89.52346992636944 L 305.7245486330479 85.45168705903336 L 308.90303115556367 81.5919916236315 L 312.3509444939482 77.97095674241449 L 316.0555722203462 74.61302085726079 L 319.997849852827 71.53756201857645 L 324.15537744060384 68.75997955231652 L 328.503863811397 66.2920520244045 L 333.01797203113176 64.14197598376707 L 337.6730502169831 62.31707952544093 L 342.4441261605744 60.821474517263965 L 347.3064795599189 59.656348163651245 L 352.23608793837457 58.82030914837766 L 357.20995324781205 58.30975662064513 L 362.2063225537018 58.11924741046729 L 367.204819334878 58.241844019602276 L 372.1865026132726 58.669432272205015 L 377.1338701900705 59.393002628182025 L 382.0308204099599 60.402892990511035 L 386.8625846313921 61.68899349532691 L 391.6156403003521 63.240915467517276 L 396.27761241681065 65.04812768122179 L 400.8371693503986 67.10006349146789 L 405.28391743868633 69.38620247221895 L 409.60829757953434 71.89613004038492 L 413.8014860778915 74.61957826226192 L 417.85530128756625 77.54645069641583 L 421.76211705888284 80.66683377049372 L 425.51478362558436 83.97099684745595 L 429.10655630534404 87.44938282617248 L 432.53103221947384 91.09259085118903 L 435.78209513541793 94.89135248053263 L 438.853868481197 98.8365024792223 L 441.7406765584146 102.91894526820434 L 444.4370139767964 107.12961796104503 L 446.9375233376755 111.45945086037914 L 449.23698119713976 115.89932625869247 L 451.330292333789 120.44003638874707 L 453.2124923243584 125.07224139236041 L 454.87875838708015 129.78642821600474 L 456.3244283829959 134.57287139052474 L 457.5450277663977 139.42159670190702 L 458.5372666574852 144.32215401541876 L 459.29989580694274 149.26365143830563 L 459.8322269914953 154.23523302870046 L 460.1339503398591 159.22612102794992 L 460.20535512744186 164.22561113758212 L 460.0587107328377 169.22346021708935 L 459.70634677504785 174.21102872701988 L 459.160415306508 179.18113524817795 L 458.4329695508255 184.12793448329347 L 457.53577196318696 189.04677951934977 L 456.48039521076186 193.93412848483612 L 455.27805141647025 198.78741287793824 L 453.9397226318134 203.60497201760214 L 452.47598012588617 208.38591940032262 L 450.89712703971225 213.1300971933948 L 449.21303092658115 217.83794386482927 L 447.43325930629413 222.5104606362942 L 445.56698546489724 227.14910504483834 L 443.6229472373232 231.75569981426736 L 441.60975567680856 236.33249560834344 L 439.5327347562079 240.8806803116495 L 437.27717190309056 245.34301559887717 L 434.8537943635774 249.7164857658022 L 432.2729335885694 253.99891003950805 L 429.54452925923107 258.1888754111606 L 426.6782947981972 262.2857888852752 L 423.68345289297696 266.28965226490453 L 420.56886201331923 270.20108725124305 L 417.34302346448766 274.0212921746565 L 414.0653262032062 277.7970968125301 L 410.74216572921785 281.5329507261784 L 407.3796593843041 285.2334305707951 L 403.9836671702328 288.9032039809619 L 400.4839856612629 292.47423035103736 L 396.8821167349843 295.94216060378307 L 393.1797193812785 299.3025554965408 L 389.3787134251855 302.55099415561153 L 385.4831462897489 305.6854090441205 L 381.49656039983654 308.7032117120151 L 377.45768360953303 311.6506638783357 L 373.3406487606409 314.4879203089404 L 369.15189015006905 317.21817694566164 L 364.897545906336 319.8450677039185 L 360.5832516208752 322.37229243045954 L 356.21435494155935 324.80390543533156 L 351.7957696240942 327.1440130807789 L 347.3643710977674 329.45976503227735 L 342.92294086033905 331.7562182641237 L 338.4741401542563 334.03836030123654 L 334.020610398938 336.3112599291336 L 329.56484754613246 338.5797786968669 L 325.11046467604785 340.85100595249264 L 320.66093434122917 343.1317250933621 L 316.2197047231944 345.42856628941615 L 311.7901679703008 347.7478774273975 L 307.3123286281461 349.97250207570374 L 302.79110023993866 352.107565040037 L 298.23125551935993 354.15886124590554 L 293.63718173843745 356.1323064808793 L 289.0132155042911 358.0346566761574 L 284.3634937009582 359.87315800920305 L 279.69203149287927 361.65569576153547 L 275.0003350393538 363.38427448059235 L 270.2893492924493 365.05956946729253 L 265.56018163497305 366.6828295411811 L 260.81410619305035 368.2559690453505 L 256.0524431882646 369.78127735151514 L 251.2766045938789 371.26160357244623 L 246.48878980269117 372.70272449911556 L 241.70082701513311 374.14335364811933 L 236.94415053828573 375.68414204845425 L 232.18574088247684 377.21956952883386 L 227.42733827495712 378.75501885224037 L 222.67111708921115 380.2972121061036 L 217.96383968939884 381.98289875587454 L 213.31173180538818 383.81535400376623 L 208.72124107651518 385.7971195974052 L 204.19508751789272 387.92172166926923 L 199.73261306085845 390.17700917207605 L 195.3357600767029 392.5576989535727 L 191.00823476842248 395.06219984320967 L 186.7551038581321 397.69105462427547 L 182.58259061355054 400.44607426554694 L 178.4979726772619 403.3298038497051 L 174.50953584765685 406.3451598247518 L 170.62656012378153 409.49515974979863 L 166.85906911293785 412.7824095856359 L 163.21906972561897 416.2102958819296 L 159.71857132021972 419.7805214929796 L 156.36717637244345 423.4910675315054 L 153.17287897282765 427.337684762633 L 150.14298964977425 431.3150922964478 L 147.28403486059958 435.417089067955 L 144.6016770042656 439.63668103052237 L 142.10065677658122 443.96621886044295 L 139.78475845053393 448.3975408915541 L 137.65679751445333 452.92211625886927 L 135.71862912187635 457.531183765645 L 133.97117505244265 462.21588271810924 L 132.4144663751345 466.9673728100692 L 131.04769873850094 471.7769410055989 L 129.86929716099814 476.63609419541905 L 128.8769873187741 481.53663714258573 L 128.0678705827551 486.47073585536947 L 127.43850039661478 491.4309670161923 L 126.98495797153984 496.4103544552913 L 126.70292566918494 501.4023938962842 L 126.58775682545637 506.4010673340509 L 126.6345411173112 511.4008484522635 L 126.83816488212958 516.3967004679263 L 127.19336605961371 521.3840677216498 L 127.69478363907854 526.3588622310747 L 128.3370016628885 531.3174463041638 L 129.11458796398145 536.256612179527 L 130.02212790718963 541.1735595304228 L 131.0542534660163 546.0658715432463 L 132.20566800411143 550.9314901638807 L 133.4711671489414 555.7686909984992 L 134.845656148518 560.5760582603217 L 136.3241640943517 565.3524600706918 L 137.90185537819332 570.097024351307 L 139.57403872920145 574.8091154837673 L 141.33617415395443 579.4883118618679 L 143.18387807579455 584.1343844201925 L 145.11973307736162 588.7444240526586 L 147.14873355631656 593.3142333546318 L 149.27573037600848 597.8392620317808 L 151.5053631241437 602.3146098180922 L 153.84199065261362 606.7350364709388 L 156.2896213112641 611.0949796080489 L 158.85184449363635 615.3885809360386 L 161.53176526977833 619.6097211414336 L 164.33194397111995 623.7520633823104 L 167.254342598502 627.8091049476232 L 170.300279834796 631.7742362635518 L 173.47039625291748 635.640806047683 L 176.7646310214574 639.4021910704828 L 180.1822110355831 643.051868706528 L 183.72165296071034 646.5834902687359 L 187.3807781980013 649.99095303417 L 191.15674029555947 653.2684688980224 L 195.04606386985895 656.4106277314359 L 199.0446936986614 659.4124537577424 L 203.14805232416978 662.269453581065 L 207.35110428040835 664.9776548758655 L 211.648424939772 667.5336351478172 L 216.03427195929058 669.934540377388 L 220.50265738830345 672.1780937326228 L 225.04741866061653 674.2625948666314 L 229.66228691652725 676.1869105841236 L 234.34095136242695 677.950457862388 L 239.07711865756244 679.5531803438205 L 243.86456660062353 680.9955194830246 L 248.69719165801575 682.2783815390014 L 253.56905011965867 683.4031015618152 L 258.4743928794576 684.3714054443274 L 263.4076940123174 685.1853710041171 L 268.3636734568041 685.8473889387872 L 273.33731421375927 686.3601243683748 L 278.3238745394488 686.7264795488476 L 283.3188956513308 686.9495582162564 L 288.31820547990395 687.0326319060279 L 293.3179189960759 686.9791084886508 L 298.3144356245727 686.792503072988 L 303.3044342241644 686.4764113520068 L 308.28486607845014 686.0344854025357 L 313.25294629958245 685.4704118998837 L 318.2062037952826 684.788326728303 L 323.14300032779636 683.9958369829056 L 328.0621673403191 683.1004064144594 L 332.96296869256446 682.1093735664518 L 337.8450377336629 681.0298357588933 L 342.7083633889173 679.8687743604547 L 347.5532379284914 678.63297878845 L 352.38020017845474 677.3289713354695 L 357.1900645353936 675.9632463017057 L 361.9838242677101 674.5420258301316 L 366.7626465917625 673.0713602681707 L 371.527869083898 671.5572088224935 L 376.2808968737917 670.0052014679688 L 381.02330987563806 668.4210553509967 L 385.7566966328809 666.8101395225443 L 390.4827379271796 665.1777995810543 L 395.203109399422 663.5291355267241 L 399.87181861896664 661.7393997296472 L 404.48732251213266 659.8166090982551 L 409.049030085194 657.769458879567 L 413.55685207282926 655.6062342199923 L 418.01123196818327 653.3350011302664 L 422.412997123988 650.9634059891972 L 426.7633951127401 648.4988497736765 L 431.0639681437728 645.948345587294 L 435.3165818391104 643.3186542064992 L 439.52332776132255 640.6161944480659 L 443.68653236521203 637.847128283065 L 447.8086982489039 635.0173317484487 L 451.8924792557728 632.1324170724249 L 455.9406726557305 629.1977739601302 L 459.95614578235995 626.2185164067595 L 463.94185709280913 623.1995587472754 L 467.9008229232356 620.1456121934674 L 471.8349770849792 617.0597685435663 L 475.7447674873242 613.9431134439875 L 479.6305988959306 610.7966369600632 L 483.49282671571467 607.621232061773 L 487.33175056079824 604.4176928140582 L 491.1476075775271 601.1867122774593 L 494.9405654851423 597.9288801284591 L 498.71071529681086 594.6446800131228 L 502.45806368136243 591.3344866524868 L 506.18252492320994 587.9985627238015 L 509.88392604827607 584.637070538572 L 513.5620148811372 581.2500862549382 L 517.2164401223195 577.83758333822 L 520.8467474531918 574.3994343182655 L 524.4523758555265 570.9354129811088 L 528.0326541904383 567.445197078824 L 531.586798085464 563.9283716391055 L 535.1139071824474 560.3844329519981 L 538.6129628026036 556.8127933051337 L 542.0828260885935 553.2127865306206 L 545.5222366865297 549.5836744162317 L 548.9298120334573 545.9246540206872 L 552.3040473178223 542.2348659175915 L 555.6433161815833 538.513403375053 L 558.9458722326984 534.7593224583383 L 562.2098514354792 530.9716530213606 L 565.4340145034095 527.1500339258207 L 568.619860066628 523.2964138034786 L 571.7688342089722 519.4126061549399 L 574.8823226279969 515.5002935569233 L 577.9616434382398 511.5610317799396 L 581.0080406311617 507.5962538362261 L 584.0226782057774 503.6072739799577 L 587.0066349837095 499.5952916834573 L 589.9609001210567 495.56139561411504 L 592.8863693265374 491.5065676365327 L 595.7838417893232 487.431686861909 L 598.6540178055512 483.3375337582904 L 601.4974970473843 479.22479430614123 L 604.3147772085514 475.09406404461436 L 607.106250750645 470.94585051783065 L 609.8706614487626 466.77955318180994 L 612.5678165657552 462.5694042206827 L 615.1868483689241 458.3102173952441 L 617.7235347525575 454.00147950682606 L 620.1751946875828 449.6438008170886 L 622.5395381085157 445.2381362601924 L 624.8230750489331 440.7900513867048 L 627.0482265484867 436.3124738269037 L 629.2160355595796 431.80685465841816 L 631.3272513556782 427.2744416297651 L 633.3823477344745 422.7163083634094 L 635.3815416622791 418.13338095409676 L 637.3248124715874 413.52646240025945 L 639.2119398114774 408.89626257702935 L 641.0425535229015 404.24342973675385 L 642.8161655244509 399.568571400081 L 644.5363041349389 394.87377394324557 L 646.2062578812861 390.16089218310555 L 647.8290770402216 385.43157320703807 L 649.4075769473188 380.68727789126206 L 650.9443427986188 375.92930030427425 L 652.4417357068036 371.15878518758944 L 653.9018998053941 366.3767436983103 L 655.3267702213565 361.58406758806507 L 656.7180817593758 356.7815419812438 L 658.0773781604536 351.96985690281053 L 659.4060218138918 347.14961769275277 L 660.7052038156131 342.3213544308331 L 661.9759542775361 337.4855304820605 L 663.2191528027382 332.6425502604474 L 664.4355390497152 327.7927662963759 L 665.6257233164537 322.9364856814188 L 666.7901970815074 318.0739759538705 L 667.9293434449951 313.20547047861913 L 669.0434474175908 308.33117336639395 L 670.132706010277 303.4512639698724 L 671.197238081993 298.5659009876276 L 672.2370939064102 293.67522620142216 L 673.2522644229836 288.7793678678631 L 674.2426901411889 283.87844378186486 L 675.2082696705257 278.97256402666034 L 676.1488678524406 274.0618334231576 L 677.0643234738374 269.1463536901862 L 677.9544565452919 264.2262253265047 L 678.8190751304769 259.3015492252618 L 679.6579817166203 254.37242803181107 L 680.4709791190664 249.4389672562889 L 681.2578759161613 244.50127615307863 L 682.0184914137294 239.55946838012153 L 682.7526601413343 234.61366245192266 L 683.4602358852991 229.663982000969 L 684.1410952660857 224.71055586307264 L 684.7951408700827 219.75351800282866 L 685.422303948107 214.79300729589906 L 686.0225466949763 209.8291671851752 L 686.5958641263421 204.86214522801697 L 687.1422855705798 199.89209255170888 L 687.6618757949042 194.91916323401426 L 688.1547357860163 189.94351362525353 L 688.6210032064884 184.96530162769795 L 689.0608525487582 179.98468594727203 L 689.4744950090508 175.00182533161728 L 689.8621781037613 170.01687780751277 L 690.2241850508589 165.029999929496 L 690.5601055354564 160.0412969489581 L 690.8551506511982 155.05000970219731 L 691.0941858023574 150.055726751011 L 691.26180648498 145.05853721020338 L 691.3424350832142 140.05918734955682 L 691.3204422169885 135.05923571840725 L 691.180295321212 130.06120021957332 L 690.9067357412046 125.06868931260615 L 690.484983661508 120.08650854678967 L 689.9009676866941 115.12073314498562 L 689.1415730048835 110.17873762523473 L 688.1948990451635 105.26917466973777 L 687.0505147561785 100.40189775146774 L 685.6996975243993 95.58782537910685 L 684.1356407587455 90.8387490021876 L 682.346623546621 86.16976437866155 L 680.3242190101041 81.59703216578531 L 678.0634248957346 77.13734496011358 L 675.5626826836085 72.80764654238389 L 672.8237780674847 68.62453747091858 L 669.8516267887992 64.60380162077772 L 666.65396029125 60.75998464146522 L 663.2409338766633 57.10604831288284 L 659.6246849140384 53.65311572733841 L 655.8251736156298 50.402928979893765 L 651.8614623667945 47.35514402424853 L 647.751512691317 44.50763394260848 L 643.5120530239433 41.856788468290496 L 639.1585068078897 39.397797751617176 L 634.7049697104412 37.124912509980376 L 630.1642251007557 35.03167616651308 L 625.5477879528986 33.11112727104476 L 620.8659686975951 31.35597244577462 L 616.1279500123317 29.758731406327467 L 611.3418709571774 28.3118564021154 L 606.5149141441887 27.007828823595027 L 601.6533927300222 25.839235849287462 L 596.7628349344977 24.79882994357832 L 591.848064521518 23.879573837969556 L 586.9132762523187 23.074673385632533 L 581.9621057579441 22.37760040836738 L 576.9976936019921 21.78210738083854 L 572.0227435381901 21.28223553458577 L 567.0395751296935 20.87231772262648 L 562.0501710045479 20.546977168775946 L 557.0562190879681 20.301123035419373 L 552.0591501877399 20.12994357878852 L 547.0601713226087 20.02889752012766 L 542.0602951815277 19.993704142207825 L 537.0603660890861 20.020332520969173 L 532.0610828330443 20.10499021914603 L 527.0630186864461 20.244111700194694 L 522.0666389312294 20.434346664544094 L 517.0723161640626 20.672548464200244 L 512.0803436392486 20.955762714375073 L 507.09094687863757 21.281216190626886 L 502.1042937549706 21.64630607575447 L 497.1205032331841 22.04858960133172 L 492.1396529340497 22.485774113423602 L 487.16178566612905 22.955707579952584 L 482.1869150553518 23.456369547775957 L 477.2150303865068 23.98586255028309 L 472.2461007574652 24.542403960811235 L 467.2800786349254 25.12431828306642 L 462.31654418705887 25.727083398880374 L 457.35501970058897 26.3461752904117 L 452.39501344416095 26.97731547784625 L 447.4360638623617 27.616705065791894 L 442.47772445760324 28.260809364193555 L 437.51959143439615 28.906500408101774 L 432.56164413844675 29.553616016465593 L 427.6038708708764 30.20206356821098 L 422.64625171789453 30.851688332199913 L 417.6887854714663 31.502478940249077 L 412.731453579417 32.15429218963166 L 407.7742611552003 32.807165277825874 L 402.8172088830078 33.46110164380621 L 397.8603035574837 34.1161509501873 L 392.903575391995 34.772539473434854 L 387.9470462584596 35.4304292426322 L 382.99074807848154 36.09005667622369 L 378.0347358270652 36.75182896622307 L 373.0788186124699 37.41431259777777 L 368.1228172785118 38.07616664347491 L 363.1666034750015 38.736427753865705 L 358.2100976121745 39.394492820376016 L 353.25326612513123 40.05010063687662"
        fill="none"
        stroke="#1B5E20"
        stroke-width="2"
        stroke-linecap="round"
        stroke-linejoin="round"/>

  <circle cx="150" cy="150" r="2.5"
          fill="limegreen"/>

  <circle cx="353.25326612513123" cy="40.05010063687662" r="2.5"
          fill="red"/>

</svg>