<?xml version="1.0" encoding="UTF-8"?>
<svg xmlns="http://www.w3.org/2000/svg"
     width="800" height="800"
     viewBox="0 0 800 800">

  <rect x="0" y="0"
        width="800"
        height="800"
        fill="white"/>

  <text x="10"
        y="22"
        font-family="Arial"
        font-size="14"
        fill="#444">
        MeanderGen - Development Preview
        </text>
  <path d="M 150 150 L 154.99987815352696 150.0349063014898 L 159.99941919933062 150.10265090514662 L 164.99871018739753 150.18685076638639 L 169.99777234519465 150.2836884784669 L 174.9966648699518 150.38891930060123 L 179.9954727853002 150.4980954218465 L 184.99429271445487 150.60672007782335 L 189.99321862344067 150.71035287413127 L 194.99233764994077 150.80420892819612 L 199.99171086539857 150.88337617245108 L 204.9913577409457 150.94279939881906 L 209.99123772195367 150.9774429482285 L 214.99123526158021 150.98240316279055 L 219.99114872457392 150.95298611715006 L 224.9906832419478 150.88476141790534 L 229.98944739297644 150.77359954318698 L 234.98711147981675 150.62078045044456 L 239.98351500552863 150.4311708297664 L 244.9787067902239 150.21194712184956 L 249.97293170679552 149.9717024909101 L 254.96658341485158 149.71982430878867 L 259.9601397392313 149.4660621460306 L 264.9540927236379 149.22022970403847 L 269.94888115964426 148.99200069725447 L 274.944830158087 148.79077046851276 L 279.942100078348 148.62556349512934 L 284.94064565749767 148.50497289365762 L 289.94047199636594 148.4633005868004 L 294.940275975987 148.50757434161667 L 299.93840629569985 148.64429781131787 L 304.9328736790651 148.8794478836131 L 309.92136628244026 149.2184781861991 L 314.9012690100444 149.6663272942708 L 319.86968556652664 150.22743060140178 L 324.8234622094408 150.90573508474108 L 329.75921229543417 151.70471636650956 L 334.67334084258516 152.6273975801884 L 339.56206845515294 153.67636961514333 L 344.4214540744566 154.8538123538378 L 349.24741612944865 156.16151654201528 L 354.03575176186587 157.60090595121744 L 358.7821538930331 159.17305950900084 L 363.4822259821852 160.87873308761243 L 368.1314943996212 162.71838065783663 L 372.72541840246765 164.6921745315913 L 377.259397756929 166.80002443452994 L 381.7287780994929 169.04159516807889 L 386.128854171636 171.41632263862235 L 390.4548710992615 173.9234280496288 L 394.71126276619907 176.5470000378967 L 398.8939815653042 179.28650062150902 L 402.9989201134579 182.14122994596028 L 407.02190720533605 185.1103333221636 L 410.95870292012467 188.19280627419775 L 414.8049930845836 191.3874974910114 L 418.55638331902185 194.6931095839469 L 422.2083929173707 198.1081975613741 L 425.75644883887907 201.63116494383019 L 429.19588011704474 205.26025745887796 L 432.5219130210142 208.9935542755954 L 435.72971040283596 212.82892074533166 L 438.8144811862262 216.76391619818062 L 441.77149980074967 220.7957942857921 L 444.59612139035465 224.92150790594772 L 447.2837968940002 229.1377147779007 L 449.83008794863963 233.4407836670847 L 452.2306815673961 237.82680125455352 L 454.4814045483434 242.2915796435708 L 456.578237571857 246.8306644931305 L 458.51732894700484 251.43934376585358 L 460.2950079698649 256.1126570756674 L 461.90779785484295 260.84540562032015 L 463.35242819504856 265.63216268331774 L 464.6258469170291 270.46728468369264 L 465.7252316976715 275.3449227498156 L 466.6480008132754 280.25903479160786 L 467.391823393002 285.2033980438264 L 467.95462905110776 290.1716220515785 L 468.3346168745749 295.15716206786726 L 468.53026374494794 300.1533328317737 L 468.5403319753696 305.153322694837 L 468.3638762459829 310.15020806230007 L 468.00024982301363 315.1369681151318 L 467.44911004897807 320.1064997781234 L 466.7104230935598 325.051632898869 L 465.78446795676876 329.9651456020835 L 464.6718397180298 334.83977978347195 L 463.3734520268443 339.6682567072418 L 461.89053883262255 344.4432926713371 L 460.2246553531958 349.1576147045645 L 458.3776782833812 353.80397625997307 L 456.3518052467868 358.3751728691335 L 454.14955349581 362.864057722337 L 451.7737578664922 367.2635571401929 L 449.22756799655 371.56668590264053 L 446.51444481650407 375.76656240200305 L 443.63873949566874 379.8568336531207 L 440.60542954864843 383.8316331153964 L 437.4199322852214 387.6855411559053 L 434.0879727018971 391.41354938216944 L 430.6154896483414 395.0110292560212 L 427.0085688819114 398.47370489556585 L 423.27339500625726 401.79762970197027 L 419.4162166769985 404.9791663332691 L 415.4433211374531 408.0149695271307 L 411.36101532690844 410.9019713056534 L 407.1756116303393 413.637368150125 L 402.8934168836113 416.21860974112246 L 398.5207237038855 418.6433889797295 L 394.0638034925354 420.90963305962447 L 389.5289006512619 423.01549540560285 L 384.9222276867985 424.95934833174783 L 380.2499609734967 426.73977630270633 L 375.51823700862155 428.35556970541177 L 370.73314904104564 429.8057190572236 L 365.9007439862246 431.089409590857 L 361.0270195630656 432.20601616754533 L 356.1179216044487 433.1550984783611 L 351.1793415047453 433.9363965001258 L 346.21752246622384 434.5531232053737 L 341.23805939858136 435.00583454605817 L 336.24633056853884 435.2933120013868 L 331.24776806737793 435.4131991232471 L 326.2480255058846 435.36246137800566 L 321.2530789327395 435.13771990113355 L 316.26928363252557 434.73549557868955 L 311.3034013150018 434.1523894061063 L 306.36260712092553 433.3852175011318 L 301.45450185249166 432.43101486333853 L 296.5871894774115 431.28678138917707 L 291.7693176866622 429.94957855942323 L 287.01009954616984 428.41665889707673 L 282.319319350459 426.6855953062381 L 277.70732148681867 424.7544102540546 L 273.1849811818854 422.6217034841549 L 268.76365634228574 420.28677593437124 L 264.45512027534073 417.7497467741458 L 260.2714758360619 415.0116599958111 L 256.2250524310479 412.0745768122163 L 252.32828823632198 408.9416502553526 L 248.5936008597039 405.61717883888207 L 245.03325045579868 402.1066368577327 L 241.6591998610611 398.41667986826104 L 238.48297660151457 394.5551250252586 L 235.51554160048317 390.5309071491174 L 232.76716907348379 386.3540125547046 L 230.2473414710729 382.0353936951468 L 227.96466247596118 377.5868684782602 L 225.926790056584 373.0210086466029 L 224.14039051331588 368.35102185092444 L 222.61111341109887 363.5906319987553 L 221.34358634665293 358.7539621587831 L 220.34142770380964 353.8554237997851 L 219.60727493883786 348.9096155020764 L 219.14282551911796 343.93123356247776 L 218.94888740477558 338.93499617742435 L 219.0254358917514 333.9355821788499 L 219.37167369579123 328.9475846464675 L 219.98609131635243 323.9854791470304 L 220.86652494492975 319.06360586283563 L 222.01020944557595 314.1961644648338 L 223.41382421452005 309.3972202496546 L 225.07353000620986 304.68071977949336 L 226.98499508792582 300.06051402202104 L 229.14360699093007 295.5504813555974 L 231.5441881832962 291.1644569668305 L 234.18078925759187 286.9161237907457 L 237.0466485989641 282.81894790539866 L 240.13416464786488 278.8861061023534 L 243.43488190228575 275.1304083500884 L 246.93949120614897 271.5642179980074 L 250.63784424427493 268.1993725624213 L 254.51898155010284 265.0471077871667 L 258.5711727701724 262.11798738745773 L 262.7819674551838 259.42184048480584 L 267.1382542755454 256.96770822701217 L 271.62632637234367 254.76380059420612 L 276.2319504581633 252.81746383503057 L 280.9404373157197 251.13515841917456 L 285.73671150973786 249.72244689313834 L 290.60537839693814 248.583990595567 L 295.5307868667225 247.7235538426464 L 300.49708664651916 247.14401394135263 L 305.488279437358 246.8473752306654 L 310.4882635866598 246.83478528503474 L 315.48087243978125 247.10655143401792 L 320.44990699441865 247.6621552450375 L 325.37917715599605 248.5001860763215 L 330.2525584638374 249.61828921484803 L 335.0540490071321 251.01316862277238 L 339.7678261759807 252.68059322449855 L 344.3783030229954 254.61540671502968 L 348.87018401403543 256.811540855362 L 353.2285199508797 259.2620322064204 L 357.43876185385545 261.9590422394805 L 361.48681359850104 264.8938807482696 L 365.3590831070899 268.05703247603316 L 369.0425319030643 271.4381868598841 L 372.52472283651247 275.026270791875 L 375.79386579413347 278.8094842834238 L 378.83886121788976 282.7753389037173 L 381.6493412650911 286.9106988522929 L 384.21570845179565 291.2018245161492 L 386.52917163111346 295.6344183524871 L 388.58177916821546 300.19367292956787 L 390.36644918454743 304.86432095021826 L 391.8425169247069 309.6414774293866 L 393.0028099608643 314.5049864578808 L 393.8414552332727 319.43415211822 L 394.35392386227875 324.4078203725656 L 394.5370721341519 329.4044649177089 L 394.38918339224296 334.40227733115705 L 393.91000310415706 339.3792629903196 L 393.1007559236194 344.3133403104263 L 391.96417203709206 349.1824446499211 L 390.50449500479607 353.96463483449 L 388.72748314512717 358.63820187162514 L 386.6404027233283 363.1817792411594 L 384.25201528485314 367.5744555829508 L 381.57254441576987 371.79588139205066 L 378.6136524564802 375.8263848808534 L 375.38838766351125 379.6470742185561 L 371.91113590692635 383.2399449678772 L 368.19756298574066 386.58798561264786 L 364.2645372695462 389.6752673807658 L 360.13005616996753 392.4870401378048 L 355.813162992172 395.00982298448474 L 351.33385066325064 397.23148026227835 L 346.71296055550147 399.141290360719 L 341.9720794532733 400.73001512433785 L 337.1334271795068 401.9899532869371 L 332.2197376049425 402.9149693758883 L 327.25414549735694 403.5005417634577 L 322.2600658571889 403.7437876219207 L 317.261072460221 403.6434630632579 L 312.2807790894242 403.19997919568505 L 307.34271901586726 402.41540114989044 L 302.47024105905206 401.293367923845 L 297.68649867945504 399.8387859063404 L 293.01441574248594 398.0578757373306 L 288.47660476548293 395.958287316475 L 284.0952406921829 393.54921096708375 L 279.89192466433 390.84141954786503 L 275.88750499250995 387.8473215047241 L 272.1019186219684 384.5809265758812 L 268.5540028477351 381.05781805371697 L 265.2613524026396 377.29504606402475 L 262.24015770082076 373.31103017880264 L 259.50511120564977 369.1253975301756 L 257.06929575333515 364.7588424712916 L 254.94415596841014 360.23294135720073 L 253.13944571251756 355.57000012957667 L 251.66326258837805 350.79287930380667 L 250.522047864952 345.92485825259547 L 249.72066214086306 340.9894979900385 L 249.26242517956356 336.0105403795241 L 249.14920056486656 331.0118225252512 L 249.38145787242516 326.0172197839828 L 249.9582907729558 321.05060485982517 L 250.8772071458904 316.1357709155751 L 252.13406882151727 311.2963185985933 L 253.7231206694119 306.555547118686 L 255.63613885534474 301.9359842150889 L 257.8629274359301 297.4592205830245 L 260.3916677983301 293.1458144834822 L 263.2091063053226 289.0151922229365 L 266.3007144881891 285.0855664336745 L 269.65084152869656 281.3738756043541 L 273.2428545521928 277.89573782113825 L 277.05925713937313 274.6654017252245 L 281.08181636103467 271.6957186936156 L 285.29168657286505 268.99812850985097 L 289.6695354002987 266.58267003491545 L 294.19564972733764 264.4579843879142 L 298.8500410587637 262.6313368209364 L 303.61254325211047 261.1086507540247 L 308.46289985226224 259.8945499133348 L 313.3808401219936 258.9924060759368 L 318.34614342085644 258.40438979189213 L 323.33869164216793 258.13151205758766 L 328.33851463808855 258.1735835379922 L 333.3258505624608 258.5292243363637 L 338.28125888339616 259.19550383687726 L 343.2013566612286 260.0858059522114 L 348.07640499696953 261.1966181434434 L 352.89699099601603 262.52400302575785 L 357.65403152457156 264.06366708316784 L 362.33877280347735 265.8110076766744 L 366.94505817046627 267.75577890174526 L 371.4693614024243 269.8843183693836 L 375.91061983783334 272.18110384258483 L 380.2699544969941 274.6298180622192 L 384.55034156112583 277.214056166809 L 388.7562701596558 279.91778777776216 L 392.89342184104487 282.7256296474513 L 396.96839148039805 285.62297713064174 L 400.98843692613883 288.59606216376454 L 404.96123834448053 291.6319885282243 L 408.89473672512787 294.7186680531256 L 412.79697757269446 297.8447704774846 L 416.67596965923497 300.999674658685 L 420.5026903983092 304.21778099396033 L 424.2839371646997 307.489198560041 L 428.0265492457928 310.80474599756263 L 431.73732090929514 314.15589112443314 L 435.42294462283877 317.53467460997416 L 439.1077068083735 320.9143976217095 L 442.79796235638895 324.28812167538393 L 446.49973430696855 327.6492054925331 L 450.2186753614969 330.99128230687234 L 454.0151144440865 334.2450570827574 L 457.89178540502235 337.4028129727269 L 461.8506863287023 340.45684366616894 L 465.8930886548557 343.3994587333344 L 470.0164078870841 346.22757445040395 L 474.2157623382457 348.9415055831907 L 478.48503158319903 351.54406972535816 L 482.8175555794725 354.03991343475064 L 487.20658169008135 356.43500211795094 L 491.64553923439837 358.736231337249 L 496.12819626937267 360.9511322169264 L 500.64873794777395 363.08764875883213 L 505.2016903116234 365.1541977595862 L 509.7803908186783 367.16305356991586 L 514.3693194782797 369.1484335731113 L 518.9656355507127 371.11665067554026 L 523.5663884370497 373.0744741810846 L 528.1685035727998 375.0290933965075 L 532.7687625176865 376.9880772249221 L 537.3637776677032 378.9593295606511 L 541.939470825087 380.97502599847866 L 546.4938819362646 383.0383581167722 L 551.0260040443866 385.15019835624867 L 555.535385904386 387.31016947658986 L 560.0218520748499 389.5173444359628 L 564.4853391269588 391.77062722683837 L 568.9377204064307 394.04577578071525 L 573.3785634854253 396.34336424424527 L 577.8072326967383 398.6643315031199 L 582.2228508204591 401.01003322871674 L 586.6242792500184 403.3822532394803 L 591.0101529541445 405.78310972237455 L 595.3788733457403 408.21503943765316 L 599.728602956173 410.680775091799 L 604.0572619186415 413.18331611776455 L 608.3625263051035 415.72589326755997 L 612.6418283027052 418.31192776333194 L 616.8923124375299 420.94505985641115 L 621.1108415970292 423.62908886714376 L 625.2940054513655 426.3679098119619 L 629.4381317584388 429.16544750626076 L 633.5393010537406 432.0255891830443 L 637.5933650254511 434.9521170426892 L 641.5959690006185 437.94864193295365 L 645.5425788599707 441.018539426041 L 649.4285125401383 444.1648896025693 L 653.2450147564135 447.3951079904134 L 656.980572034174 450.71860190865226 L 660.6218521868841 454.1451276782153 L 664.1543935566813 457.6836515894913 L 667.5627415360258 461.341952294969 L 670.830181034966 465.12663710625316 L 673.9400361432495 469.04183840446035 L 676.8760540984406 473.0890347879826 L 679.6227591435766 477.2670260990105 L 682.1657685830389 481.5720351571665 L 684.4920609552619 485.9979095113407 L 686.5901877736367 490.5363964678072 L 688.4260971451648 495.18714229826656 L 689.9924239031974 499.93547047638054 L 691.2838720707805 504.76580810748317 L 692.2971435354591 509.6620598308802 L 693.0308170322689 514.6079392471295 L 693.485191144128 519.5872508628523 L 693.6621044410767 524.5841200511904 L 693.564744336141 529.5831720623188 L 693.1974542321606 534.5696636124488 L 692.5655463955211 539.5295721283384 L 691.6751259520472 544.4496484929738 L 690.5329329275091 549.3174400964318 L 689.146197696591 554.1212891156382 L 687.5275754678464 558.8520461460313 L 685.6928191216889 563.5032469748749 L 683.6591835435855 568.0709954722719 L 681.4443610541201 572.5536912393476 L 679.0657959650471 576.951693981166 L 676.5402649111966 581.2669799387866 L 673.8836399791588 585.5028203477816 L 671.1107749605446 589.6634957242735 L 668.2336685146522 593.7527815419933 L 665.257849574574 597.7708036469439 L 662.1885366103934 601.717868116637 L 659.030615632894 605.5944045991004 L 655.7886336388963 609.4009191137968 L 652.4668025481787 613.1379551324542 L 649.0690101608114 616.8060618501423 L 645.5985032174154 620.4054481250287 L 642.05814843061 623.9361545675899 L 638.4506597954231 627.3982385854898 L 634.7785853106868 630.7917425236853 L 631.0443036212596 634.1166696302561 L 627.2673721323533 637.3930683434942 L 623.4485852411932 640.6205854511023 L 619.5887771218896 643.7989311343405 L 615.6887812413273 646.9278338384202 L 611.7494065692911 650.0070102207211 L 607.7714251730782 653.0361460729707 L 603.7555684133814 656.0148864922751 L 599.7025283941274 658.9428322913509 L 595.6129622598506 661.8195402767705 L 591.4874982036788 664.6445263512908 L 587.326742389289 667.4172706692946 L 583.1289328849874 670.1335908576366 L 578.8910868300324 672.7870152139168 L 574.6097824370578 675.3697332966151 L 570.2816872179627 677.8732491792182 L 565.903905169908 680.2888286831321 L 561.4741930101967 682.6078047895433 L 556.991081332158 684.8217852958336 L 552.4539270702481 686.9227924837397 L 547.8629170294649 688.9033547285147 L 543.2190374336615 690.7565633783113 L 538.5238903311978 692.4757473958692 L 533.7795865872561 694.0542219712809 L 528.9815536068817 695.4609484973829 L 524.1353562209379 696.6915462775172 L 519.2470527676105 697.7424931592326 L 514.3230799749231 698.6111081124048 L 509.37014352942475 699.295520683048 L 504.3951168889248 699.7946298157194 L 499.4049500597242 700.1080544745223 L 494.40658934001084 700.2360783614611 L 489.40690843420623 700.1795908395377 L 484.4126508647203 699.9400259639141 L 479.430383236136 699.5193012591957 L 474.4664583744762 698.9197597945783 L 469.52698767459407 698.1441121909555 L 464.61782175788915 697.1953814587336 L 459.74453845013807 696.0768512613788 L 454.91243709536053 694.792018004821 L 450.12653826080833 693.3445469876908 L 445.3915879499011 691.7382327117037 L 440.71206551561744 689.9769633435957 L 436.0921945496454 688.0646892372582 L 431.53595610729025 686.0053953640081 L 427.0471037109086 683.8030774570068 L 422.629179652931 681.4617216493725 L 418.2855321914203 678.9852873720067 L 414.01933329578395 676.3776932734418 L 409.83359665723145 673.642805927923 L 405.7311957278039 670.7844311074643 L 401.71488159351827 667.8063074070889 L 397.78730052177434 664.7121020285015 L 393.95101105116134 661.5054085449169 L 390.20850051373475 658.1897464877629 L 386.56220089627453 654.7685626137642 L 383.0145039585481 651.2452337278884 L 379.56777553372825 647.6230709533104 L 376.22436893937294 643.9053253535118 L 372.98663742726524 640.0951948235293 L 369.8569455974158 636.1958321768684 L 366.83767969613757 632.2103543614267 L 363.93125671080054 628.141852741628 L 361.1401321651873 623.9934043846064 L 358.4668065098567 619.7680842854244 L 355.9109549968387 615.4706870448375 L 353.47024332056696 611.1068668705739 L 351.14093317338427 606.6825800084647 L 348.91833386549933 602.2037350327383 L 346.7971328722052 597.6759865474481 L 344.77154192496863 593.1046649317145 L 342.8354492144325 588.4947251255772 L 340.98259367292684 583.8507046322642 L 339.2075534842285 579.1763883904481 L 337.5049447645584 574.4752051832434 L 335.86944812956375 569.7502553679626 L 334.29570630188766 565.0043796152883 L 332.77838612875627 560.2401651478017 L 331.3122235801598 555.4599593592301 L 329.8920560287545 550.6658875902705 L 328.5128450138304 545.8598729235937 L 327.1696922119844 541.0436565091359 L 325.8578504590429 536.2188175257874 L 324.5731996694214 531.3866676575894 L 323.3120768406467 526.548324014281 L 322.0731762163924 521.7042425489026 L 320.8436228735356 516.8577800681782 L 319.62253224141466 512.0091784483143 L 318.40976310674085 507.1584887008678 L 317.20565378537646 502.3056420370834 L 316.0108416944828 497.4504979540047 L 314.8261476482368 492.5928750768363 L 313.65249130227954 487.732573565449 L 312.490821291293 482.86939324948554 L 311.3420751660352 478.0031439402428 L 310.2071679402873 473.1336485260397 L 309.08696542462184 468.2607493557411 L 307.982266277677 463.38431215274755 L 306.89296251403766 458.50441283918366 L 305.81832065736165 453.62126376508405 L 304.75716718407637 448.73516580186896 L 303.79010231268387 443.8295786265638 L 302.91575177852945 438.90662106596835 L 302.13254805213717 433.96834283130346 L 301.36644277710064 429.02738313630886 L 300.61548759441496 424.0840981643901 L 299.87770021585067 419.13883075159725 L 299.23086851040426 414.18084640865817 L 298.66782597901596 409.21264923988076 L 298.1799699470809 404.2365065075926 L 297.75784578800517 399.25435725307153 L 297.39150269163093 394.26779603959596 L 297.07078424610245 389.27809267379376 L 296.75939762399327 384.2877982564701 L 296.447332860375 379.2975462003804 L 296.12483922738767 374.3079572537153 L 295.7825239797108 369.319688989958 L 295.4114199883657 364.3334798259129 L 295.0030641270319 359.3501831770554 L 294.54955742406787 354.3707924843735 L 294.0436219742965 349.39645541088674 L 293.47991887618764 344.428333148182 L 292.8545891699754 339.4675909901447 L 292.1648740204311 334.51539016500755 L 291.408837129228 329.57287984947556 L 290.5851689895757 324.6411893892255 L 289.69302207695534 319.7214257885733 L 288.73190335006865 314.81467016058167 L 287.70159260646335 309.92197562979277 L 286.60209227602945 305.0443636092057 L 285.4337166063033 300.1827899653747 L 284.19737886493044 295.338053750754 L 282.89459715213167 290.51076053314256 L 281.4470910224057 285.72487231835885 L 279.8585009527701 280.9839460807282 L 278.205409007307 276.2651234500453 L 276.49156202591934 271.5680255668425 L 274.64310354118953 266.92225316279274 L 272.665740977552 262.32986410132105 L 270.56554460895063 257.79233446358717 L 268.3488975273052 253.3105406580409 L 266.0593218461888 248.86556110798216 L 263.7135226020642 244.44999479025302 L 261.31890345361415 240.0607124874299 L 258.8819397607786 235.6947981548071 L 256.408752532252 231.34930106786152 L 253.90526662134778 227.02118851226592 L 251.3765017502645 222.707796781067 L 248.78975180806373 218.4289272181422 L 246.15111368633282 214.18185895137884 L 243.4669654787375 209.96340563296192 L 240.74397482213502 205.76991998447622 L 237.98911161407725 201.5973034546607 L 235.2096701026797 197.44101846867622 L 232.41329701892252 193.2961062167174 L 229.6080276294522 189.15720978741393 L 226.80233046914125 185.01860332573833 L 224.00515716032888 180.8742310595842 L 221.22600359485523 176.71775352932914 L 218.4749720426106 172.5426097714982 L 215.76284505384885 168.34208989928834 L 213.10115527677897 164.1094302707992 L 210.57419400081045 159.79498167222306 L 208.19790364996896 155.39574944733454 L 205.98932542842905 150.9099739024215 L 203.96649969482678 146.33742799762445 L 202.15250610789795 141.6780903551498 L 200.57404188614345 136.93378316646135 L 199.26014315366294 132.10950393316793 L 198.2409253798712 127.21448655530429 L 197.54626554640237 122.26297691522834 L 197.20439949643927 117.27467784601821 L 197.24046264209056 112.2748079027571 L 197.65635735168524 107.29213476572201 L 198.44956308240566 102.35545322153139 L 199.63453509028295 97.49789814304312 L 201.21864651648573 92.75547355330278 L 203.20198157314113 88.16566069730945 L 205.60023076880728 83.77836075366682 L 208.39508357609137 79.63242324984259 L 211.56158955039993 75.76289615797876 L 215.0694838086064 72.19993701237492 L 218.88466884363177 68.9681630183403 L 222.9706922985253 66.08642529154073 L 227.29009739175535 63.56794566276105 L 231.8055634677644 61.42072277810015 L 236.48079963208522 59.64810696867425 L 241.28119440785935 58.249461196249925 L 246.17424453912457 57.220840560191476 L 251.12979750346693 56.55563772075263 L 256.1201494912299 56.245175101053896 L 261.1200335577628 56.27922390764428 L 266.1065301844657 56.646445083341284 L 271.05892664484657 57.33475409767078 L 275.95854575328883 58.331615468267195 L 280.7885593834434 59.624274871405305 L 285.5337978245979 61.19993731513792 L 290.18056262599816 63.04589963340652 L 294.71644797762735 65.1496448834014 L 299.130173762382 67.49890534086285 L 303.4114320518737 70.0816998465599 L 307.5507478820196 72.8863503521138 L 311.53991858362343 75.90073538283988 L 315.37161921807615 79.11291069684978 L 319.0391590959209 82.51131491712998 L 322.5364019491354 86.08472959018995 L 325.8576762925349 89.82226042429366 L 328.9977191254151 93.71329255056526 L 331.9516157876533 97.74745845057706 L 334.7147621216218 101.91459443792813 L 337.2828285826974 106.20470337028623 L 339.65174190529893 110.60791238985377 L 341.82079082437906 115.11293478565129 L 343.7917748544845 119.70806502897075 L 345.5683244664375 124.38180779855807 L 347.1554042805517 129.12323982523856 L 348.55890296774464 133.92221799095756 L 349.78535096845684 138.76946724198118 L 350.75966313853496 143.67362015509855 L 351.4880049259547 148.62028754241075 L 351.97709349264875 153.5963092841166 L 352.2340557153048 158.58970196005623 L 352.26630928465426 163.58959792970043 L 352.08148593510305 168.58618079496551 L 351.68736196314364 173.5706232206263 L 351.09180289239407 178.53502745409156 L 350.30271916841525 183.47236954033104 L 349.32803048858904 188.37644763691748 L 348.22506508833715 193.2532772757143 L 347.00093105792894 198.10111141846266 L 345.662529507267 202.91865034297442 L 344.21653333101517 207.70499498771795 L 342.6058899107396 212.4384744450224 L 340.83473338832067 217.11426363756442 L 338.9071666829763 221.72777494636685 L 336.8272784115257 226.27464912301636 L 334.599124526646 230.75073337884706 L 332.30080215643534 235.19119667478694 L 329.9343850014986 239.5957477130678 L 327.4321438612859 243.92458003555697 L 324.8695709446737 248.21797263897042 L 322.24856068684 252.47594225233436 L 319.57095519566457 256.6985514970582 L 316.8385421352768 260.8859037472782 L 314.05307310044844 265.03815160308017 L 311.2162801620978 269.15550582939153 L 308.3310045317561 273.239031822569 L 305.40065840388917 277.2903367445535 L 302.4285167525455 281.31107971126346 L 299.417718546996 285.3029582371533 L 296.37127706126955 289.26770214742606 L 293.2265176668291 293.15492330798264 L 289.9879796433947 296.96436834246856 L 286.6600573382343 300.6959810140646 L 283.24704714766705 304.34993249692315 L 279.80398339746654 307.97557892370764 L 276.333350279156 311.57484353722054 L 272.8377939565041 315.14990801148787 L 269.3206166631227 318.7037037128362 L 265.7855906183827 322.23974540702056 L 262.2368300650026 325.7620029976538 L 258.62037061091723 329.21471512248496 L 254.94240961588505 332.6018382260969 L 251.20920614610978 335.927975904134 L 247.42703758902343 339.19832772095543 L 243.64954568959135 342.4740802985664 L 239.882004137971 345.76127220912076 L 236.12984692381502 349.0660136877023 L 232.34344108509706 352.33145865347996 L 228.52939671560833 355.56457874830653 L 224.69434257788123 358.77274952940627 L 220.84492116497535 361.9636670754832 L 216.98780874730798 365.145283613892 L 213.129752646312 368.32575576776594 L 209.27757992075067 371.5133513024035 L 205.43821632610587 374.7163635078308 L 201.6187078544894 377.94302665034354 L 197.82624865072563 381.2014393295153 L 194.06818558481726 384.4994632822263 L 190.3520173652075 387.84462303380207 L 186.68539098944314 391.2440128350089 L 183.07609692100044 394.70421461055673 L 179.53205104689116 398.23121600582283 L 176.0662852679429 401.83516766552515 L 172.6844139453701 405.51795823214167 L 169.4118382489821 409.298202709872 L 166.25376672947425 413.1746165522879 L 163.21530635546307 417.1454802562651 L 160.30257655549508 421.20946907420966 L 157.52144393583058 425.36462266364987 L 154.87731521998055 429.6082747858221 L 152.37508131814235 433.93711129237806 L 150.01907061388326 438.3472375446997 L 147.81301257336008 442.8342530251547 L 145.7600118588967 447.39333057071286 L 143.8625341439731 452.01929839608397 L 142.12240096889371 456.7067216256407 L 140.540796466004 461.449982866226 L 139.11828342951404 466.24335919831344 L 137.85482744066454 471.0810940984749 L 136.7498278291193 475.9574632250367 L 135.80215410671167 480.86683329825973 L 135.01018650479068 485.8037136206402 L 134.3718593093768 490.7628000679201 L 133.88470579364463 495.7390116241253 L 133.54590368130604 500.7275197306312 L 133.352320224746 505.72377086977 L 133.30055613799837 510.72350291052214 L 133.38698777796498 515.7227558118677 L 133.60780711184884 520.717877314072 L 133.9590591402576 525.7055242555203 L 134.43667656133383 530.6826601386448 L 135.03651156052496 535.6465495384749 L 135.7543646932336 540.5947499062713 L 136.5860108943848 545.5251012726661 L 137.52722270121748 550.4357143031012 L 138.5737908149572 555.3249571057552 L 139.7215421551822 560.1914411405602 L 140.96670937821372 565.0339155686484 L 142.30576684589647 569.8512722191615 L 143.73522423446076 574.6425822252328 L 145.25163998105634 579.4070846424299 L 146.85167378284697 584.1441609383246 L 148.5416311750979 588.8499067891305 L 150.32745191234818 593.5201149530571 L 152.21468960365644 598.1502697989025 L 154.2084878492651 602.7355471684634 L 156.31355376320008 607.2708197620336 L 158.53412989130697 611.750668158942 L 160.87396453894684 616.1693980467835 L 163.33642803468004 620.5209809234137 L 165.9249631850091 624.7987707470857 L 168.6423716212914 628.9958758673348 L 171.4907547213378 633.1052205493212 L 174.4714649630146 637.1196154545545 L 177.58507000276444 641.0318352408707 L 180.83133097007567 644.8347012301098 L 184.20919595559783 648.5211667649525 L 187.71680908099154 652.0844026766717 L 191.35153491317195 655.5178802322822 L 195.10999736930506 658.8154490285074 L 198.98813168779202 661.9714075529138 L 202.98124755112468 664.9805645282145 L 207.0841011633591 667.8382895388786 L 211.2909738391114 670.5405519780227 L 215.59575459002585 673.0839478745665 L 219.99202425631478 675.4657146602254 L 224.47313890687616 677.6837343825282 L 229.0323104965241 679.7365262414722 L 233.66268309458954 681.6232296106018 L 238.35740335705614 683.3435788940862 L 243.10968427853405 684.8978716732489 L 247.91286160913347 686.2869316182534 L 252.76044263838156 687.5120675963693 L 257.64614732291255 688.5750303123438 L 262.5639419610428 689.4779676840243 L 267.5080657941214 690.2233800015935 L 272.4730510436782 690.8140757538076 L 277.45373697917 691.2531288394293 L 282.4452786592872 691.5438377241446 L 287.4431510066965 691.6896869579505 L 292.44314886820644 691.694311338559 L 297.44138368570856 691.5614628944214 L 302.4342773632955 691.2949807668555 L 307.4185538673427 690.89876399386 L 312.3913387477421 690.3777932333837 L 317.35016975680475 689.7374846956001 L 322.29294747533896 688.9831979960211 L 327.2179083767577 688.1202031411715 L 332.12360353709227 687.1536862019149 L 337.0088738786907 686.0887290715574 L 341.8728268885735 684.9302986171704 L 346.71481811096805 683.6832537092964 L 351.53442624272805 682.3523226606418 L 356.33143734932634 680.9421154265189 L 361.1058260985854 679.4571197797412 L 365.8577358310109 677.9016925410446 L 370.58746738888505 676.2800762515205 L 375.29545753270173 674.5963812655671 L 379.9822707790913 672.8546058513799 L 384.6485820522847 671.0586272597291 L 389.26357889003856 669.1346199345033 L 393.8259943818867 667.0890479167675 L 398.3349188213718 664.9281220968899 L 402.7897665534353 662.6578067698639 L 407.1902346058205 660.2838057336515 L 411.5362792313236 657.8115808019078 L 415.82807953186057 655.2463419864539 L 420.0660162661763 652.593062461802 L 424.25064336607954 649.8564777226142 L 428.38266726626716 647.0410952462394 L 432.4629243917112 644.1511987445868 L 436.49236280498644 641.1908565222042 L 440.47202185274045 638.1639250952257 L 444.4030191179673 635.0740609395096 L 448.2865273347084 631.9247175269069 L 452.1422666407623 628.7414370799855 L 455.96991700428794 625.5244365057547 L 459.7692412358959 622.274031087485 L 463.5400717608475 618.9906125713509 L 467.282297630216 615.6746292266055 L 470.99585171181127 612.3265676854944 L 474.6806980185954 608.9469363897198 L 478.336819123214 605.5362504662781 L 481.96420362171784 602.0950178818669 L 485.56283358687665 598.6237267137478 L 489.1326719943164 595.1228334356304 L 492.67358176938507 591.5926835854366 L 496.18532272864326 588.0335157845218 L 499.6676254810304 584.4455403748073 L 503.12022902711783 580.8289772613604 L 506.54288003349586 577.1840547534681 L 509.9353319852093 573.5110083672492 L 513.2973424714347 569.8100780125262 L 516.6286193833932 566.0814597515813 L 519.9287953310572 562.3252863377917 L 523.1974267582511 558.5416308839798 L 526.433993130812 554.7305105610291 L 529.6378965181945 550.8918906157467 L 532.808461600981 547.025688725543 L 535.9449358592565 543.1317794781189 L 539.0464898357308 539.2099988964167 L 542.1122175095467 535.2601490473718 L 545.141136816498 531.2820027665047 L 548.1321903569772 527.2753085283592 L 551.0842465158609 523.2397956198436 L 553.9961011100354 519.1751796696726 L 556.8664795855371 515.0811685061099 L 559.6940397830737 510.9574683073433 L 562.4773752856112 506.8037900000698 L 565.21501935584 502.619855853272 L 567.9054494656967 498.4054062066424 L 570.5470924142477 494.160206266431 L 573.1473187900575 489.88951278708333 L 575.6707256101475 485.572984318473 L 578.1137668329629 481.2104678905813 L 580.4728972323088 476.80200968403307 L 582.7445908048402 472.3478646131446 L 584.9253597557303 467.84850390490686 L 587.0117738145826 463.304620502461 L 589.0004769716999 458.7171310198712 L 590.8882079036674 454.0871772481265 L 592.6718195374576 449.41612495342804 L 594.3482969104344 444.70555984742464 L 595.914770355639 439.95728005938884 L 597.3685329599975 435.1732885993036 L 598.7070556601086 430.3557833339938 L 600.0090606463207 425.5282805617648 L 601.271718095906 420.69033718001606 L 602.4922461789757 415.84159392032103 L 603.6679182968549 410.98177961612777 L 604.796069547349 406.11071456256826 L 605.8741082313222 401.2283142721519 L 606.8995237954787 396.33459146422894 L 607.8698905966498 391.42965637075577 L 608.7857962815395 386.5142604786239 L 609.6498224488428 381.58948040412156 L 610.4658241848284 376.65651565998763 L 611.2384310218866 371.7165684259242 L 611.972693860483 366.770776468729 L 612.6738354629476 361.8201804992226 L 613.3730154821999 356.8693071115587 L 614.0636783882477 351.91723837716 L 614.7510066133423 346.96470570074194 L 615.4398908451768 342.01238922103977 L 616.1349279673767 337.060932526413 L 616.840419958694 332.1109546426051 L 617.5603735486582 327.16305945087987 L 618.2985005073305 322.2178427121634 L 619.0582184666489 317.2758968785581 L 619.8426522235917 312.3378138819927 L 620.6546355130388 307.4041860952967 L 621.4966271901587 302.4755909591894 L 622.3707578303391 297.5525943490039 L 623.2788347524806 292.6357461407028 L 624.2223477365419 287.72557473341897 L 625.2024753730295 282.82258076889144 L 626.2200920235043 277.92723028576194 L 627.2757753945519 273.0399475417319 L 628.3698147382212 268.16110772938885 L 629.5022196935955 263.2910298021844 L 630.6727297797217 258.42996961553 L 631.8808245416805 253.57811357416523 L 633.1257346231347 248.73557303338566 L 634.4064535805277 243.90237958058717 L 635.7217503910367 239.07848133329125 L 637.0701825955217 234.2637403651905 L 638.4501100085764 229.45793134539997 L 639.8597089206273 224.66074144847647 L 641.2969867119482 219.87177156440163 L 642.7597967954866 215.0905388091911 L 644.2458538044419 210.31648030869752 L 645.7527489414023 205.54895820112367 L 647.2779654082875 200.7872657783456 L 648.8188938390994 196.03063466261722 L 650.3728476617251 191.2782428945549 L 651.9370783198815 186.52922379077316 L 653.5087902913496 181.7826754155068 L 655.0775312231444 177.03514427933595 L 656.631820787654 172.28286230646682 L 658.159794146275 167.5220538230951 L 659.6491678694366 162.74902900514624 L 661.0872119645509 157.96028917294538 L 662.4607311744762 153.15264474142114 L 663.7560592509768 148.32334612006534 L 664.9590704002284 143.47022710496006 L 666.0552124655434 138.59185928645283 L 667.0295665574421 133.68771470216495 L 667.8669376446627 128.7583324221742 L 668.5520067278226 123.80548674001344 L 669.0695234171283 118.83234120863291 L 669.4025302603713 113.84344288912857 L 669.5344989071837 108.84518476491584 L 669.4498646382024 103.84590111217979 L 669.1344097715732 98.85586221181839 L 668.5756561267589 93.88718086115736 L 667.7632423550201 88.95362394312254 L 666.6892590306728 84.07032999139037 L 665.348514434503 79.25344262216099 L 663.7387074804221 74.51967862608 L 661.8604911327534 69.88585694723325 L 659.7174191221328 65.36841935969598 L 657.3157795884623 60.98297439363942 L 654.6643289872752 56.74389315951985 L 651.7739477453847 52.663979401052984 L 648.6572440505895 48.75422773645199 L 645.3281335377965 45.023675070477246 L 641.8014208137961 41.47934193681538 L 638.0908989179923 38.127920259264094 L 634.2099624675758 34.97540820253398 L 630.1719083657217 32.02682904122598 L 625.9900326878397 29.286041596943054 L 621.677602621768 26.75563709859892 L 617.2477597167838 24.436910759170072 L 612.7133933618477 22.32989349316982 L 608.0870101954199 20.433428677415648 L 603.3806152450575 18.7452798181018 L 598.6064780786949 17.25947555213828 L 593.7762720969932 15.967535083566244 L 588.9006144997156 14.859400166640903 L 583.9888664821344 13.924129397404977 L 579.0490943555399 13.150403775934677 L 574.0881241735657 12.526885649844303 L 569.111645731301 12.042466086165579 L 564.1243380863032 11.686428933404839 L 559.1299997515716 11.448553759772276 L 554.1316739258568 11.319174704309605 L 549.131763726462 11.289208089750947 L 544.1321352362341 11.350158559002214 L 539.1342078845397 11.494110589846018 L 534.1390945804376 11.715115293828033 L 529.1476532628657 12.007542332995971 L 524.1605223386698 12.366046370531148 L 519.1781533679656 12.78556924209322 L 514.2008404664138 13.261338387841425 L 509.2287464911781 13.788862322298248 L 504.2619261526531 14.363923818848113 L 499.3003462439294 14.982571383580742 L 494.34390320951036 15.641109496797162 L 489.3924382886773 16.336088012839003 L 484.4457504713789 17.06429103273947 L 479.50360678657 17.822720857247734 L 474.56575092046313 18.608583087892324 L 469.63191042415815 19.41927289109749 L 464.701802714343 20.252362303838627 L 459.775140040236 21.105588472894198 L 454.8516335646631 21.97684273256323 L 449.9309966861007 22.864160437408362 L 445.01294771085 23.765711477026226 L 440.09721196959276 24.67979140904841 L 435.1835234599061 25.604813154616224 L 430.2716260854846 26.539299207562777 L 425.361274556458 27.48187432997261 L 420.4522350062272 28.43125870643457 L 415.5442853723862 29.38626152929916 L 410.6372155825033 30.345774987891026 L 405.73082757967825 31.308768635707285 L 400.82493521773483 32.27428411099774 L 395.9193640515603 33.24143018765698 L 391.0139510443519 34.20937813497174 L 386.1051919422823 35.16021149463517 L 381.19294025968384 36.0928332865789 L 376.2770865358604 37.00627850440618 L 371.3577073343064 37.90054259924488 L 366.43498626568214 38.77622363736507 L 361.5091644671503 39.63429100599575 L 356.58051245867716 40.47594971317681 L 351.6493035509002 41.302495965881846 L 346.71580868312685 42.11528646143048 L 341.7802818371118 42.91564560098258 L 336.8429637440919 43.70487943726855 L 331.9040738885046 44.48421697285726 L 326.9638149339371 45.25482806920556 L 322.02237186712694 46.017809338617596 L 317.07991118271195 46.77417061671965 L 312.1364970374179 47.524275001526505 L 307.19212942119594 48.26806857211962 L 302.2467715255201 49.00524920376756 L 297.3003694135743 49.735390386647815 L 292.3528660958921 50.45803201395973"
        fill="none"
        stroke="#1B5E20"
        stroke-width="2"
        stroke-linecap="round"
        stroke-linejoin="round"/>

  <circle cx="150" cy="150" r="2.5"
          fill="limegreen"/>

  <circle cx="292.3528660958921" cy="50.45803201395973" r="2.5"
          fill="red"/>

</svg>