<?xml version="1.0" encoding="UTF-8"?>
<svg xmlns="http://www.w3.org/2000/svg"
     width="800" height="800"
     viewBox="0 0 800 800">

  <rect x="0" y="0"
        width="800"
        height="800"
        fill="white"/>

  <text x="10"
        y="22"
        font-family="Arial"
        font-size="14"
        fill="#444">
        MeanderGen - Development Preview
        </text>
  <path d="M 150 150 L 155.0 150.0 L 159.99999605318754 149.99371763506915 L 164.9999614728307 149.9751218728509 L 169.9998267912421 149.93842312972782 L 174.99946245575256 149.87806401976866 L 179.99866399203978 149.7887107904836 L 184.99713939118695 149.66524547502763 L 189.99449850085566 149.50275877092216 L 194.99017902798656 149.29497024658784 L 199.9834607609597 149.03586112834498 L 204.97341794769045 148.71911631845194 L 209.9589248804748 148.3386946797941 L 214.93864547542626 147.8888249250691 L 219.9110253523338 147.3640027078137 L 224.87428619722826 146.75898883562752 L 229.82642221372458 146.06880851562408 L 234.7678145185735 145.30549855919742 L 239.69929308732074 144.48056272776176 L 244.6220340846358 143.60499372799438 L 249.53746911559332 142.68929811457488 L 254.44720525924288 141.7435227714087 L 259.3529548065427 140.77728192194732 L 264.2564736985947 139.79978385274748 L 269.1595077419634 138.81985672812675 L 274.063745761182 137.84597303340203 L 278.97077893111646 136.88627231486356 L 283.8820656114351 135.9485819908628 L 288.79890108053814 135.04043609412022 L 293.72239163603285 134.16909187398983 L 298.65343259272373 133.34154424186394 L 303.59268976695415 132.56453808563776 L 308.5405840880474 131.84457851226358 L 313.49727902376395 131.18793910266191 L 318.4626705474298 130.60066828207988 L 323.4363794100766 130.08859392260752 L 328.4177455119734 129.65732630398406 L 333.4058241947487 129.3122595648696 L 338.3993842983079 129.05857178009944 L 343.3969078463622 128.9012238006306 L 348.3965912409672 128.84495699237792 L 353.39634786039795 128.89429000828667 L 358.3938119662779 129.05351472509133 L 363.3863438354474 129.3266914725034 L 368.3710360398695 129.7176436782441 L 373.3447208041812 130.22995204754366 L 378.3039783755267 130.86694839058836 L 383.24514634425617 131.63170920600845 L 388.16432985711134 132.52704912294152 L 393.0574126668115 133.5555142985391 L 397.9200689636268 134.7193758620605 L 402.74777593570957 136.0206234909551 L 407.53582700574447 137.46095919860727 L 412.27934569197254 139.04179140773172 L 416.9733000419131 140.76422937778287 L 421.6125175872239 142.62907804919834 L 426.19170076815556 144.63683336184795 L 430.7054427760217 146.78767809971825 L 435.1482437620612 149.08147830863933 L 439.51452736104295 151.5177803287639 L 443.7986574779895 154.09580847854653 L 447.9949552864893 156.81446342215003 L 452.0977163872485 159.672321247532 L 456.10122807581416 162.6676332779419 L 459.9997866687899 165.79832663519278 L 463.7877148383699 169.06200556886603 L 467.45937890563954 172.4559535615614 L 471.0092060438351 175.97713621642757 L 474.4317013436155 179.62220492949473 L 477.7214646933808 183.38750134578663 L 480.8732074287643 187.2690625948148 L 483.88176870662824 191.26262729785117 L 486.74213156020124 195.36364233633853 L 489.4494385933999 199.56727036793134 L 491.99900727387393 203.8683980739575 L 494.38634478589626 208.26164511955955 L 496.6071624058788 212.7413738054037 L 498.65738936502316 217.30169938763987 L 500.53318616540946 221.9365010407487 L 502.2309573176733 226.63943343602517 L 503.7473634703185 231.4039389067136 L 505.07933290265044 236.223260169229 L 506.22407235528743 241.09045356846602 L 507.1790771742071 245.99840281390857 L 507.94214074630656 250.939833172108 L 508.51136320648993 255.9073260800871 L 508.88515939834326 260.89333414335334 L 509.0622660725034 265.8901964814579 L 509.0417483088755 270.89015438341823 L 508.82300515089133 275.8853672348226 L 508.4057744420282 280.8679286780545 L 507.79013685681974 285.829882966808 L 506.9765191205783 290.76324147590435 L 505.96569641401493 295.65999932737054 L 504.75879396088004 300.5121520937843 L 503.35728779865235 305.3117125400375 L 501.7630047341749 310.0507273649057 L 499.98034148701765 314.72214168470595 L 498.01384826607733 319.31919556866205 L 495.8682157346211 323.8354175561154 L 493.548262940535 328.26461827782714 L 491.05892613018375 332.60088421116546 L 488.40524836971974 336.8385715927002 L 485.59236990290725 340.9723005062772 L 482.62551917954266 344.99694915992023 L 479.5100044933337 348.9076483608326 L 476.25120617264537 352.69977619426317 L 472.85456927182645 356.3689529090039 L 469.3255967148984 359.91103600972986 L 465.669842847217 363.32211555423373 L 461.8929073543217 366.59850965179095 L 458.0004295105615 369.7367601573809 L 453.9980827232524 372.733628555245 L 449.89156934107604 375.58609202424964 L 445.6866156981889 378.2913396767152 L 441.38896736808533 380.84676896173914 L 437.0043846036508 383.2499822235667 L 432.53863794207166 385.49878340521764 L 427.99750395533533 387.5911748873519 L 423.386761128977 389.5253544522283 L 418.71612723662713 391.3100614432026 L 413.9886391200653 392.938206432989 L 409.20798210063043 394.40289700185616 L 404.37848103157125 395.69747006814333 L 399.50508877422874 396.8155254809355 L 394.59337204246657 397.75096053850365 L 389.64949457437115 398.4980051024076 L 384.6801976064365 399.0512569839906 L 379.6927776428434 399.40571728748506 L 374.69506153069085 399.5568254021945 L 369.69537887082475 399.5004933452993 L 364.7025318129583 399.2331391668132 L 359.7257623028294 398.7517191391327 L 354.7747168679689 398.0537584654938 L 349.8594090470499 397.1373802544846 L 344.9901795855771 396.0013325215415 L 340.1776545376798 394.6450129930522 L 335.43270142986387 393.0684915042587 L 330.7663836576175 391.2725297985374 L 326.18991329965434 389.25859855276843 L 321.71460254721427 387.02889147131265 L 317.35181395715654 384.58633630950726 L 313.1129097475056 381.9346027064838 L 309.00920036259964 379.0781067264001 L 305.05189254200957 376.02201202677173 L 301.25203713292194 372.772227592378 L 297.62047688969665 369.33540199310397 L 294.16779450682594 365.7189141439589 L 290.90426113254193 361.930860565281 L 287.83978560986526 357.98003916069746 L 284.98386468999047 353.87592954965857 L 282.3455344595975 349.628670010215 L 279.933323219012 345.2490311060594 L 277.75520604215905 340.7483860896314 L 275.81856124202454 336.1386781901966 L 274.1301289569196 331.43238491218943 L 272.6959720633031 326.64247948467914 L 271.5214396103301 321.7823896175148 L 270.6111329597321 316.8659537334747 L 269.96887480218163 311.90737485852884 L 269.5976812080271 306.9211723640789 L 269.49973685628817 301.92213176572784 L 269.67637357116035 296.92525279271285 L 270.12805228007824 291.9456959505922 L 270.854348491712 286.9987278070758 L 271.8539413762073 282.09966523702565 L 273.12460651361295 277.2638188676109 L 274.663212359853 272.50643596837773 L 276.4657204628753 267.84264303359396 L 278.5271894448306 263.28738830565214 L 280.84178274937835 258.85538448857994 L 283.40278013656257 254.56105189982583 L 286.20259289122066 250.41846230648525 L 289.2327826946589 246.44128368903054 L 292.4840840934147 242.64272617143934 L 295.94643048339873 239.03548935141146 L 299.6089835126286 235.63171125816288 L 303.46016579119436 232.44291915812548 L 307.4876967830873 229.47998242080865 L 311.6786317411346 226.75306764813666 L 316.0194035335592 224.2715962608161 L 320.4958671986749 222.04420472475888 L 325.0933470529725 220.07870758934305 L 329.7966861673935 218.38206349739056 L 334.5902980169539 216.9603443142345 L 339.45822010010863 215.8187075101963 L 344.3841693163587 214.96137191725418 L 349.3515988836242 214.39159696671982 L 354.34375657085405 214.11166550040755 L 359.3437440162347 214.12287023314462 L 364.3345768972052 214.42550392958947 L 369.29924571529307 215.01885334326215 L 374.2207769565591 215.9011969505049 L 379.0822943871773 217.0698064968443 L 383.86708024337946 218.52095235797873 L 388.55863607565243 220.24991270242438 L 393.14074300867907 222.25098642778013 L 397.5975211810529 224.51750982767078 L 401.9134881322473 227.04187693175797 L 406.07361590866907 229.81556344682127 L 410.06338666584764 232.82915421286145"
        fill="none"
        stroke="#1B5E20"
        stroke-width="2"
        stroke-linecap="round"
        stroke-linejoin="round"/>

  <circle cx="150" cy="150" r="2.5"
          fill="limegreen"/>

  <circle cx="410.06338666584764" cy="232.82915421286145" r="2.5"
          fill="red"/>

</svg>