<?xml version="1.0" encoding="UTF-8"?>
<svg xmlns="http://www.w3.org/2000/svg"
     width="800" height="800"
     viewBox="0 0 800 800">

  <rect x="0" y="0"
        width="800"
        height="800"
        fill="white"/>

  <text x="10"
        y="22"
        font-family="Arial"
        font-size="14"
        fill="#444">
        MeanderGen - Development Preview
        </text>
  <path d="M 150 150 L 154.99987815352696 150.0349063014898 L 159.999476849063 150.09825362656667 L 164.99874285083183 150.18392417902294 L 169.99769801792374 150.28613590733792 L 174.99641427202098 150.39943114564926 L 179.99499237940654 150.5186658065744 L 184.9935441560357 150.638999244809 L 189.99217774448675 150.7558848658621 L 194.99101978535361 150.86348714493664 L 199.990157550288 150.9563397550617 L 204.9896327118124 151.0287835905515 L 209.98941405159925 151.07554419704002 L 214.98938787073672 151.09172467724872 L 219.98935205607938 151.07279995028026 L 224.98901346354734 151.01461223099489 L 229.9879883103153 150.91336756999425 L 234.98627739541047 150.78257681413334 L 239.9841010093686 150.63506707288727 L 244.9817877576567 150.48299088808 L 249.97968038599078 150.3378382937394 L 254.9780573596731 150.21045058254887 L 259.9770689152499 150.11103495394903 L 264.9766862910292 150.0491795111317 L 269.9766628476701 150.0338683047465 L 274.9765058074366 150.07349629578894 L 279.9754573685007 150.17588423518848 L 284.97248398757006 150.34829353978827 L 289.9662726693496 150.59744129059192 L 294.95523315445996 150.92951549616575 L 299.9375049579335 151.35019075846722 L 304.9109682776822 151.86464445620373 L 309.8732578655098 152.47757352757964 L 314.82177903122096 153.1932118947099 L 319.7537250318247 154.01534853002602 L 324.66609518127024 154.9473461238191 L 329.55571310004086 155.99216027400917 L 334.4192446067607 157.1523590859132 L 339.2532148343449 158.43014304215524 L 344.05402422992944 159.82736498131408 L 348.81796316988357 161.34555000837386 L 353.54122498792 162.98591515012725 L 358.21991727524596 164.7493885637392 L 362.85007136667605 166.63662810593118 L 367.42764997573676 168.6480390728571 L 371.94855298534543 170.7837909258848 L 376.4086214391173 173.0438328254231 L 380.80363981238173 175.42790780299157 L 385.1293366722986 177.9355654104223 L 389.38138386385805 180.56617269406453 L 393.5688262574439 183.29844760709943 L 397.6882475669635 186.13223801478233 L 401.7361651229106 189.06726160246532 L 405.70902488441345 192.10311161777105 L 409.6031957468877 195.23926105519533 L 413.4149632659318 198.47506518720957 L 417.14052293713576 201.80976234531835 L 420.77597319225913 205.24247285488997 L 424.3173082950863 208.77219602951484 L 427.76041509719647 212.39780157193985 L 431.10115975650166 216.1179393545124 L 434.33543383452826 219.93100520605563 L 437.4591653901212 223.83514418521517 L 440.46833005445785 227.8282542541849 L 443.3589620503221 231.90799035649422 L 446.12716512075474 236.0717689001787 L 448.7691233343364 240.31677264548782 L 451.28111173646636 244.63995599431362 L 453.65950681806606 249.03805067676672 L 455.90079677514353 253.50757182878107 L 458.0015915343227 258.04482445342137 L 459.95863251500634 262.64591026004626 L 461.7688021020511 267.30673487229444 L 463.4291328062603 272.0230153932834 L 464.93681609149536 276.79028831513534 L 466.2892108486811 281.60391775878145 L 467.48385149843125 286.45910402894293 L 468.51845570544606 291.35089246823867 L 469.3909316892386 296.2741825935213 L 470.09938511712295 301.2237374967948 L 470.64212556675096 306.19419349240906 L 471.01767254680794 311.18006999165874 L 471.2247610657774 316.17577958543126 L 471.2623467399539 321.1756383151452 L 471.12961043312436 326.17387611189406 L 470.82596242154887 331.1646473834578 L 470.3510460790532 336.14204172865794 L 469.704741078194 341.1000947584131 L 468.88716610457504 346.0327990027918 L 467.89868108247987 350.93411488335835 L 466.7398889110375 355.7979817301587 L 465.4116367111595 360.61832882279833 L 463.9150165844731 365.3890864352114 L 462.2513658864301 370.1041968639184 L 460.4222670166914 374.7576254198028 L 458.42954673077605 379.34337136371437 L 456.2752749778171 383.85547876651447 L 453.96387021463795 388.2891463251788 L 451.49978754258194 392.63981254833055 L 448.8875117314809 396.90314634792173 L 446.13155101856677 401.0750380709742 L 443.23643160432465 405.1515909747494 L 440.20669277269576 409.12911314465873 L 437.0468825682192 413.0041098506813 L 433.7615539676633 416.7732763349811 L 430.3552614884444 420.4334910207635 L 426.8325581806682 423.9818091301475 L 423.1979929539634 427.4154566969238 L 419.4561080929286 430.7318248439724 L 415.61143703053676 433.92846439543996 L 411.6685023475378 437.0030808081985 L 407.63181396895646 439.9535294070096 L 403.50586753158876 442.77781090784714 L 399.29514289897344 445.4740672139661 L 395.00410280266857 448.04057746952793 L 390.63719159082 450.47575435588163 L 386.1988340669778 452.77814061595035 L 381.6934344039188 454.94640579256225 L 377.1253751188783 456.97934316699246 L 372.4990160980977 458.87586688444026 L 367.8226013572008 460.64537110063264 L 363.0978011445605 462.28129987372574 L 358.3268352563305 463.77725592032135 L 353.5124679479845 465.12702161122064 L 348.65800087106913 466.32458137972714 L 343.7672640238889 467.3641452746531 L 338.84460470880776 468.2401733950036 L 333.8948744952217 468.94740094870406 L 328.9234141956436 469.48086368378404 L 323.9360368724015 469.83592344721836 L 318.93900890383674 470.00829363426243 L 313.939029153149 469.99406364082955 L 308.9432063816546 469.78972364029653 L 303.95903571641156 469.39217769360494 L 298.99441428787685 468.79843189670714 L 294.0576889818156 468.00549857511277 L 289.15769501844574 467.01048140996505 L 284.3037836820316 465.8106711173644 L 279.505837031641 464.40365017224474 L 274.77426753276 462.7874044986978 L 270.1200008081475 460.960439459031 L 265.55444013293607 458.92189691079636 L 261.08941189777863 456.67166962022173 L 256.7370920208979 454.2105089815578 L 252.5099141700003 451.54012185290384 L 248.42046158797154 448.6632524468761 L 244.48134525862014 445.5837455798863 L 240.70507200884646 442.3065882228093 L 237.10390683056053 438.8379271902636 L 233.68973415105526 435.1850618882685 L 230.4739229333758 431.35641222915274 L 227.4672003268038 427.36146302207527 L 224.67953812313905 423.21068725864757 L 222.12005554974735 418.91545164735635 L 219.7969410132665 414.4879084402954 L 217.7173943816763 409.9408780019718 L 215.88759034432263 405.2877266843286 L 214.31266239969167 400.5422444149254 L 212.9967061540649 395.71852601937246 L 211.94279991487392 390.8308597419969 L 211.15304005278256 385.8936257633172 L 210.6285882880129 380.9212068000328 L 210.3697279144956 375.9279121655232 L 210.37592598393974 370.92791600713116 L 210.6458985985886 365.9352098484093 L 211.17767667242646 360.9635690649068 L 211.96866978420266 356.0265325147967 L 213.015726034698 351.13739422586497 L 214.3151861139974 346.3092057972401 L 215.86293006744853 341.554787993286 L 217.65441551311048 336.8867498724068 L 219.68470630627445 332.31751368949904 L 221.948490870574 327.85934372342115 L 224.4400896270579 323.52437709878745 L 227.15334853909437 319.3245882854952 L 230.0814479575525 315.271659246439 L 233.2169130656867 311.3769373621868 L 236.55163136424142 307.651396613613 L 240.07687250432187 304.1055998196209 L 243.78331039070514 300.7496620677574 L 247.6610474709792 297.59321546813504 L 251.6996411195153 294.6453753534063 L 255.88813201981552 291.9147080397076 L 260.21507444422434 289.4092002556744 L 264.6685683263111 287.1362303389761 L 269.236293023279 285.1025413035752 L 273.9055426642033 283.31421588835343 L 278.663262963502 281.7766536770459 L 283.49608937401507 280.4945503715953 L 288.39038644976006 279.47187929331363 L 293.33228828459875 278.71187517831294 L 298.30773988970134 278.21702032557096 L 303.30253936983564 277.989033147751 L 308.30238075614255 278.02885916654066 L 313.2928973511874 278.33666448582886 L 318.25970544070015 278.9118317675395 L 323.18844822553535 279.7529587264076 L 328.0648398269909 280.85785915144754 L 332.874709218724 282.22356645334986 L 337.6040439390831 283.84633972858137 L 342.2390334387358 285.7216723225788 L 346.76611191999893 287.84430286614605 L 351.1720005262698 290.20822875101055 L 355.44374874239725 292.80672200249535 L 359.5687748697108 295.63234749943945 L 363.5349054427355 298.67698348387484 L 367.3304134583394 301.9318442955665 L 370.9440552921822 305.38750525936223 L 374.3651061818357 309.0339296464024 L 377.58339416081844 312.8604976236289 L 380.58933233300604 316.85603709971787 L 383.37394938242915 321.0088563695708 L 385.9289182193355 325.3067784538387 L 388.2465826695461 329.7371770246481 L 390.3199821205638 334.2870138037556 L 392.1428740445686 338.94287731479176 L 393.70975432534163 343.6910228670811 L 395.0158753232714 348.5174136447499 L 396.0572616198929 353.4077627714697 L 396.8307233908676 358.34757621823474 L 397.33386736390685 363.3221964190535 L 397.5651053258499 368.3168464573401 L 397.52366015090564 373.3166746841369 L 397.2095693299309 378.30679962808165 L 396.62368598852487 383.2723550562551 L 395.76767738964094 388.1985350447083 L 394.5953177517015 393.0591494996235 L 393.1105518783058 397.8336097100766 L 391.31872957221515 402.5015185377419 L 389.22660048395903 407.04277341696553 L 386.842300704561 411.43766983917646 L 384.17532638719143 415.66700170017896 L 381.23650751531216 419.71216469297497 L 378.037970789689 423.55525756393706 L 374.5930927558944 427.17918020829353 L 370.9164447539013 430.5677284917683 L 367.0237299328584 433.70568504373534 L 362.9317118021586 436.5789040778544 L 358.65813544630294 439.1743896067433 L 354.2216475991801 441.48037650660444 L 349.6417037833828 443.4863961087371 L 344.9384706645168 445.1833340067175 L 340.1327243423604 446.56347975520936 L 335.2457453158371 447.620568206722 L 330.2992103655358 448.349808897748 L 325.31508385476025 448.74790803688796 L 320.3155087265555 448.81308884262427 L 315.32269577188487 448.5450985449023 L 310.3588132293931 447.9452068010472 L 305.4458774156307 447.01619566556445 L 300.605681836743 445.7621993505317 L 295.8597900627099 444.188505838705 L 291.22947956485007 442.3016500695989 L 286.73565376154244 440.1094982387426 L 282.3987316838576 437.6213047390144 L 278.23851791557337 434.8477472036136 L 274.2740545049584 431.80094070074955 L 270.52347301105783 428.49441103089765 L 267.0038629672402 424.9430246622441 L 263.7311276305202 421.16291839180883 L 260.71987699937745 417.17138113951586 L 257.98333834656785 412.986723901261 L 255.5332849379403 408.62814175853697 L 253.37718391388782 404.1169081828861 L 251.52088165660078 399.4742643316316 L 249.9687015337966 394.7212929592824 L 248.72355640407406 389.8788128502961 L 247.78705004591083 384.9673002685022 L 247.15961004935193 380.0068245805547 L 246.84059199168794 375.01701221144856 L 246.82838480161126 370.0170271130197 L 247.1205329897192 365.0255694665816 L 247.71380373153679 360.0608912467064 L 248.6041084926998 355.14079394764303 L 249.7864611334863 350.28260063810654 L 251.25500507272005 345.50312590770574 L 253.0030730932166 340.8186560128599 L 255.02320119896748 336.2449176691901 L 257.3071899579782 331.7970647772081 L 259.84611635304975 327.48964643666943 L 262.630394314275 323.33659981585777 L 265.6497861769237 319.3512174277085 L 268.89345295250143 315.54613847333536 L 272.3490522862861 311.93243770482303 L 276.00388767170955 308.5203740615923 L 279.84496217453767 305.31941378946715 L 283.85900359343464 302.33822753440364 L 288.0325000328961 299.5846975327871 L 292.35173517907225 297.0659264530665 L 296.7939421531748 294.77097608339943 L 301.33920604343956 292.68757113767833 L 305.9702462916441 290.8025071548094 L 310.67218492547494 289.10198573956967 L 315.43231053947045 287.5718863509731 L 320.23984533133046 286.197983434077 L 325.0857204036535 284.9661170519404 L 329.9623628757706 283.862324408758 L 334.86349704965346 282.87293883700255 L 339.7683876929109 281.9023473793409 L 344.67439401610693 280.93741113442076 L 349.5790434056691 279.96560129424233 L 354.47993399104627 278.9750098193339 L 359.37464707176946 277.95433168329026 L 364.260673031971 276.8928467252073 L 369.13535528416986 275.7804291147311 L 373.9958414795239 274.607537838963 L 378.8390416945135 273.36519663079014 L 383.6616063173603 272.0450184388529 L 388.4598973430092 270.6391723472847 L 393.22998084083434 269.14040504587473 L 397.96761827831443 267.5420335274264 L 402.66826806926304 265.8379526775678 L 407.3426956319784 264.06320566434965 L 411.9892374157698 262.21668205186035 L 416.6046389571956 260.29364575178585 L 421.19297002303256 258.3068850640644 L 425.75870042913317 256.268722691041 L 430.30658851827616 254.19105237825522 L 434.84157798360906 252.08537658428315 L 439.3687015537522 249.9628422074934 L 443.8929910060842 247.83427345090655 L 448.41939315836817 245.7102010519995 L 452.95269165544033 243.60088724498945 L 457.46422303302654 241.44540942579138 L 461.9651473008388 239.26786936062177 L 466.46058171482713 237.07901819402102 L 470.95518625722525 234.8884634680545 L 475.4531793860693 232.70487517973828 L 479.958360962883 230.5361569039038 L 484.47413827258873 228.38958864522982 L 489.0035524853714 226.27194682257849 L 493.5493038742642 224.18960575772402 L 498.10755912130844 222.1347799493418 L 502.67985242519495 220.1113833141675 L 507.2628593734709 218.11237173039558 L 511.8538134649704 216.1316797983315 L 516.450402549723 214.16410037530085 L 521.0506859799619 212.20517404655124 L 525.6530277083558 210.25108842532467 L 530.2560416903608 208.2985868807755 L 534.858546805058 206.3448861183285 L 539.4595291621469 204.3876019412715 L 544.0581101600101 202.42468248136194 L 548.6535469438356 200.45441326984198 L 553.2452107445733 198.47536715087577 L 557.8325898581024 196.48640941659468 L 562.4152915111539 194.48669804764168 L 566.9930427465376 192.47567999030295 L 571.5656904016737 190.45308427638022 L 576.1332002184967 188.4189126825304 L 580.6956551038171 186.37342852971588 L 585.2532525524755 184.31714413888312 L 589.8063012473235 182.2508073845415 L 594.3569916626922 180.1792821630025 L 598.9081037309755 178.10868347133726 L 603.4626051809892 176.0455507703643 L 608.0236291908153 173.99687803373953 L 612.6026974814768 171.98886070576182 L 617.2102033804963 170.04698290566736 L 621.855102071925 168.19633000834602 L 626.5446093242048 166.4618209334734 L 631.2838988700415 164.86835471145238 L 636.0757953485472 163.4408645576212 L 640.9204665850656 162.2042722197623 L 645.8157779802015 161.18646755055866 L 650.7561933701579 160.41686000467476 L 655.731837957431 159.92394932195486 L 660.7282503266003 159.73457287882627 L 665.7263329012379 159.87303073199533 L 670.7025483043365 160.3601449505985 L 675.6293909587871 161.21233123204482 L 680.4761348118598 162.4407749721901 L 685.2098229223299 164.05080505662758 L 689.7964295466577 166.04154353108183 L 694.202098417235 168.4058789139803 L 698.3943492204521 171.1307703251976 L 702.3431505080785 174.1978484772571 L 706.0217797498427 177.58424581094914 L 709.4074241967486 181.2635679875376 L 712.4815115537064 185.20691515990183 L 715.2297900406458 189.3838716306142 L 717.6421987488701 193.7634017680243 L 719.7288007385877 198.30719887358555 L 721.5029025124948 202.98187136434035 L 722.9800005179777 207.75870938568858 L 724.1769378516715 212.61332997016373 L 725.1112487522742 217.52526066399636 L 725.8006629288808 222.47750339765693 L 726.2627412474662 227.4561059754385 L 726.5146165033916 232.4497578310901 L 726.5728164367314 237.4494190963919 L 726.453149892552 242.44798688308882 L 726.1706405958287 247.43999935275122 L 725.7394943467293 252.42137596086744 L 725.173092255547 257.38919124236736 L 724.4840025417276 262.34147913447424 L 723.6840051589647 267.27706463039794 L 722.7841248905604 272.1954195893793 L 721.7946696457232 277.0965396979324 L 720.7252715332581 281.98083981944995 L 719.5836702651184 286.84877023643224 L 718.3762010271956 291.70078198821835 L 717.1100971432713 296.53782457177203 L 715.7921964888428 301.36101209301324 L 714.4289570108557 306.17158151104036 L 713.026473396409 310.9708564261925 L 711.590494274741 315.76021587836703 L 710.1264394795204 320.54106763894185 L 708.639417016066 325.3148255080825 L 707.1342394738782 330.0828901643653 L 705.6154397019785 334.84663315206706 L 704.0872913699349 339.60738547447073 L 702.5538319297627 344.3664297215173 L 701.0054324398249 349.1206340734105 L 699.4338113564219 353.86721254323515 L 697.8318571857268 358.6036397658358 L 696.193467415956 363.327587157828 L 694.5134033468735 368.03687422953834 L 692.7871600050878 372.7294304545548 L 691.0108501057861 377.40326433496205 L 689.1811009190494 382.05643722167457 L 687.2949628771537 386.68704012917095 L 685.3498287660718 391.29317226903686 L 683.3433624037443 395.87292037748654 L 681.2734959678273 400.42436552572946 L 679.1384223611711 404.94558888828965 L 676.9365839299045 409.4346764929814 L 674.6666586272361 413.88972297088776 L 672.327544524448 418.30883433112047 L 669.9183434057915 422.6901297982015 L 667.438344043152 427.0317427659023 L 664.8870056267077 431.33182093784006 L 662.2639417268757 435.58852574054816 L 659.5689050783903 439.8000311083852 L 656.8017734072624 443.9645217512659 L 653.9625362090081 448.08019085021556 L 651.0512824191677 452.14523714406505 L 648.0681889415364 456.15786138559497 L 645.013510017617 460.116262157594 L 641.8875674341756 464.01863104905306 L 638.6907415757365 467.86314719946984 L 635.4234633364383 471.64797122536703 L 632.08620691173 475.3712385479941 L 628.6794834955763 479.0310521451367 L 625.2038359136695 482.62547475334316 L 621.65983422799 486.15252055002634 L 618.0480723541957 489.6101463491848 L 614.3691657404732 492.9962423501141 L 610.6237501643886 496.3086224856696 L 606.8124817126943 499.54501442564214 L 602.9360380176947 502.70304930187416 L 598.9951208323413 505.78025123515476 L 594.9904600343314 508.7740267599533 L 590.9228471065196 511.6816933621446 L 586.7932357576848 514.5006133871852 L 582.6027415776449 517.2282054620842 L 578.3526332169287 519.8619440448159 L 574.0443190297833 522.3993499770313 L 569.6793372062998 524.8379835453762 L 565.2593542028166 527.1754501759228 L 560.7861630058055 529.4094064232523 L 556.2616811806935 531.5375662420231 L 551.6879486621181 533.5577075362215 L 547.0671252419633 535.4676789809685 L 542.4014630442588 537.2653430922284 L 537.6932722392824 538.9484768789298 L 532.9484968716645 540.5255332225163 L 528.1723468511062 542.0048543442208 L 523.3693006692201 543.3943677031598 L 518.543095086399 544.7011728425539 L 513.696939196741 545.9319340269976 L 508.8335978236672 547.0929295863986 L 503.95546147887404 548.190101314802 L 499.06460514122966 549.2291028954185 L 494.1628377850576 550.2153466715539 L 489.2517443664323 551.1540486655517 L 484.33272175012513 552.0502721311328 L 479.40707562473784 552.9093473591873 L 474.47595138545125 553.7363985889914 L 469.5403571177886 554.5363418526142 L 464.6011847455471 555.3138868849346 L 459.659229053892 556.0735407151217 L 454.7152046760641 556.8196123949513 L 449.7697611571738 557.5562183964646 L 444.8232601073541 558.2856890018577 L 439.8760461253113 559.0103087751736 L 434.927450781097 559.7254340224 L 429.9769066710646 560.426941694934 L 425.0239427642842 561.1111555051793 L 420.06817809396244 561.7747792934741 L 415.10931468357114 562.4148368511065 L 410.14713035238134 563.0286174823541 L 405.1814718610113 563.6136266678244 L 400.21224872020906 564.1675412613453 L 395.2394278853358 564.6881687138005 L 390.26303021937446 565.1734173822323 L 385.2831277218675 565.6212690488854 L 380.2998442556776 566.0297857506231 L 375.3133555331219 566.3971142409758 L 370.3240765238327 566.7243679154634 L 365.33238561203933 567.0125030246046 L 360.338631643511 567.2623455786419 L 355.343139509689 567.4746150793313 L 350.3462145321843 567.6499455364388 L 345.34814585562134 567.7889041790637 L 340.34920901316576 567.8920082291305 L 335.3496677939131 567.9597400310691 L 330.3497755153893 567.9925608043352 L 325.3497839250271 568.001731208211 L 320.3497856483429 567.9975799247136 L 315.34979200300637 567.989608312931 L 310.3497929162636 567.9865862984491 L 305.3498030231479 567.9966395934803 L 300.34989720516774 568.0273285381978 L 295.35023816095344 568.0857189621224 L 290.35109805624893 568.1784455146026 L 285.35287238697913 568.3116377030079 L 280.3560304272729 568.4893183989751 L 275.36111857445184 568.714830222495 L 270.36874177483526 568.9908264011827 L 265.37954060270647 569.3192646206837 L 260.39416500657194 569.7014035554523 L 255.41285879562062 570.133362387678 L 250.43571935654762 570.6109427516211 L 245.46269147749797 571.1295887910303 L 240.49356285046818 571.6843506210375 L 235.5279621790432 572.2698503835854 L 230.56536091382893 572.8802508115783 L 225.6050805851841 573.5092333719559 L 220.64630600879545 574.1499787976607 L 215.68810531404793 574.795149992465 L 210.72945773221537 575.4368774729317 L 205.76929004806345 576.0667477334576 L 200.80652508640426 576.6758158210537 L 195.84013948271837 577.2546197908927 L 190.86923084155913 577.7931987370541 L 185.89309414794246 578.2811163596523 L 180.91130696146962 578.7074922838024 L 175.92382247546502 579.0610435557041 L 170.93106895357545 579.3301388355947 L 165.93405337408197 579.5028678091323 L 160.9344663304128 579.5671281606343 L 155.93478439278755 579.5107320385696 L 150.938365293376 579.3215332461963 L 145.94953055217184 578.9875752773521 L 140.97362963395412 578.4972589997516 L 136.01731379817298 577.8377642416336 L 131.08861611316686 576.9963730544825 L 126.19688565171835 575.9614947560644 L 121.35271667134995 574.7229363643701 L 116.56781860078266 573.2721605531982 L 111.85482740449537 571.6025156856534 L 107.22706358774488 569.7094224348136 L 102.69824686025203 567.5905031232821 L 98.2821816458315 565.2456432080666 L 93.99243057348652 562.6769790148885 L 89.84199433485536 559.8888113317931 L 85.84301554570177 556.8874501999231 L 82.00652187577833 553.6810010235541 L 78.34221988615113 550.27910582693 L 74.85834635412125 546.6926556024292 L 71.56157909151172 542.9334900545734 L 68.45700494256045 539.0140998783262 L 65.54813920875038 534.9473443972743 L 62.83698840868515 530.7461943952742 L 60.32414706351348 526.4235067621001 L 58.00891897284895 521.9918345169766 L 55.90309599110673 517.4569133964314 L 54.016588408613345 512.8264610274728 L 52.35740413570715 508.1097770706509 L 50.93167579007267 503.31735610787496 L 49.743731167951765 498.46052714498427 L 48.796199782954304 493.55112959798885 L 48.09014674692041 488.601231709112 L 47.625225012125426 483.62289385592095 L 47.40254667709143 478.6278548811875 L 47.421846710693195 473.62789213045596 L 47.68164558823407 468.63464623792987 L 48.17940948321928 463.6594848229757 L 48.91170468674808 458.71340114648086 L 49.87434278878794 453.806943372842 L 51.06251425673491 448.95016990038556 L 52.470908995746385 444.15262633527595 L 54.093823246598134 439.42333999013016 L 55.92525277021726 434.77082820615624 L 57.9589726991857 430.20311726406317 L 60.188604511553564 425.72776901154947 L 62.60767122152611 421.35191295213633 L 65.20964173681753 417.08228188639373 L 67.98796535910333 412.9252495495158 L 70.93609738589184 408.88686898886726 L 74.04751672492179 404.972910673209 L 77.31573636809865 401.18889952576865 L 80.73430750036226 397.5401502313317 L 84.29681794672786 394.031800288761 L 87.99688559318832 390.66884037053177 L 91.82814735787782 387.456141615524 L 95.78424424045485 384.39847952568084 L 99.85880294175365 381.5005541661054 L 104.0454145234346 378.76700638636294 L 108.33761056911725 376.20242979257085 L 112.72883731426047 373.8113782095349 L 117.2124282312896 371.5983683838148 L 121.78157558800433 369.56787769616636 L 126.42930153931627 367.7243366791283 L 131.1484293622966 366.07211617617696 L 135.9315554989665 364.6155090360375 L 140.77102312596688 363.3587063119732 L 145.6588980200658 362.3057680328526 L 150.58694752749986 361.46058873100066 L 155.54662346694099 360.82685805024664 L 160.52904979374603 360.40801691334633 L 165.5250158206393 360.20720989621736 L 170.52501090307695 360.2142224278097 L 175.52082943213023 360.4186661236474 L 180.50546770181026 360.81030539701163 L 185.47300958892592 361.37910026315524 L 190.4083811397387 362.18041646505543 L 195.30181259745723 363.2072214945576 L 200.1442790565174 364.4524197088501 L 204.92744874718554 365.9088838211006 L 209.64363609222787 367.5694791741178 L 214.28575919744426 369.42708329664123 L 218.8809586922267 371.3979058668264 L 223.42811228713023 373.477183189445 L 227.92630384653773 375.66036268157916 L 232.3747890970845 377.9431195621225 L 236.7387608887928 380.38356013734125 L 241.0143263755022 382.97576764617605 L 245.19794232635815 385.71389795274365 L 249.28638094942013 388.5922081558759 L 253.3266569564406 391.53774202719615 L 257.3194019139296 394.54739112708234 L 261.26532630692583 397.61816964152416 L 265.16522405482374 400.747194658353 L 269.01997788367015 403.9316683855164 L 272.8305651415877 407.16886234785414 L 276.59806364553424 410.4561035958858 L 280.32365651545166 413.79076366366183 L 284.0086493769679 417.170235162369 L 287.6544638212097 420.5919360607759 L 291.26263310285844 424.05331070605286 L 294.83480614483943 427.5518217833748 L 298.37274509764853 431.08494900528405 L 301.87830774890756 434.6502022218309 L 305.3534386472864 438.2451243682943 L 308.8001586568724 441.8672951505076 L 312.22055307429656 445.5143353242997 L 315.6167584406398 449.18391147279715 L 318.928653744153 452.9297557699573 L 322.1569490459241 456.7478848202335 L 325.3025298926793 460.63444128277547 L 328.4264939509273 464.53839422342094 L 331.53120859437485 468.4576731089766 L 334.61904717692545 472.3902616824371 L 337.6258532982371 476.3851480323653 L 340.5528338162526 480.4388852028239 L 343.40129816115063 484.5481735689336 L 346.1726681995624 488.7098448810621 L 348.8704195169245 492.9196118377559 L 351.49808968853665 497.17347472567553 L 354.0592751233189 501.4676951635035 L 356.55767664539644 505.7987446707801 L 358.99738249606935 510.16312725737725 L 361.38291928972575 514.5573523547193 L 363.7192745053963 518.9779229407646 L 366.0543602895027 523.3991642122702 L 368.39398805971166 527.8180036409966 L 370.74425188350074 532.2311952251665 L 373.1115088488865 536.6352949583506 L 375.5023456207826 541.0266386627479 L 377.9235462743473 545.4013143530337 L 380.38204332249836 549.7551393683774 L 382.8848686985268 554.083633926201 L 385.43909279979783 558.3819986432168 L 388.0517576151337 562.6450940635312 L 390.72980480435785 566.8674231900073 L 393.40964634058173 571.0886137022596 L 396.0998782462643 575.3031898723682 L 398.80924336308294 579.5054917015764 L 401.546555944007 583.6896427306759 L 404.3206109757379 587.8495247820001 L 407.1400935616558 591.9787520641567 L 410.01347886227495 596.0706534454446 L 412.9489299358819 600.1182610097298 L 415.95419317472226 604.1143081647663 L 419.0364922495638 608.0512400175205 L 422.202426789664 611.9212346541835 L 425.46374494883867 615.7111955859924 L 428.82213590938915 619.4154107735986 L 432.2788801598416 623.0280163688669 L 435.83478615632964 626.543060115983 L 439.49061166362645 629.9540628805961 L 443.2470565440442 633.2539298264567 L 447.10396478517515 636.4357938743846 L 451.06033882922105 639.4930973306348 L 455.11437007457897 642.4196705249461 L 459.2634844882089 645.2098048555131 L 463.50440167850496 647.8583179072181 L 467.83320507963316 650.3606090801995 L 472.2454213145034 652.7127034441116 L 476.736105717532 654.9112833476848 L 481.2999312802842 656.9537074546638 L 485.9312783687681 658.8380174466746 L 490.62432280245605 660.5629330803886 L 495.3731202291566 662.127836591843 L 500.17168507591947 663.5327477674736 L 505.01406275740754 664.7782911789313 L 509.89439422389376 665.8656571602019 L 514.8069723082833 666.7965581027167 L 519.7462896686147 667.5731815725712 L 524.7070784088829 668.1981416308373 L 529.6843416919945 668.6744295800751 L 534.6733778340587 669.0053651828409 L 539.6697974924008 669.1945492142304 L 544.6695346363391 669.2458180305174 L 549.6688520268724 669.163200667263 L 554.6643419364312 668.9508788278405 L 559.6529228200168 668.6131499899761 L 564.6318326110701 668.1543937447292 L 569.5986192651216 667.5790413890928 L 574.551129116553 666.8915487189691 L 579.4874935526051 666.0963719119126 L 584.4061144471048 665.1979463467203 L 589.305627198461 664.2005623688574 L 594.1847351445679 663.1077194477399 L 599.041169086693 661.9181609726008 L 603.8706854620447 660.6236450089255 L 608.6686173709678 659.2165737963221 L 613.4298738886259 657.689997112019 L 618.1489473847296 656.0376214469925 L 622.8199285334954 654.2538235021918 L 627.4361691308761 652.3328022250859 L 631.9904169990426 650.2691098169735 L 636.4749700256821 648.0580503082177 L 640.8817443357141 645.6957759421795 L 645.2023585109299 643.1793711359284 L 649.4282321337639 640.5069205519444 L 653.5506960914065 637.6775582708044 L 657.5611110497186 634.6914953340687 L 661.4509900407472 631.5500241126257 L 665.2121207797484 628.2554990233084 L 668.8366832918309 624.8112942390359 L 672.3173587344953 621.221740163272 L 675.6474257860234 617.4920413239115 L 678.8208417085148 613.628179087382 L 681.8323060872993 609.6368030971612 L 684.6773061895246 605.5251155581649 L 687.3521438034206 601.3007524417546 L 689.8539442477245 596.9716654090327 L 692.1806489277595 592.5460077932762 L 694.3309933313241 588.032027404965 L 696.3044726948136 583.4379682845486 L 698.1012977361212 578.7719828826285 L 699.7223428667821 574.0420555381168 L 701.1690891902275 569.2559375834903 L 702.4435643976238 564.4210939515067 L 703.5482814186595 559.5446607977113 L 704.4861773995506 554.6334133870193 L 705.2605542874069 549.6937433134665 L 705.8750220164758 544.7316440188198 L 706.3334450299379 539.7527035350695 L 706.6398926384736 534.7621033844641 L 706.7985935175047 529.7646226160174 L 706.8138944796308 524.7646460280164 L 706.6902235260003 519.766175712487 L 706.4320570774892 514.7728451521432 L 706.0438912101205 509.78793519714804 L 705.5302166653581 504.81439134371084 L 704.8954973709356 499.8548418261349 L 704.1441521881753 494.9116161165053 L 703.2805395940612 489.98676350071185 L 702.3089450078377 485.0820714655254 L 701.2335704802091 480.19908368903776 L 700.0585264763205 475.3391174763028 L 698.7870732052808 470.50347826524063 L 697.4239798811344 465.6928674319194 L 695.9743172564658 460.9076319858166 L 694.4429957738345 456.14789937601256 L 692.834773717229 451.4135967012094 L 691.1542487999815 446.7044740650372 L 689.4058736460793 442.0201187923003 L 687.5939487826085 437.359976274186 L 685.7226355251204 432.72336256455384 L 683.7959572905643 428.1094801451062 L 681.8178041145907 423.51743158129665 L 679.7919436560337 418.9462293977944 L 677.7220167108104 414.3948117679302 L 675.6115530904096 409.8620484488317 L 673.3886223047773 405.3833679821889 L 671.0591918250676 400.95914447515406 L 668.6289727547484 396.5894722597292 L 666.1034157620974 392.2742014829561 L 663.4877248511556 388.0129621023983 L 660.7868600590465 383.8051919833512 L 658.0055444945863 379.6501608485832 L 655.1482754594034 375.5469896773322 L 652.2193257167604 371.4946751035273 L 649.222758408678 367.49210288454964 L 646.1624299403603 363.53806827847905 L 643.04200046625 359.6312895674304 L 639.8977177743983 355.7436828031444 L 636.7289178377305 351.8760340391828 L 633.5352209041554 348.0289182498579 L 630.3164883825932 344.2027241937967 L 627.0727841827562 340.39767714231897 L 623.8043401766464 336.6138597869324 L 620.5115253983658 332.8512316049382 L 617.1948186331849 329.10964688268444 L 613.8547839947169 325.38887161214825 L 610.4920491603258 321.68859940140845 L 607.1072859244013 318.00846654555477 L 603.7010481912536 314.34820091239635 L 600.2737806930736 310.7076188853134 L 596.8258250976213 307.08662424132547 L 593.3574239203393 303.48520878717017 L 589.8687225950426 299.90345459922355 L 586.3597861956422 296.3415217889417 L 582.8306846283392 292.7995672257577 L 579.2815026618889 289.27773426989165 L 575.712299969699 285.7761928747252 L 572.1230578227547 282.29519577466914 L 568.5136798041153 278.8350815686691 L 564.8839933315033 275.39627710918944 L 561.2337516193671 271.9792995788301 L 557.5626361052587 268.5847582427919 L 553.8702593736989 265.21335585324596 L 550.1561686157313 261.86588967095526 L 546.4198495938258 258.5432521393327 L 542.660730782941 255.2464315852758 L 538.8574487431405 252.00065806795658 L 535.0088486291163 248.80874999247362 L 531.1138459074397 245.67363375888164 L 527.17144291577 242.5983356186562 L 523.1807450242426 239.5859727025123 L 519.1409770573254 236.6397420982538 L 515.0514988723646 233.7629090869843 L 510.91182078930575 230.95879329610798 L 506.7216172412593 228.23075476523292 L 502.4807405883899 225.58217680429857 L 498.1892311958748 223.0164513447151 L 493.8473290282654 220.53695833869378 L 489.49613723812746 218.07380385603622 L 485.13389864245124 215.63026657692774 L 480.75887313129164 213.20969809479328 L 476.36935203104116 210.81551670850365 L 471.96367513276857 208.45119628435913 L 467.5402449138081 206.12025975626838 L 463.09754482145604 203.82626413957368 L 458.63415388561936 201.572790963809 L 454.1495205089545 199.36189443142595 L 449.6433186454813 197.19529692251228 L 445.1152688958691 195.07473910320223 L 440.5651446039487 193.00197068196567 L 435.99277707897284 190.9787417733777 L 431.39805837462114 189.00679856225804 L 426.7847534906464 187.07873786624913 L 422.1561913909619 185.18759723441747 L 417.5153171930493 183.326875149003 L 412.8647370910743 181.49054600772305 L 408.20675649860266 179.6730706158243 L 403.54341195988195 177.8694027658076 L 398.8764973012226 176.07499267644926 L 394.207584080346 174.2857891285198 L 389.53803957820685 172.49823377481968 L 384.86904001847864 170.7092555437454 L 380.20157826745253 168.9162689842006 L 375.5364710698171 167.11716508654206 L 370.87436485015115 165.31029885005628 L 366.21574030631405 163.4944746956959 L 361.56091635173567 161.66892985869973 L 356.9100539137878 159.8333159060164 L 352.2631600372445 157.9876785363946 L 347.6200926764313 156.1324358344952 L 342.9805664884503 154.2683551626791 L 338.3441598645616 152.39652888389114 L 333.7103233593321 150.51834911539117 L 329.0783895996062 148.6354817155163 L 324.44758467984025 146.749839704139 L 319.8170409789628 144.86355631231683 L 315.18581126864063 142.97895784839153 L 310.552883925391 141.09853655725232 L 305.91719901085594 139.22492363747605 L 301.2776649468742 137.36086256842455 L 296.63317537007646 135.5091831763544 L 291.9826252678024 133.67277806139788 L 287.3249286337181 131.85457508459908 L 282.6590345328437 130.05751297119696 L 277.9839421641947 128.2845179501662 L 273.29871470729887 126.53848138779131 L 268.60249171885414 124.82223850206591 L 263.89449988694633 123.13854823640258 L 259.1740619958007 121.49007436162137 L 254.4406040020811 119.87936786393408 L 249.6936600799616 118.30885094258213 L 244.932875879229 116.78080192698916 L 240.1580100777803 115.29734091363028 L 235.36893378591688 113.86041771780118 L 230.56562823336048 112.47180122330718 L 225.74818088650827 111.13307008513699 L 220.9167801652557 109.84560471834838 L 216.07170894327436 108.6105804862265 L 211.2133358851662 107.42896666257306 L 206.34210560639644 106.3015290495777 L 201.45852846913817 105.22883415145972 L 196.5631702375761 104.21125477633586 L 191.65664179738127 103.24897692375922 L 186.73958912165955 102.34200780401044 L 181.81268367138674 101.4901846509604 L 176.87661332459157 100.69318431752917 L 171.93207400693004 99.95053302917165 L 166.97804438808308 99.27407864372722 L 162.01569452080037 98.66163779378387 L 157.04609404514994 98.11111884550417 L 152.07022234688017 97.6205061241467 L 147.08897693448876 97.18784674134142 L 142.10202216824692 96.82690054111528 L 137.109520341341 96.55317529868935 L 132.1124611304331 96.38171322509731 L 127.11275986373053 96.32705754165389 L 122.11333957165695 96.40319388778977 L 117.11819400631582 96.62346821914232 L 112.13242391746458 97.00042527387973 L 107.16234832626442 97.54663825226493 L 102.21574434323317 98.27541053155342 L 97.30172633118947 99.19868025233389 L 92.43064367960632 100.3267555164212 L 87.61391555807796 101.66807210965258 L 82.86380674366806 103.22899050959072 L 78.19583084058885 105.02063806652589 L 73.62648748072213 107.05068763726102 L 69.17279051109483 109.32325959491882 L 64.85175748358604 111.83894510292221 L 60.67989772761901 114.59495420605353 L 56.67273508266514 117.5853801852221 L 52.844395891247174 120.8015610003277 L 49.20728434613093 124.2325112489297 L 45.771857017906854 127.86539427381382 L 42.53908583599175 131.6797343852065 L 39.507865783655085 135.656127850938 L 36.675349161181884 139.77642511975404 L 34.03726714027313 144.02383883293973 L 31.588227486463023 148.38299067407416 L 29.32198188983697 152.83991011420017 L 27.231659948673855 157.38199709952883 L 25.309969493504646 161.9979591655029 L 23.54936473048336 166.67773168865259 L 21.94218478208149 171.41238823516733 L 20.480765776648422 176.19404636708757 L 19.15753061998721 181.01577310345243 L 17.965058797462312 185.8714925097283 L 16.896139270907607 190.75589739115964 L 15.943809263651623 195.66436635380774 L 15.101381414837554 200.59288695532118 L 14.362461463368506 205.53798526630763 L 13.72095831270394 210.49666187480787 L 13.17108804218466 215.46633416637792 L 12.708611637350225 220.44489978058564 L 12.329621490892588 225.43051573740462 L 12.030261253502749 230.4215460366785 L 11.806753973989645 235.41654798823015 L 11.655423964909144 240.41425738637963 L 11.572713315231427 245.41357323441622 L 11.555193881881033 250.41354254126753 L 11.599575499665033 255.41334556458784 L 11.70271105878243 260.41228175706374 L 11.861599013748513 265.4097565811891 L 12.073383808912347 270.4052692876625 L 12.335348831460752 275.3984020044007 L 12.644908674541448 280.38881007424345 L 12.999602171278442 285.3762134591094 L 13.397086013287133 290.3603890775384 L 13.835128813948817 295.34116396753177 L 14.311605513319167 300.31840918501473 L 14.824492049954602 305.29203436193933 L 15.371860246719876 310.26198285836966 L 15.951872874118054 315.22822745082163 L 16.562778866966617 320.1907665053684 L 17.20290867923827 325.1496205890697 L 17.870669795215882 330.10482947386845 L 18.56454241341388 335.0564494905615 L 19.283075312048986 340.0045511946071 L 20.02488189947537 344.949217309407 L 20.788636449334355 349.89054091625263 L 21.57575775086909 354.82819623600415 L 22.38729073867392 359.7618981128614 L 23.223966453567236 364.691398467675 L 24.08625332009168 369.6164833765694 L 24.974400928166418 374.5369705299183 L 25.88847735794613 379.4527069224155 L 26.828400953200664 384.3635666877808 L 27.79396732935338 389.26944903178816 L 28.76505932385316 394.17424060108226 L 29.741551671630045 399.0779598726896 L 30.72328452923143 403.9806326739589 L 31.71003873278721 408.8822973036296 L 32.699605517006 413.7833948929019 L 33.68996025170343 418.6843333233928 L 34.67924540950773 423.5854877666386 L 35.66578983547099 428.4871946219698 L 36.64807594828548 433.3897566045022"
        fill="none"
        stroke="#1B5E20"
        stroke-width="2"
        stroke-linecap="round"
        stroke-linejoin="round"/>

  <circle cx="150" cy="150" r="2.5"
          fill="limegreen"/>

  <circle cx="36.64807594828548" cy="433.3897566045022" r="2.5"
          fill="red"/>

</svg>