<?xml version="1.0" encoding="UTF-8"?>
<svg xmlns="http://www.w3.org/2000/svg"
     width="800" height="800"
     viewBox="0 0 800 800">

  <rect x="0" y="0"
        width="800"
        height="800"
        fill="white"/>

  <text x="10"
        y="22"
        font-family="Arial"
        font-size="14"
        fill="#444">
        MeanderGen - Development Preview
        </text>
  <path d="M 150 150 L 155.0 150.0 L 160.0 150.0 L 165.0 150.0 L 170.0 150.0 L 175.0 150.0 L 180.0 150.0 L 185.0 150.0 L 190.0 150.0 L 195.0 150.0 L 200.0 150.0 L 205.0 150.0 L 210.0 150.0 L 215.0 150.0 L 220.0 150.0 L 225.0 150.0 L 230.0 150.0 L 235.0 150.0 L 240.0 150.0 L 245.0 150.0 L 250.0 150.0 L 255.0 150.0 L 260.0 150.0 L 265.0 150.0 L 270.0 150.0 L 275.0 150.0 L 280.0 150.0 L 285.0 150.0 L 290.0 150.0 L 295.0 150.0 L 300.0 150.0 L 305.0 150.0 L 310.0 150.0 L 315.0 150.0 L 320.0 150.0 L 325.0 150.0 L 330.0 150.0 L 335.0 150.0 L 340.0 150.0 L 345.0 150.0 L 350.0 150.0 L 355.0 150.0 L 360.0 150.0 L 365.0 150.0 L 370.0 150.0 L 375.0 150.0 L 380.0 150.0 L 385.0 150.0 L 390.0 150.0 L 395.0 150.0 L 400.0 150.0 L 405.0 150.0 L 410.0 150.0 L 415.0 150.0 L 420.0 150.0 L 425.0 150.0 L 430.0 150.0 L 435.0 150.0 L 440.0 150.0 L 445.0 150.0 L 450.0 150.0 L 455.0 150.0 L 460.0 150.0 L 465.0 150.0 L 470.0 150.0 L 475.0 150.0 L 480.0 150.0 L 485.0 150.0 L 490.0 150.0 L 495.0 150.0 L 500.0 150.0 L 505.0 150.0 L 510.0 150.0 L 515.0 150.0 L 520.0 150.0 L 525.0 150.0 L 530.0 150.0 L 535.0 150.0 L 540.0 150.0 L 545.0 150.0 L 550.0 150.0 L 555.0 150.0 L 560.0 150.0 L 565.0 150.0 L 570.0 150.0 L 575.0 150.0 L 580.0 150.0 L 585.0 150.0 L 590.0 150.0 L 595.0 150.0 L 600.0 150.0 L 605.0 150.0 L 610.0 150.0 L 615.0 150.0 L 620.0 150.0 L 625.0 150.0 L 630.0 150.0 L 635.0 150.0 L 640.0 150.0 L 645.0 150.0 L 650.0 150.0 L 655.0 150.0 L 660.0 150.0 L 665.0 150.0 L 670.0 150.0 L 675.0 150.0 L 680.0 150.0 L 685.0 150.0 L 690.0 150.0 L 695.0 150.0 L 700.0 150.0 L 705.0 150.0 L 710.0 150.0 L 715.0 150.0 L 720.0 150.0 L 725.0 150.0 L 730.0 150.0 L 735.0 150.0 L 740.0 150.0 L 745.0 150.0 L 750.0 150.0 L 755.0 150.0 L 760.0 150.0 L 765.0 150.0 L 770.0 150.0 L 775.0 150.0 L 780.0 150.0 L 785.0 150.0 L 790.0 150.0 L 795.0 150.0 L 800.0 150.0 L 805.0 150.0 L 810.0 150.0 L 815.0 150.0 L 820.0 150.0 L 825.0 150.0 L 830.0 150.0 L 835.0 150.0 L 840.0 150.0 L 845.0 150.0 L 850.0 150.0 L 855.0 150.0 L 860.0 150.0 L 865.0 150.0 L 870.0 150.0 L 875.0 150.0 L 880.0 150.0 L 885.0 150.0 L 890.0 150.0 L 895.0 150.0 L 900.0 150.0 L 905.0 150.0 L 910.0 150.0 L 915.0 150.0 L 920.0 150.0 L 925.0 150.0 L 930.0 150.0 L 935.0 150.0 L 940.0 150.0 L 945.0 150.0 L 950.0 150.0 L 955.0 150.0 L 960.0 150.0 L 965.0 150.0 L 970.0 150.0 L 975.0 150.0 L 980.0 150.0 L 985.0 150.0 L 990.0 150.0 L 995.0 150.0 L 1000.0 150.0 L 1005.0 150.0 L 1010.0 150.0 L 1015.0 150.0 L 1020.0 150.0 L 1025.0 150.0 L 1030.0 150.0 L 1035.0 150.0 L 1040.0 150.0 L 1045.0 150.0 L 1050.0 150.0 L 1055.0 150.0 L 1060.0 150.0 L 1065.0 150.0 L 1070.0 150.0 L 1075.0 150.0 L 1080.0 150.0 L 1085.0 150.0 L 1090.0 150.0 L 1095.0 150.0 L 1100.0 150.0 L 1105.0 150.0 L 1110.0 150.0 L 1115.0 150.0 L 1120.0 150.0 L 1125.0 150.0 L 1130.0 150.0 L 1135.0 150.0 L 1140.0 150.0 L 1145.0 150.0 L 1150.0 150.0 L 1155.0 150.0 L 1160.0 150.0 L 1165.0 150.0 L 1170.0 150.0 L 1175.0 150.0 L 1180.0 150.0 L 1185.0 150.0 L 1190.0 150.0 L 1195.0 150.0 L 1200.0 150.0 L 1205.0 150.0 L 1210.0 150.0 L 1215.0 150.0 L 1220.0 150.0 L 1225.0 150.0 L 1230.0 150.0 L 1235.0 150.0 L 1240.0 150.0 L 1245.0 150.0 L 1250.0 150.0 L 1255.0 150.0 L 1260.0 150.0 L 1265.0 150.0 L 1270.0 150.0 L 1275.0 150.0 L 1280.0 150.0 L 1285.0 150.0 L 1290.0 150.0 L 1295.0 150.0 L 1300.0 150.0 L 1305.0 150.0 L 1310.0 150.0 L 1315.0 150.0 L 1320.0 150.0 L 1325.0 150.0 L 1330.0 150.0 L 1335.0 150.0 L 1340.0 150.0 L 1345.0 150.0 L 1350.0 150.0 L 1355.0 150.0 L 1360.0 150.0 L 1365.0 150.0 L 1370.0 150.0 L 1375.0 150.0 L 1380.0 150.0 L 1385.0 150.0 L 1390.0 150.0 L 1395.0 150.0 L 1400.0 150.0 L 1405.0 150.0 L 1410.0 150.0 L 1415.0 150.0 L 1420.0 150.0 L 1425.0 150.0 L 1430.0 150.0 L 1435.0 150.0 L 1440.0 150.0 L 1445.0 150.0 L 1450.0 150.0 L 1455.0 150.0 L 1460.0 150.0 L 1465.0 150.0 L 1470.0 150.0 L 1475.0 150.0 L 1480.0 150.0 L 1485.0 150.0 L 1490.0 150.0 L 1495.0 150.0 L 1500.0 150.0 L 1505.0 150.0 L 1510.0 150.0 L 1515.0 150.0 L 1520.0 150.0 L 1525.0 150.0 L 1530.0 150.0 L 1535.0 150.0 L 1540.0 150.0 L 1545.0 150.0 L 1550.0 150.0 L 1555.0 150.0 L 1560.0 150.0 L 1565.0 150.0 L 1570.0 150.0 L 1575.0 150.0 L 1580.0 150.0 L 1585.0 150.0 L 1590.0 150.0 L 1595.0 150.0 L 1600.0 150.0 L 1605.0 150.0 L 1610.0 150.0 L 1615.0 150.0 L 1620.0 150.0 L 1625.0 150.0 L 1630.0 150.0 L 1635.0 150.0 L 1640.0 150.0 L 1645.0 150.0 L 1650.0 150.0 L 1655.0 150.0 L 1660.0 150.0 L 1665.0 150.0 L 1670.0 150.0 L 1675.0 150.0 L 1680.0 150.0 L 1685.0 150.0 L 1690.0 150.0 L 1695.0 150.0 L 1700.0 150.0 L 1705.0 150.0 L 1710.0 150.0 L 1715.0 150.0 L 1720.0 150.0 L 1725.0 150.0 L 1730.0 150.0 L 1735.0 150.0 L 1740.0 150.0 L 1745.0 150.0 L 1750.0 150.0 L 1755.0 150.0 L 1760.0 150.0 L 1765.0 150.0 L 1770.0 150.0 L 1775.0 150.0 L 1780.0 150.0 L 1785.0 150.0 L 1790.0 150.0 L 1795.0 150.0 L 1800.0 150.0 L 1805.0 150.0 L 1810.0 150.0 L 1815.0 150.0 L 1820.0 150.0 L 1825.0 150.0 L 1830.0 150.0 L 1835.0 150.0 L 1840.0 150.0 L 1845.0 150.0 L 1850.0 150.0 L 1855.0 150.0 L 1860.0 150.0 L 1865.0 150.0 L 1870.0 150.0 L 1875.0 150.0 L 1880.0 150.0 L 1885.0 150.0 L 1890.0 150.0 L 1895.0 150.0 L 1900.0 150.0 L 1905.0 150.0 L 1910.0 150.0 L 1915.0 150.0 L 1920.0 150.0 L 1925.0 150.0 L 1930.0 150.0 L 1935.0 150.0 L 1940.0 150.0 L 1945.0 150.0 L 1950.0 150.0 L 1955.0 150.0 L 1960.0 150.0 L 1965.0 150.0 L 1970.0 150.0 L 1975.0 150.0 L 1980.0 150.0 L 1985.0 150.0 L 1990.0 150.0 L 1995.0 150.0 L 2000.0 150.0 L 2005.0 150.0 L 2010.0 150.0 L 2015.0 150.0 L 2020.0 150.0 L 2025.0 150.0 L 2030.0 150.0 L 2035.0 150.0 L 2040.0 150.0 L 2045.0 150.0 L 2050.0 150.0 L 2055.0 150.0 L 2060.0 150.0 L 2065.0 150.0 L 2070.0 150.0 L 2075.0 150.0 L 2080.0 150.0 L 2085.0 150.0 L 2090.0 150.0 L 2095.0 150.0 L 2100.0 150.0 L 2105.0 150.0 L 2110.0 150.0 L 2115.0 150.0 L 2120.0 150.0 L 2125.0 150.0 L 2130.0 150.0 L 2135.0 150.0 L 2140.0 150.0 L 2145.0 150.0 L 2150.0 150.0 L 2155.0 150.0 L 2160.0 150.0 L 2165.0 150.0 L 2170.0 150.0 L 2175.0 150.0 L 2180.0 150.0 L 2185.0 150.0 L 2190.0 150.0 L 2195.0 150.0 L 2200.0 150.0 L 2205.0 150.0 L 2210.0 150.0 L 2215.0 150.0 L 2220.0 150.0 L 2225.0 150.0 L 2230.0 150.0 L 2235.0 150.0 L 2240.0 150.0 L 2245.0 150.0 L 2250.0 150.0 L 2255.0 150.0 L 2260.0 150.0 L 2265.0 150.0 L 2270.0 150.0 L 2275.0 150.0 L 2280.0 150.0 L 2285.0 150.0 L 2290.0 150.0 L 2295.0 150.0 L 2300.0 150.0 L 2305.0 150.0 L 2310.0 150.0 L 2315.0 150.0 L 2320.0 150.0 L 2325.0 150.0 L 2330.0 150.0 L 2335.0 150.0 L 2340.0 150.0 L 2345.0 150.0 L 2350.0 150.0 L 2355.0 150.0 L 2360.0 150.0 L 2365.0 150.0 L 2370.0 150.0 L 2375.0 150.0 L 2380.0 150.0 L 2385.0 150.0 L 2390.0 150.0 L 2395.0 150.0 L 2400.0 150.0 L 2405.0 150.0 L 2410.0 150.0 L 2415.0 150.0 L 2420.0 150.0 L 2425.0 150.0 L 2430.0 150.0 L 2435.0 150.0 L 2440.0 150.0 L 2445.0 150.0 L 2450.0 150.0 L 2455.0 150.0 L 2460.0 150.0 L 2465.0 150.0 L 2470.0 150.0 L 2475.0 150.0 L 2480.0 150.0 L 2485.0 150.0 L 2490.0 150.0 L 2495.0 150.0 L 2500.0 150.0 L 2505.0 150.0 L 2510.0 150.0 L 2515.0 150.0 L 2520.0 150.0 L 2525.0 150.0 L 2530.0 150.0 L 2535.0 150.0 L 2540.0 150.0 L 2545.0 150.0 L 2550.0 150.0 L 2555.0 150.0 L 2560.0 150.0 L 2565.0 150.0 L 2570.0 150.0 L 2575.0 150.0 L 2580.0 150.0 L 2585.0 150.0 L 2590.0 150.0 L 2595.0 150.0 L 2600.0 150.0 L 2605.0 150.0 L 2610.0 150.0 L 2615.0 150.0 L 2620.0 150.0 L 2625.0 150.0 L 2630.0 150.0 L 2635.0 150.0 L 2640.0 150.0 L 2645.0 150.0 L 2650.0 150.0 L 2655.0 150.0 L 2660.0 150.0 L 2665.0 150.0 L 2670.0 150.0 L 2675.0 150.0 L 2680.0 150.0 L 2685.0 150.0 L 2690.0 150.0 L 2695.0 150.0 L 2700.0 150.0 L 2705.0 150.0 L 2710.0 150.0 L 2715.0 150.0 L 2720.0 150.0 L 2725.0 150.0 L 2730.0 150.0 L 2735.0 150.0 L 2740.0 150.0 L 2745.0 150.0 L 2750.0 150.0 L 2755.0 150.0 L 2760.0 150.0 L 2765.0 150.0 L 2770.0 150.0 L 2775.0 150.0 L 2780.0 150.0 L 2785.0 150.0 L 2790.0 150.0 L 2795.0 150.0 L 2800.0 150.0 L 2805.0 150.0 L 2810.0 150.0 L 2815.0 150.0 L 2820.0 150.0 L 2825.0 150.0 L 2830.0 150.0 L 2835.0 150.0 L 2840.0 150.0 L 2845.0 150.0 L 2850.0 150.0 L 2855.0 150.0 L 2860.0 150.0 L 2865.0 150.0 L 2870.0 150.0 L 2875.0 150.0 L 2880.0 150.0 L 2885.0 150.0 L 2890.0 150.0 L 2895.0 150.0 L 2900.0 150.0 L 2905.0 150.0 L 2910.0 150.0 L 2915.0 150.0 L 2920.0 150.0 L 2925.0 150.0 L 2930.0 150.0 L 2935.0 150.0 L 2940.0 150.0 L 2945.0 150.0 L 2950.0 150.0 L 2955.0 150.0 L 2960.0 150.0 L 2965.0 150.0 L 2970.0 150.0 L 2975.0 150.0 L 2980.0 150.0 L 2985.0 150.0 L 2990.0 150.0 L 2995.0 150.0 L 3000.0 150.0 L 3005.0 150.0 L 3010.0 150.0 L 3015.0 150.0 L 3020.0 150.0 L 3025.0 150.0 L 3030.0 150.0 L 3035.0 150.0 L 3040.0 150.0 L 3045.0 150.0 L 3050.0 150.0 L 3055.0 150.0 L 3060.0 150.0 L 3065.0 150.0 L 3070.0 150.0 L 3075.0 150.0 L 3080.0 150.0 L 3085.0 150.0 L 3090.0 150.0 L 3095.0 150.0 L 3100.0 150.0 L 3105.0 150.0 L 3110.0 150.0 L 3115.0 150.0 L 3120.0 150.0 L 3125.0 150.0 L 3130.0 150.0 L 3135.0 150.0 L 3140.0 150.0 L 3145.0 150.0 L 3150.0 150.0 L 3155.0 150.0 L 3160.0 150.0 L 3165.0 150.0 L 3170.0 150.0 L 3175.0 150.0 L 3180.0 150.0 L 3185.0 150.0 L 3190.0 150.0 L 3195.0 150.0 L 3200.0 150.0 L 3205.0 150.0 L 3210.0 150.0 L 3215.0 150.0 L 3220.0 150.0 L 3225.0 150.0 L 3230.0 150.0 L 3235.0 150.0 L 3240.0 150.0 L 3245.0 150.0 L 3250.0 150.0 L 3255.0 150.0 L 3260.0 150.0 L 3265.0 150.0 L 3270.0 150.0 L 3275.0 150.0 L 3280.0 150.0 L 3285.0 150.0 L 3290.0 150.0 L 3295.0 150.0 L 3300.0 150.0 L 3305.0 150.0 L 3310.0 150.0 L 3315.0 150.0 L 3320.0 150.0 L 3325.0 150.0 L 3330.0 150.0 L 3335.0 150.0 L 3340.0 150.0 L 3345.0 150.0 L 3350.0 150.0 L 3355.0 150.0 L 3360.0 150.0 L 3365.0 150.0 L 3370.0 150.0 L 3375.0 150.0 L 3380.0 150.0 L 3385.0 150.0 L 3390.0 150.0 L 3395.0 150.0 L 3400.0 150.0 L 3405.0 150.0 L 3410.0 150.0 L 3415.0 150.0 L 3420.0 150.0 L 3425.0 150.0 L 3430.0 150.0 L 3435.0 150.0 L 3440.0 150.0 L 3445.0 150.0 L 3450.0 150.0 L 3455.0 150.0 L 3460.0 150.0 L 3465.0 150.0 L 3470.0 150.0 L 3475.0 150.0 L 3480.0 150.0 L 3485.0 150.0 L 3490.0 150.0 L 3495.0 150.0 L 3500.0 150.0 L 3505.0 150.0 L 3510.0 150.0 L 3515.0 150.0 L 3520.0 150.0 L 3525.0 150.0 L 3530.0 150.0 L 3535.0 150.0 L 3540.0 150.0 L 3545.0 150.0 L 3550.0 150.0 L 3555.0 150.0 L 3560.0 150.0 L 3565.0 150.0 L 3570.0 150.0 L 3575.0 150.0 L 3580.0 150.0 L 3585.0 150.0 L 3590.0 150.0 L 3595.0 150.0 L 3600.0 150.0 L 3605.0 150.0 L 3610.0 150.0 L 3615.0 150.0 L 3620.0 150.0 L 3625.0 150.0 L 3630.0 150.0 L 3635.0 150.0 L 3640.0 150.0 L 3645.0 150.0 L 3650.0 150.0 L 3655.0 150.0 L 3660.0 150.0 L 3665.0 150.0 L 3670.0 150.0 L 3675.0 150.0 L 3680.0 150.0 L 3685.0 150.0 L 3690.0 150.0 L 3695.0 150.0 L 3700.0 150.0 L 3705.0 150.0 L 3710.0 150.0 L 3715.0 150.0 L 3720.0 150.0 L 3725.0 150.0 L 3730.0 150.0 L 3735.0 150.0 L 3740.0 150.0 L 3745.0 150.0 L 3750.0 150.0 L 3755.0 150.0 L 3760.0 150.0 L 3765.0 150.0 L 3770.0 150.0 L 3775.0 150.0 L 3780.0 150.0 L 3785.0 150.0 L 3790.0 150.0 L 3795.0 150.0 L 3800.0 150.0 L 3805.0 150.0 L 3810.0 150.0 L 3815.0 150.0 L 3820.0 150.0 L 3825.0 150.0 L 3830.0 150.0 L 3835.0 150.0 L 3840.0 150.0 L 3845.0 150.0 L 3850.0 150.0 L 3855.0 150.0 L 3860.0 150.0 L 3865.0 150.0 L 3870.0 150.0 L 3875.0 150.0 L 3880.0 150.0 L 3885.0 150.0 L 3890.0 150.0 L 3895.0 150.0 L 3900.0 150.0 L 3905.0 150.0 L 3910.0 150.0 L 3915.0 150.0 L 3920.0 150.0 L 3925.0 150.0 L 3930.0 150.0 L 3935.0 150.0 L 3940.0 150.0 L 3945.0 150.0 L 3950.0 150.0 L 3955.0 150.0 L 3960.0 150.0 L 3965.0 150.0 L 3970.0 150.0 L 3975.0 150.0 L 3980.0 150.0 L 3985.0 150.0 L 3990.0 150.0 L 3995.0 150.0 L 4000.0 150.0 L 4005.0 150.0 L 4010.0 150.0 L 4015.0 150.0 L 4020.0 150.0 L 4025.0 150.0 L 4030.0 150.0 L 4035.0 150.0 L 4040.0 150.0 L 4045.0 150.0 L 4050.0 150.0 L 4055.0 150.0 L 4060.0 150.0 L 4065.0 150.0 L 4070.0 150.0 L 4075.0 150.0 L 4080.0 150.0 L 4085.0 150.0 L 4090.0 150.0 L 4095.0 150.0 L 4100.0 150.0 L 4105.0 150.0 L 4110.0 150.0 L 4115.0 150.0 L 4120.0 150.0 L 4125.0 150.0 L 4130.0 150.0 L 4135.0 150.0 L 4140.0 150.0 L 4145.0 150.0 L 4150.0 150.0 L 4155.0 150.0 L 4160.0 150.0 L 4165.0 150.0 L 4170.0 150.0 L 4175.0 150.0 L 4180.0 150.0 L 4185.0 150.0 L 4190.0 150.0 L 4195.0 150.0 L 4200.0 150.0 L 4205.0 150.0 L 4210.0 150.0 L 4215.0 150.0 L 4220.0 150.0 L 4225.0 150.0 L 4230.0 150.0 L 4235.0 150.0 L 4240.0 150.0 L 4245.0 150.0 L 4250.0 150.0 L 4255.0 150.0 L 4260.0 150.0 L 4265.0 150.0 L 4270.0 150.0 L 4275.0 150.0 L 4280.0 150.0 L 4285.0 150.0 L 4290.0 150.0 L 4295.0 150.0 L 4300.0 150.0 L 4305.0 150.0 L 4310.0 150.0 L 4315.0 150.0 L 4320.0 150.0 L 4325.0 150.0 L 4330.0 150.0 L 4335.0 150.0 L 4340.0 150.0 L 4345.0 150.0 L 4350.0 150.0 L 4355.0 150.0 L 4360.0 150.0 L 4365.0 150.0 L 4370.0 150.0 L 4375.0 150.0 L 4380.0 150.0 L 4385.0 150.0 L 4390.0 150.0 L 4395.0 150.0 L 4400.0 150.0 L 4405.0 150.0 L 4410.0 150.0 L 4415.0 150.0 L 4420.0 150.0 L 4425.0 150.0 L 4430.0 150.0 L 4435.0 150.0 L 4440.0 150.0 L 4445.0 150.0 L 4450.0 150.0 L 4455.0 150.0 L 4460.0 150.0 L 4465.0 150.0 L 4470.0 150.0 L 4475.0 150.0 L 4480.0 150.0 L 4485.0 150.0 L 4490.0 150.0 L 4495.0 150.0 L 4500.0 150.0 L 4505.0 150.0 L 4510.0 150.0 L 4515.0 150.0 L 4520.0 150.0 L 4525.0 150.0 L 4530.0 150.0 L 4535.0 150.0 L 4540.0 150.0 L 4545.0 150.0 L 4550.0 150.0 L 4555.0 150.0 L 4560.0 150.0 L 4565.0 150.0 L 4570.0 150.0 L 4575.0 150.0 L 4580.0 150.0 L 4585.0 150.0 L 4590.0 150.0 L 4595.0 150.0 L 4600.0 150.0 L 4605.0 150.0 L 4610.0 150.0 L 4615.0 150.0 L 4620.0 150.0 L 4625.0 150.0 L 4630.0 150.0 L 4635.0 150.0 L 4640.0 150.0 L 4645.0 150.0 L 4650.0 150.0 L 4655.0 150.0 L 4660.0 150.0 L 4665.0 150.0 L 4670.0 150.0 L 4675.0 150.0 L 4680.0 150.0 L 4685.0 150.0 L 4690.0 150.0 L 4695.0 150.0 L 4700.0 150.0 L 4705.0 150.0 L 4710.0 150.0 L 4715.0 150.0 L 4720.0 150.0 L 4725.0 150.0 L 4730.0 150.0 L 4735.0 150.0 L 4740.0 150.0 L 4745.0 150.0 L 4750.0 150.0 L 4755.0 150.0 L 4760.0 150.0 L 4765.0 150.0 L 4770.0 150.0 L 4775.0 150.0 L 4780.0 150.0 L 4785.0 150.0 L 4790.0 150.0 L 4795.0 150.0 L 4800.0 150.0 L 4805.0 150.0 L 4810.0 150.0 L 4815.0 150.0 L 4820.0 150.0 L 4825.0 150.0 L 4830.0 150.0 L 4835.0 150.0 L 4840.0 150.0 L 4845.0 150.0 L 4850.0 150.0 L 4855.0 150.0 L 4860.0 150.0 L 4865.0 150.0 L 4870.0 150.0 L 4875.0 150.0 L 4880.0 150.0 L 4885.0 150.0 L 4890.0 150.0 L 4895.0 150.0 L 4900.0 150.0 L 4905.0 150.0 L 4910.0 150.0 L 4915.0 150.0 L 4920.0 150.0 L 4925.0 150.0 L 4930.0 150.0 L 4935.0 150.0 L 4940.0 150.0 L 4945.0 150.0 L 4950.0 150.0 L 4955.0 150.0 L 4960.0 150.0 L 4965.0 150.0 L 4970.0 150.0 L 4975.0 150.0 L 4980.0 150.0 L 4985.0 150.0 L 4990.0 150.0 L 4995.0 150.0 L 5000.0 150.0 L 5005.0 150.0 L 5010.0 150.0 L 5015.0 150.0 L 5020.0 150.0 L 5025.0 150.0 L 5030.0 150.0 L 5035.0 150.0 L 5040.0 150.0 L 5045.0 150.0 L 5050.0 150.0 L 5055.0 150.0 L 5060.0 150.0 L 5065.0 150.0 L 5070.0 150.0 L 5075.0 150.0 L 5080.0 150.0 L 5085.0 150.0 L 5090.0 150.0 L 5095.0 150.0 L 5100.0 150.0 L 5105.0 150.0 L 5110.0 150.0 L 5115.0 150.0 L 5120.0 150.0 L 5125.0 150.0 L 5130.0 150.0 L 5135.0 150.0 L 5140.0 150.0 L 5145.0 150.0 L 5150.0 150.0"
        fill="none"
        stroke="#1B5E20"
        stroke-width="2"
        stroke-linecap="round"
        stroke-linejoin="round"/>

  <circle cx="150" cy="150" r="2.5"
          fill="limegreen"/>

  <circle cx="5150.0" cy="150.0" r="2.5"
          fill="red"/>

</svg>